<ttFont>
          <CharString index="0">
            -60 -46 -43 -54 -64 -41 47 61 70 47 44 65 6 8 -1 -1 5 54 callgsubr
            -114 -91 -73 -122 -109 76 -76 112 48 38 18 27 28 hvcurveto
            -137 97 return
          </CharString>
          <CharString index="1">
            -92 callgsubr
            45 43 54 return
          </CharString>
          <CharString index="2">
            -64 -29 -32 -48 -44 16 -44 14 -24 hvcurveto
            79 hlineto
            -7 24 -5 29 19 vvcurveto
            30 9 11 24 vhcurveto
            return
          </CharString>
          <CharString index="3">
            rmoveto
            -12 callgsubr
            -34 25 206 callsubr
            return
          </CharString>
          <CharString index="4">
            103 62 -43 -81 -70 -49 -37 149 callsubr
            70 109 62 -25 46 -44 26 hvcurveto
            return
          </CharString>
          <CharString index="5">
            165 callgsubr
            -68 191 callgsubr
            19 -3 -6 18 211 callsubr
            -24 hhcurveto
            return
          </CharString>
          <CharString index="6">
            -6 -12 -13 -2 -11 hhcurveto
            -36 -27 24 39 40 28 34 50 70 34 -51 -69 -110 -83 -69 -123 -121 -94 80 102 -28 hvcurveto
            4 11 2 1 4 hvcurveto
            80 9 24 52 85 vvcurveto
            return
          </CharString>
          <CharString index="7">
            -75 callgsubr
            -102 -84 hlineto
            221 -247 rlineto
            126 hlineto
            -231 251 rlineto
            17 hlineto
            115 122 71 150 100 -66 81 -110 -98 -58 -69 -76 -22 5 -23 10 -22 hvcurveto
            return
          </CharString>
          <CharString index="8">
            -39 -16 -22 -40 -29 -28 -11 callgsubr
            22 25 -5 31 hhcurveto
            80 51 46 89 hvcurveto
            228 return
          </CharString>
          <CharString index="9">
            188 -278 -94 callsubr
            return
          </CharString>
          <CharString index="10">
            -90 callsubr
            -127 103 -83 122 return
          </CharString>
          <CharString index="11">
            87 -237 -163 hlineto
            -20 22 -27 14 -33 4 rrcurveto
            56 16 40 45 70 vvcurveto
            89 -63 59 -117 -37 -41 -9 -10 -25 vhcurveto
            -89 vlineto
            13 24 38 11 37 hhcurveto
            59 28 -27 -48 -48 -33 -31 -67 hvcurveto
            -32 -84 37 hlineto
            83 33 -35 -50 -75 -60 -24 -52 -45 -37 11 21 -41 hvcurveto
            -90 vlineto
            -15 36 45 -9 45 hhcurveto
            134 69 73 97 6 0 6 -1 6 hvcurveto
            130 -252 96 570 return
          </CharString>
          <CharString index="12">
            hlineto
            -98 callsubr
            return
          </CharString>
          <CharString index="13">
            -76 callgsubr
            34 51 -4 72 hhcurveto
            return
          </CharString>
          <CharString index="14">
            rmoveto
            11 34 rlineto
            87 265 11 46 0 vvcurveto
            0 10 -46 86 -265 vhcurveto
            11 -34 rlineto
            81 -251 rmoveto
            110 hlineto
            -230 674 rlineto
            -135 hlineto
            -233 -674 rlineto
            109 hlineto
            54 165 rlineto
            272 hlineto
            endchar
          </CharString>
          <CharString index="15">
            -88 callgsubr
            endchar
          </CharString>
          <CharString index="16">
            rmoveto
            -210 122 -138 188 190 119 138 210 209 -116 138 -194 -189 -120 -138 -209 vhcurveto
            108 hmoveto
            155 76 96 125 128 74 -96 -155 -156 -74 -96 -127 -122 -80 96 156 vhcurveto
            return
          </CharString>
          <CharString index="17">
            -87 callgsubr
            -132 -91 -89 -122 return
          </CharString>
          <CharString index="18">
            570 111 return
          </CharString>
          <CharString index="19">
            146 callsubr
            159 53 62 16 17 33 vhcurveto
            88 vlineto
            -19 -30 -60 -20 -53 hhcurveto
            -100 -71 48 91 95 76 51 114 20 39 -2 -4 19 hvcurveto
            return
          </CharString>
          <CharString index="20">
            68 -43 -56 35 -78 hhcurveto
            -30 -31 -5 146 callgsubr
            3 9 31 5 22 hhcurveto
            54 36 -20 -39 32 hvcurveto
            92 -116 -38 34 rlineto
            71 -81 -40 21 -62 hhcurveto
            -22 -26 -6 146 callgsubr
            2 6 30 6 21 hhcurveto
            return
          </CharString>
          <CharString index="21">
            79 vlineto
            -86 callgsubr
            return
          </CharString>
          <CharString index="22">
            -80 128 -218 hlineto
            -27 -7 -17 -22 -29 -68 callgsubr
            return
          </CharString>
          <CharString index="23">
            -102 callgsubr
            29 2 callsubr
            return
          </CharString>
          <CharString index="24">
            91 callsubr
            87 -377 87 callgsubr
            hlineto
            endchar
          </CharString>
          <CharString index="25">
            75 25 68 -59 callsubr
            return
          </CharString>
          <CharString index="26">
            vhcurveto
            -80 vlineto
            -1 6 9 -1 8 hhcurveto
            114 91 74 121 110 return
          </CharString>
          <CharString index="27">
            hhcurveto
            -79 callsubr
          </CharString>
          <CharString index="28">
            13 17 1 3 13 hvcurveto
            -97 callgsubr
          </CharString>
          <CharString index="29">
            70 callsubr
            -53 45 63 -16 vhcurveto
            79 25 64 60 84 48 callsubr
            170 hlineto
            -570 -214 rmoveto
            214 298 vlineto
            19 -19 11 -27 -36 vvcurveto
            -107 -137 -25 -130 vhcurveto
            return
          </CharString>
          <CharString index="30">
            -131 95 271 139 callsubr
            -48 -44 -72 hhcurveto
            -72 -49 46 82 77 54 47 84 hvcurveto
            return
          </CharString>
          <CharString index="31">
            rmoveto
            1 -6 -7 0 -6 hhcurveto
            127 callsubr
            hvcurveto
            -78 vlineto
            3 10 18 3 17 hhcurveto
            66 36 -40 -63 -110 -82 -63 -113 -79 -62 34 58 49 34 31 68 hvcurveto
            37 82 -31 hlineto
            -52 -41 33 52 39 19 33 37 24 hvcurveto
            197 hlineto
            239 hmoveto
            80 return
          </CharString>
          <CharString index="32">
            rmoveto
            -127 -65 -43 -88 -84 -67 43 122 vhcurveto
            423 -103 -424 vlineto
            -171 100 -88 154 156 100 89 178 vhcurveto
            416 -103 vlineto
            return
          </CharString>
          <CharString index="33">
            2 -7 -8 0 -8 hhcurveto
            return
          </CharString>
          <CharString index="34">
            16 25 8 32 40 vvcurveto
            134 return
          </CharString>
          <CharString index="35">
            -63 -9 -26 -63 vhcurveto
            -67 -78 hlineto
            -150 50 121 -117 176 hhcurveto
            return
          </CharString>
          <CharString index="36">
            -80 128 callsubr
            200 callgsubr
            return
          </CharString>
          <CharString index="37">
            rmoveto
            -23 -11 -17 -20 -30 -42 -34 41 -59 hhcurveto
            -47 -40 -35 -39 -18 hvcurveto
            49 -45 rlineto
            30 20 17 16 33 36 37 -41 53 hhcurveto
            47 40 27 47 22 hvcurveto
            return
          </CharString>
          <CharString index="38">
            rmoveto
            -276 vlineto
            -99 -51 -54 -75 -58 -38 36 71 vhcurveto
            322 -99 -346 vlineto
            -105 63 -62 100 76 55 31 62 27 vhcurveto
            -87 98 507 vlineto
            endchar
          </CharString>
          <CharString index="39">
            87 -20 -71 53 -110 hhcurveto
            -32 -35 -7 -8 -19 hvcurveto
            -82 vlineto
            9 20 31 7 31 hhcurveto
            71 42 -47 -66 -71 -43 -52 -84 -60 -50 20 22 -37 hvcurveto
            -89 vlineto
            -18 36 47 -18 71 hhcurveto
            125 4 80 73 12 103 rrcurveto
            return
          </CharString>
          <CharString index="40">
            193 callgsubr
            -30 6 -19 6 -16 vhcurveto
            94 hlineto
            -5 13 -8 15 28 203 callgsubr
            18 -31 -38 return
          </CharString>
          <CharString index="41">
            19 callsubr
            2 callgsubr
            return
          </CharString>
          <CharString index="42">
            17 -19 13 -29 -38 vvcurveto
            return
          </CharString>
          <CharString index="43">
            -82 -54 -43 -62 -64 -33 31 86 vhcurveto
            return
          </CharString>
          <CharString index="44">
            rmoveto
            -34 25 -26 36 34 26 26 34 34 -26 26 -34 -36 -25 -26 -34 vhcurveto
            221 hmoveto
            -34 26 -26 34 35 26 26 34 34 -26 26 -35 -34 -26 -26 -34 vhcurveto
            return
          </CharString>
          <CharString index="45">
            -80 90 -198 hlineto
            167 callsubr
            return
          </CharString>
          <CharString index="46">
            rmoveto
            -14 -26 -30 -9 -37 hhcurveto
            -77 -57 52 78 33 9 28 15 21 hvcurveto
            return
          </CharString>
          <CharString index="47">
            64 callsubr
            -61 hlineto
            105 -12 -77 59 -104 28 callgsubr
            118 326 80 -644 163 callgsubr
            vlineto
            -72 callsubr
            143 107 76 104 37 hvcurveto
            193 -215 43 callsubr
          </CharString>
          <CharString index="48">
            47 -14 callgsubr
            return
          </CharString>
          <CharString index="49">
            68 callsubr
            -68 -63 -40 -126 -34 vhcurveto
            20 -29 -38 18 -79 4 callgsubr
            36 27 -8 -16 17 hvcurveto
            return
          </CharString>
          <CharString index="50">
            rmoveto
            -61 -62 49 112 100 47 69 80 61 64 -47 -129 -104 -65 -50 -64 hvcurveto
            129 409 rmoveto
            -79 vlineto
            52 -28 -47 34 -72 hhcurveto
            -127 -81 -110 -147 -163 102 -80 106 67 49 30 52 31 hvcurveto
            -52 vlineto
            -104 -56 -43 -93 -53 -59 14 28 -43 vhcurveto
            -99 vlineto
            -24 49 61 -9 55 hhcurveto
            129 108 71 165 hvcurveto
            464 vlineto
            endchar
          </CharString>
          <CharString index="51">
            13 18 33 11 31 hhcurveto
            42 26 -24 -32 -52 -51 -28 -62 -94 -63 64 85 94 79 56 114 33 35 -4 -6 34 hvcurveto
            return
          </CharString>
          <CharString index="52">
            570 112 return
          </CharString>
          <CharString index="53">
            5 -15 -17 3 -19 124 callsubr
            return
          </CharString>
          <CharString index="54">
            -64 callgsubr
            -314 -80 145 hlineto
            -22 callgsubr
            return
          </CharString>
          <CharString index="55">
            rmoveto
            -95 hlineto
            -85 -63 -23 -38 -43 hvcurveto
            63 -30 -64 35 -80 28 callgsubr
            118 679 45 callsubr
            -1205 163 callgsubr
            hlineto
            -72 callsubr
            100 81 36 58 54 hvcurveto
            -78 31 69 -51 99 hhcurveto
            17 callsubr
          </CharString>
          <CharString index="56">
            rlineto
            -5 callgsubr
            return
          </CharString>
          <CharString index="57">
            -81 hlineto
            104 62 -37 -81 -64 -41 -43 -62 -41 -28 14 32 -40 hvcurveto
            -231 215 -8 callgsubr
            53 47 14 22 35 hvcurveto
            -34 37 51 -20 56 hhcurveto
            116 78 70 109 60 -24 43 -43 25 hvcurveto
            return
          </CharString>
          <CharString index="58">
            vlineto
            -77 callgsubr
            return
          </CharString>
          <CharString index="59">
            rmoveto
            208 249 86 -249 208 281 86 -384 -674 389 86 vlineto
            endchar
          </CharString>
          <CharString index="60">
            -80 511 -130 hlineto
            161 callgsubr
            -9 hlineto
            31 -29 -38 22 -72 hhcurveto
            -124 hlineto
            -105 callsubr
            78 hlineto
            46 23 -19 -28 21 hvcurveto
            -98 callsubr
            return
          </CharString>
          <CharString index="61">
            -155 -66 callgsubr
          </CharString>
          <CharString index="62">
            89 147 callgsubr
            59 -59 116 116 65 64 119 vhcurveto
            219 return
          </CharString>
          <CharString index="63">
            hhcurveto
            -66 -47 36 57 59 46 52 143 hvcurveto
            81 -346 -81 134 vlineto
            -43 -23 -28 -40 -58 vvcurveto
            -103 82 -58 116 return
          </CharString>
          <CharString index="64">
            138 13 11 1 1 9 return
          </CharString>
          <CharString index="65">
            -66 callsubr
            87 -377 -24 callgsubr
          </CharString>
          <CharString index="66">
            -80 103 -310 hlineto
            -164 110 -65 146 58 55 11 16 39 vhcurveto
            88 vlineto
            -20 -39 -55 -12 -51 hhcurveto
            -99 -67 40 106 hvcurveto
            310 230 -132 vlineto
            -56 -26 -30 -58 -14 -12 2 3 -11 vhcurveto
            -78 vlineto
            -5 18 15 -1 19 hhcurveto
            102 63 59 100 hvcurveto
            138 84 vlineto
            endchar
          </CharString>
          <CharString index="67">
            rmoveto
            -1172 -80 964 -131 -342 hlineto
            23 -24 -35 15 -45 hhcurveto
            -67 -51 -37 -60 -13 -106 callgsubr
            70 vlineto
            77 28 42 57 34 23 -18 -22 12 vhcurveto
            -1 vlineto
            103 62 -38 -78 -65 -49 -34 149 callsubr
            67 106 59 -24 41 -41 24 hvcurveto
            181 -358 120 callgsubr
          </CharString>
          <CharString index="68">
            rmoveto
            31 -27 -46 26 -61 hhcurveto
            -47 -37 -18 -27 -27 hvcurveto
            133 558 -145 vlineto
            -868 145 rmoveto
            213 -190 hlineto
            -64 callsubr
            1076 278 rmoveto
            -1263 -62 callsubr
            301 vlineto
            60 45 43 49 49 28 -26 -33 11 vhcurveto
            -1 vlineto
            107 57 -39 -69 -63 -46 -30 -72 -42 -36 11 15 -31 hvcurveto
            -86 vlineto
            -13 33 42 -9 49 hhcurveto
            112 84 57 109 57 -25 38 -42 22 hvcurveto
            186 -344 120 callgsubr
          </CharString>
          <CharString index="69">
            rmoveto
            84 hlineto
            120 162 -6 callsubr
            return
          </CharString>
          <CharString index="70">
            rmoveto
            157 130 80 -667 -80 442 -79 -214 vlineto
            -74 -57 -36 -70 -64 44 -35 26 -16 hvcurveto
            -54 -40 -27 -60 -68 vvcurveto
            -155 135 -91 168 31 33 2 8 36 vhcurveto
            77 vlineto
            -8 -25 -40 -4 -28 hhcurveto
            -143 -71 76 90 85 60 63 106 29 25 -3 -7 21 hvcurveto
            -168 -199 rlineto
            111 hlineto
            122 153 rlineto
            14 -21 7 -26 -32 vvcurveto
            -25 -4 -28 -7 -17 vhcurveto
            89 hlineto
            6 18 5 32 25 vvcurveto
            132 -100 77 -145 -45 -39 -6 -12 -34 vhcurveto
            -21 12 -19 24 31 119 callsubr
          </CharString>
          <CharString index="71">
            13 17 1 3 13 return
          </CharString>
          <CharString index="72">
            rmoveto
            133 76 -133 124 -99 -124 -79 -76 79 -277 hlineto
            -101 48 -58 109 23 36 6 12 22 vhcurveto
            88 vlineto
            -14 -18 -27 -8 -24 hhcurveto
            -46 -24 25 48 hvcurveto
            endchar
          </CharString>
          <CharString index="73">
            77 callsubr
            -73 -51 35 64 -17 vhcurveto
            71 24 69 60 58 callgsubr
            -570 -231 rmoveto
            -73 callsubr
            273 vlineto
            -65 callsubr
            -106 -163 -39 -133 vhcurveto
            746 311 rmoveto
            return
          </CharString>
          <CharString index="74">
            vvcurveto
            -24 13 -32 15 -34 vhcurveto
            28 -64 rlineto
            98 callgsubr
            return
          </CharString>
          <CharString index="75">
            -80 -18 callgsubr
            return
          </CharString>
          <CharString index="76">
            112 callsubr
            63 47 42 57 60 41 -46 -61 -75 100 callgsubr
            0 1 -6 vhcurveto
            -80 vlineto
            -1 7 9 -1 8 hhcurveto
            110 94 68 128 105 -70 79 -112 -49 -41 -17 -29 -29 hvcurveto
            126 vlineto
            endchar
          </CharString>
          <CharString index="77">
            -37 -19 -20 -34 -43 vvcurveto
            -72 51 -38 77 -6 vhcurveto
            -79 -8 -57 -44 -79 vvcurveto
            -95 return
          </CharString>
          <CharString index="78">
            21 -41 -46 7 -34 hhcurveto
            -170 -95 -126 -138 -144 98 -118 163 44 50 11 19 31 hvcurveto
            88 vlineto
            -19 -30 -42 -14 -40 hhcurveto
            -112 -59 78 98 -2 hvcurveto
            return
          </CharString>
          <CharString index="79">
            rmoveto
            -68 -29 -28 -55 -56 -24 35 61 vhcurveto
            224 164 vlineto
            return
          </CharString>
          <CharString index="80">
            -19 callsubr
            hlineto
            endchar
          </CharString>
          <CharString index="81">
            rmoveto
            193 callsubr
            117 hlineto
            -141 168 rlineto
            return
          </CharString>
          <CharString index="82">
            -1 callsubr
            -73 -7 -49 -47 -73 vvcurveto
            -87 68 -56 95 -19 vhcurveto
            -115 -149 -51 callsubr
            91 128 89 67 callgsubr
            -121 156 rlineto
            114 34 76 90 120 vvcurveto
            return
          </CharString>
          <CharString index="83">
            rmoveto
            -88 -59 -51 return
          </CharString>
          <CharString index="84">
            -67 callsubr
            -79 -86 -41 -170 -39 vhcurveto
            return
          </CharString>
          <CharString index="85">
            354 rmoveto
            -195 216 195 hlineto
            return
          </CharString>
          <CharString index="86">
            rmoveto
            143 80 -608 -80 369 -98 hlineto
            1 -12 -13 1 -10 hhcurveto
            -156 -2 -107 -89 -137 vvcurveto
            -105 64 -80 96 -30 vhcurveto
            -119 -155 165 callsubr
            91 54 callsubr
            -118 152 rlineto
            79 23 46 57 69 vvcurveto
            -3 callsubr
          </CharString>
          <CharString index="87">
            96 -82 callgsubr
          </CharString>
          <CharString index="88">
            -27 -7 -17 -19 -28 -33 callsubr
            return
          </CharString>
          <CharString index="89">
            122 32 115 60 122 vvcurveto
            193 callgsubr
            -22 3 -23 9 -20 vhcurveto
            94 hlineto
            -9 17 -4 21 18 203 callgsubr
            18 -31 -38 -115 -227 -54 -144 vhcurveto
            -52 hlineto
            -73 callsubr
            125 80 -434 -80 213 -130 vlineto
            -101 callgsubr
            19 hlineto
            45 42 3 7 36 hvcurveto
            return
          </CharString>
          <CharString index="90">
            rmoveto
            -207 -342 hlineto
            -85 -68 -76 -112 -74 -46 34 51 54 46 31 75 vhcurveto
            56 81 -48 hlineto
            -68 -54 23 58 54 45 37 83 hvcurveto
            1 80 return
          </CharString>
          <CharString index="91">
            650 rmoveto
            return
          </CharString>
          <CharString index="92">
            rmoveto
            88 hlineto
            89 46 -43 -80 -71 -41 -52 -89 hvcurveto
            -93 hlineto
            247 -342 rmoveto
            123 hlineto
            -176 272 81 29 50 67 2 96 rlinecurve
            127 -85 83 -157 vhcurveto
            -188 177 callgsubr
            hlineto
            endchar
          </CharString>
          <CharString index="93">
            248 660 284 rmoveto
            -68 -41 -47 -66 -50 -45 29 33 -28 vhcurveto
            72 21 15 92 86 hhcurveto
            68 40 -45 -66 hvcurveto
            -417 -115 rmoveto
            11 callgsubr
            581 401 rmoveto
            80 -848 -80 539 -100 vlineto
            -53 -7 -33 -24 -25 -30 rrcurveto
            -7 callsubr
            return
          </CharString>
          <CharString index="94">
            rmoveto
            -98 -507 98 270 hlineto
            80 47 72 70 16 15 -2 -7 16 vhcurveto
            96 vlineto
            2 -11 -10 1 -10 hhcurveto
            -68 -43 -38 -56 -22 hvcurveto
            endchar
          </CharString>
          <CharString index="95">
            5 callgsubr
            77 -117 rlineto
            return
          </CharString>
          <CharString index="96">
            202 callgsubr
            -4 callsubr
            return
          </CharString>
          <CharString index="97">
            rmoveto
            -135 -162 rlineto
            97 hlineto
            82 102 84 -102 rlineto
            97 hlineto
            -135 162 rlineto
            return
          </CharString>
          <CharString index="98">
            rmoveto
            208 -272 -51 callsubr
            -211 274 rlineto
            1 9 0 1 2 hvcurveto
            93 7 60 57 94 vvcurveto
            137 101 80 -436 -80 239 -129 vlineto
            -58 -33 -33 -80 vhcurveto
            -70 hlineto
            endchar
          </CharString>
          <CharString index="99">
            rmoveto
            24 -6 31 -12 17 vhcurveto
            -84 hlineto
            14 -21 11 -21 -27 vvcurveto
            -41 -28 -25 -54 -3 vhcurveto
            -68 vlineto
            108 2 51 62 70 vvcurveto
            endchar
          </CharString>
          <CharString index="100">
            29 -30 -52 36 -83 hhcurveto
            -113 -85 -77 -116 -117 84 -74 117 75 42 30 39 28 hvcurveto
            return
          </CharString>
          <CharString index="101">
            rlineto
            -109 hlineto
            return
          </CharString>
          <CharString index="102">
            192 callsubr
            -19 vhcurveto
            -78 vlineto
            8 15 21 6 20 hhcurveto
            34 12 -20 -40 hvcurveto
            -117 vlineto
            -26 -6 -18 -22 114 callgsubr
            return
          </CharString>
          <CharString index="103">
            -103 callsubr
            185 -374 87 callgsubr
            return
          </CharString>
          <CharString index="104">
            40 callgsubr
            -75 vlineto
            -56 callsubr
            endchar
          </CharString>
          <CharString index="105">
            -133 80 -99 -43 callsubr
            return
          </CharString>
          <CharString index="106">
            -28 -25 -13 -36 -35 vvcurveto
            -71 50 -46 56 -6 vhcurveto
            return
          </CharString>
          <CharString index="107">
            rmoveto
            109 80 -553 181 callgsubr
            -103 57 -72 92 -31 vhcurveto
            -123 -160 165 callsubr
            92 129 89 -129 165 callsubr
            -114 147 37 7 31 11 20 11 rlinecurve
            88 vlineto
            -20 -33 -53 -20 -57 hhcurveto
            -100 -70 48 91 95 76 51 114 25 31 -2 -4 21 hvcurveto
            endchar
          </CharString>
          <CharString index="108">
            342 rmoveto
            -88 -59 -51 -86 81 callsubr
            170 hlineto
            return
          </CharString>
          <CharString index="109">
            -33 -77 hvcurveto
            87 callsubr
            return
          </CharString>
          <CharString index="110">
            175 -278 rlineto
            113 hlineto
            -176 279 rlineto
            11 hlineto
            39 4 32 13 23 21 rrcurveto
            30 48 54 24 68 hhcurveto
            59 50 -27 -28 36 hvcurveto
            -168 -55 rlineto
            -48 -16 -23 -29 -38 vvcurveto
            -41 32 -47 34 -30 vhcurveto
            67 23 rlineto
            -16 21 -15 27 23 vvcurveto
            19 10 15 21 9 vhcurveto
            138 53 rlineto
            -250 -20 callsubr
          </CharString>
          <CharString index="111">
            -249 rmoveto
            77 hlineto
            113 198 -6 callsubr
            return
          </CharString>
          <CharString index="112">
            128 callgsubr
            130 return
          </CharString>
          <CharString index="113">
            301 vlineto
            60 45 43 54 return
          </CharString>
          <CharString index="114">
            rmoveto
            213 -190 hlineto
            -64 callsubr
            310 198 rmoveto
            177 80 -674 -80 90 -198 hlineto
            129 callgsubr
            53 38 -31 -49 20 vhcurveto
            74 54 rlineto
            62 -32 -56 43 -85 94 callgsubr
            endchar
          </CharString>
          <CharString index="115">
            rmoveto
            31 23 -25 -29 -29 -23 -26 -31 -30 -23 26 29 29 23 25 30 hvcurveto
            -170 vmoveto
            64 52 51 63 64 -52 52 -64 -63 -51 -52 -64 -63 51 -51 63 hvcurveto
            return
          </CharString>
          <CharString index="116">
            -49 callsubr
            -162 20 103 -88 122 -94 callgsubr
            vlineto
            endchar
          </CharString>
          <CharString index="117">
            rmoveto
            84 -102 rlineto
            97 hlineto
            -135 162 rlineto
            -90 hlineto
            -135 -162 rlineto
            97 hlineto
            return
          </CharString>
          <CharString index="118">
            -75 callsubr
            endchar
          </CharString>
          <CharString index="119">
            rmoveto
            75 hlineto
            134 162 -6 callsubr
            -265 -162 rmoveto
            75 hlineto
            122 162 rlineto
            -103 hlineto
            return
          </CharString>
          <CharString index="120">
            21 callgsubr
            -9 14 vhcurveto
            return
          </CharString>
          <CharString index="121">
            -72 -90 vlineto
            -90 -79 -43 -95 -97 80 -37 111 -4 hvcurveto
            -88 callgsubr
            return
          </CharString>
          <CharString index="122">
            hhcurveto
            -73 -55 134 callgsubr
            85 vlineto
            4 -17 -25 173 callgsubr
            176 callsubr
            return
          </CharString>
          <CharString index="123">
            53 -150 104 -98 158 -11 -199 -157 rcurveline
            144 hlineto
            151 118 92 69 55 54 rrcurveto
            -132 97 -82 callgsubr
          </CharString>
          <CharString index="124">
            13 11 1 1 9 hvcurveto
            -42 callsubr
          </CharString>
          <CharString index="125">
            rmoveto
            -353 -82 237 hlineto
            -246 -350 rlineto
            -75 375 83 -262 vlineto
            249 354 rlineto
            return
          </CharString>
          <CharString index="126">
            -72 callgsubr
            -91 -41 return
          </CharString>
          <CharString index="127">
            -35 14 -46 hhcurveto
            -73 -53 -32 -65 -17 -106 callgsubr
            70 vlineto
            84 38 35 62 return
          </CharString>
          <CharString index="128">
            185 246 87 rmoveto
            207 164 84 -164 208 103 vlineto
            148 91 -107 -135 -142 -74 -115 -162 hvcurveto
            -210 587 rmoveto
            -296 -80 -84 80 -294 211 vlineto
            218 122 150 194 192 -141 138 -201 hvcurveto
            endchar
          </CharString>
          <CharString index="129">
            83 -35 43 -95 vhcurveto
            -354 -80 336 153 callsubr
            -105 -245 vlineto
            -105 callsubr
            172 187 callgsubr
            29 -62 rlineto
            84 134 return
          </CharString>
          <CharString index="130">
            vvcurveto
            -108 106 -61 132 168 125 105 153 68 -27 52 -49 30 vhcurveto
            107 vlineto
            endchar
          </CharString>
          <CharString index="131">
            -134 -142 rlineto
            47 callgsubr
            return
          </CharString>
          <CharString index="132">
            hlineto
            -101 -75 -47 -92 -105 97 -24 101 -4 hvcurveto
            71 -4 36 -19 -46 vvcurveto
            -46 -36 -32 -49 -62 -52 39 53 -21 vhcurveto
            -88 -235 95 108 hlineto
            -26 36 48 -15 51 hhcurveto
            102 72 69 87 97 -63 46 -131 5 hvcurveto
            -78 5 -32 15 36 vvcurveto
            37 33 18 46 vhcurveto
            return
          </CharString>
          <CharString index="133">
            130 callsubr
            -42 60 88 96 55 50 85 hvcurveto
            19 hlineto
            45 28 -24 -34 16 hvcurveto
            -130 34 93 -70 109 -94 callgsubr
            vlineto
            endchar
          </CharString>
          <CharString index="134">
            -60 -46 -43 -54 -64 -41 47 61 70 47 44 65 6 8 -1 -1 5 54 callgsubr
            -29 -28 -5 -9 -25 hvcurveto
            return
          </CharString>
          <CharString index="135">
            rmoveto
            166 callgsubr
            -82 vlineto
            -8 23 24 -5 31 hhcurveto
            81 50 46 89 hvcurveto
            228 156 -276 vlineto
            -363 -314 rlineto
            133 hlineto
            230 195 rlineto
            -175 79 callgsubr
          </CharString>
          <CharString index="136">
            -69 callgsubr
            -132 -91 -89 -122 142 callsubr
            hvcurveto
            -153 -66 callgsubr
          </CharString>
          <CharString index="137">
            -80 64 hlineto
            41 hlineto
            -43 -36 -21 -53 -64 vvcurveto
            -137 90 -87 128 13 12 1 1 8 vhcurveto
            84 vlineto
            -1 -5 -10 -1 -6 hhcurveto
            return
          </CharString>
          <CharString index="138">
            -38 30 -30 38 37 30 30 38 38 -30 29 -37 -38 -30 -29 -38 vhcurveto
            return
          </CharString>
          <CharString index="139">
            -97 -79 -40 -90 -83 64 -36 118 71 46 -11 -53 -48 -36 -28 132 callgsubr
            55 96 98 -71 41 -112 2 hvcurveto
            -89 1 -25 9 34 vvcurveto
            35 32 13 49 vhcurveto
            return
          </CharString>
          <CharString index="140">
            83 130 40 hlineto
            51 50 3 7 46 hvcurveto
            -105 39 84 -57 103 hhcurveto
            -6 callgsubr
            return
          </CharString>
          <CharString index="141">
            -174 39 220 rmoveto
            -8 23 24 -5 31 hhcurveto
            81 50 46 89 hvcurveto
            228 154 80 -426 166 callgsubr
            418 39 rmoveto
            -416 -361 rlineto
            133 hlineto
            328 280 rlineto
            return
          </CharString>
          <CharString index="142">
            13 281 -9 -85 callgsubr
            return
          </CharString>
          <CharString index="143">
            rmoveto
            37 callsubr
          </CharString>
          <CharString index="144">
            -67 callgsubr
            endchar
          </CharString>
          <CharString index="145">
            rmoveto
            -141 168 rlineto
            -99 hlineto
            193 callsubr
            return
          </CharString>
          <CharString index="146">
            rmoveto
            -34 26 -26 35 35 25 26 34 34 -25 26 -35 -35 -26 -26 -34 vhcurveto
            endchar
          </CharString>
          <CharString index="147">
            97 -79 callgsubr
          </CharString>
          <CharString index="148">
            204 callgsubr
            hlineto
            -141 66 -60 117 return
          </CharString>
          <CharString index="149">
            -80 91 -120 hlineto
            -80 32 -55 57 -17 vhcurveto
            -59 -23 -38 -50 -70 vvcurveto
            -121 114 -57 130 69 69 15 20 43 vhcurveto
            88 vlineto
            -21 -38 -76 -20 -61 hhcurveto
            -92 -58 32 69 67 65 32 85 hvcurveto
            175 return
          </CharString>
          <CharString index="150">
            rlineto
            126 hlineto
            -231 251 rlineto
            17 hlineto
            115 122 71 150 100 -66 81 -110 -98 -58 -69 -76 -22 5 -23 10 -22 hvcurveto
            416 209 rmoveto
            -650 97 -37 callgsubr
          </CharString>
          <CharString index="151">
            231 rmoveto
            347 -130 hlineto
            -51 -17 -32 -60 -5 vhcurveto
            74 -18 -54 54 -91 hhcurveto
            -45 -36 -17 -25 -26 hvcurveto
            return
          </CharString>
          <CharString index="152">
            vlineto
            90 callsubr
            return
          </CharString>
          <CharString index="153">
            rmoveto
            499 103 vlineto
            148 90 -107 -135 -142 -74 -115 -161 hvcurveto
            -211 587 rmoveto
            -674 212 vlineto
            218 122 150 194 192 -142 138 -200 hvcurveto
            endchar
          </CharString>
          <CharString index="154">
            154 callsubr
            -48 37 -77 hhcurveto
            return
          </CharString>
          <CharString index="155">
            -45 callgsubr
            -14 21 vhcurveto
            return
          </CharString>
          <CharString index="156">
            -570 97 570 return
          </CharString>
          <CharString index="157">
            274 79 rmoveto
            -75 -57 68 102 120 61 59 74 57 78 -43 -128 -129 -68 -49 -70 hvcurveto
            return
          </CharString>
          <CharString index="158">
            hvcurveto
            -126 463 rmoveto
            230 -143 rlineto
            -23 -18 -29 -9 -38 hhcurveto
            -41 hlineto
            -67 -37 31 79 hvcurveto
            return
          </CharString>
          <CharString index="159">
            -67 -48 17 57 34 17 27 31 19 hvcurveto
            return
          </CharString>
          <CharString index="160">
            -90 -95 vlineto
            -151 -81 -89 -117 return
          </CharString>
          <CharString index="161">
            128 90 67 callgsubr
            return
          </CharString>
          <CharString index="162">
            -89 callsubr
            80 hlineto
            endchar
          </CharString>
          <CharString index="163">
            74 callgsubr
            60 96 97 -71 45 -112 1 hvcurveto
            -89 2 -25 17 34 vvcurveto
            35 32 15 49 vhcurveto
            317 -415 97 570 123 return
          </CharString>
          <CharString index="164">
            rmoveto
            -95 162 -6 callsubr
            120 -162 rlineto
            return
          </CharString>
          <CharString index="165">
            hhcurveto
            -47 -39 -18 -27 -27 hvcurveto
            return
          </CharString>
          <CharString index="166">
            vvcurveto
            142 callsubr
            vhcurveto
            -153 -66 callgsubr
          </CharString>
          <CharString index="167">
            118 callgsubr
            33 15 51 vhcurveto
            169 178 callgsubr
            return
          </CharString>
          <CharString index="168">
            -1 rmoveto
            92 hlineto
            365 678 rlineto
            -93 hlineto
            -75 -517 rmoveto
            -93 75 -74 93 92 75 74 93 92 -75 76 -92 -93 -75 -76 -92 vhcurveto
            -453 360 rmoveto
            -93 75 -75 return
          </CharString>
          <CharString index="169">
            284 65 -181 hlineto
            94 68 73 86 83 vvcurveto
            87 -67 46 -78 -43 -40 -15 -18 -29 vhcurveto
            -79 vlineto
            23 31 39 17 35 hhcurveto
            42 30 -22 -46 -76 -96 -92 -94 -70 hvcurveto
            return
          </CharString>
          <CharString index="170">
            56 81 -47 hlineto
            -69 -54 18 37 callgsubr
            -72 51 -33 78 -6 vhcurveto
            -79 -6 -57 -49 -73 vvcurveto
            return
          </CharString>
          <CharString index="171">
            rmoveto
            -75 callgsubr
            return
          </CharString>
          <CharString index="172">
            130 79 69 91 40 callgsubr
            return
          </CharString>
          <CharString index="173">
            86 vhcurveto
            198 213 vlineto
            return
          </CharString>
          <CharString index="174">
            122 -89 52 -98 -97 -86 -52 -123 vhcurveto
            -23 97 21 vlineto
            64 34 29 52 53 37 -31 -62 vhcurveto
            -78 -109 -71 callsubr
            return
          </CharString>
          <CharString index="175">
            143 37 94 64 112 vvcurveto
            -67 callsubr
            return
          </CharString>
          <CharString index="176">
            146 callsubr
            158 54 62 16 17 33 vhcurveto
            88 vlineto
            -19 -30 -60 -20 -53 hhcurveto
            -101 -70 48 91 95 76 51 114 20 38 -2 -4 20 hvcurveto
            endchar
          </CharString>
          <CharString index="177">
            49 callgsubr
            -75 return
          </CharString>
          <CharString index="178">
            372 rmoveto
            -9 -1 -8 -1 -9 vhcurveto
            -223 224 rlineto
            225 hlineto
            -241 -67 rmoveto
            214 -211 rlineto
            -29 -24 -37 -16 -36 hhcurveto
            -68 -49 38 87 hvcurveto
            return
          </CharString>
          <CharString index="179">
            98 callgsubr
            hlineto
            endchar
          </CharString>
          <CharString index="180">
            -76 -43 -27 -37 -30 hvcurveto
            95 callsubr
            return
          </CharString>
          <CharString index="181">
            vvcurveto
            106 -71 64 -95 21 vhcurveto
            117 vlineto
            endchar
          </CharString>
          <CharString index="182">
            -263 hlineto
            165 callgsubr
            -69 -49 45 73 69 50 44 64 22 19 -3 -6 18 vhcurveto
            85 vlineto
            4 -18 -24 173 callgsubr
            return
          </CharString>
          <CharString index="183">
            -86 vlineto
            -14 35 -49 callgsubr
            return
          </CharString>
          <CharString index="184">
            0 callgsubr
            -87 return
          </CharString>
          <CharString index="185">
            104 62 -43 -81 -70 -49 -37 -72 -41 -36 174 callgsubr
            34 44 -8 79 callsubr
            81 70 109 62 -25 46 -45 26 hvcurveto
            return
          </CharString>
          <CharString index="186">
            44 hhcurveto
            120 return
          </CharString>
          <CharString index="187">
            28 -63 rlineto
            33 callsubr
            return
          </CharString>
          <CharString index="188">
            -75 -54 47 64 -15 vhcurveto
            75 16 callgsubr
            return
          </CharString>
          <CharString index="189">
            vvcurveto
            57 42 42 51 26 25 -8 -10 17 vhcurveto
            89 vlineto
            return
          </CharString>
          <CharString index="190">
            -59 -65 -105 hvcurveto
            -39 -81 -76 81 160 callgsubr
            return
          </CharString>
          <CharString index="191">
            -306 73 hmoveto
            99 507 -99 hlineto
            return
          </CharString>
          <CharString index="192">
            hlineto
            -65 callsubr
            -38 return
          </CharString>
          <CharString index="193">
            hhcurveto
            194 callgsubr
            hvcurveto
            return
          </CharString>
          <CharString index="194">
            -72 97 70 vlineto
            84 return
          </CharString>
          <CharString index="195">
            -80 203 vlineto
            -29 callgsubr
            -42 -110 -18 vhcurveto
            18 -143 84 -81 102 -15 -191 -177 rcurveline
            138 hlineto
            return
          </CharString>
          <CharString index="196">
            -77 callsubr
            185 99 callsubr
            hlineto
            endchar
          </CharString>
          <CharString index="197">
            208 80 rmoveto
            return
          </CharString>
          <CharString index="198">
            vvcurveto
            -2 callsubr
            vhcurveto
            -66 callsubr
            return
          </CharString>
          <CharString index="199">
            hhcurveto
            -60 -62 -17 -21 -34 hvcurveto
            -89 vlineto
            20 35 59 23 59 hhcurveto
            74 -1 return
          </CharString>
          <CharString index="200">
            hhcurveto
            -110 -67 -86 -122 return
          </CharString>
          <CharString index="201">
            -187 -21 callgsubr
            return
          </CharString>
          <CharString index="202">
            -7 callsubr
            -37 36 54 -32 78 hhcurveto
            return
          </CharString>
          <CharString index="203">
            108 callsubr
            97 -82 callgsubr
          </CharString>
          <CharString index="204">
            rmoveto
            140 80 -573 -80 337 -72 -90 hlineto
            return
          </CharString>
          <CharString index="205">
            808 rmoveto
            -29 -22 -23 -29 -29 22 -22 29 30 return
          </CharString>
          <CharString index="206">
            169 118 80 return
          </CharString>
          <CharString index="207">
            130 callgsubr
            -13 21 vhcurveto
            170 hlineto
            return
          </CharString>
          <CharString index="208">
            29 303 79 rmoveto
            -61 -75 48 128 130 74 43 66 74 57 -64 -108 -116 -59 -61 -76 hvcurveto
            -136 return
          </CharString>
          <CharString index="209">
            342 rmoveto
            -88 -59 -51 -87 81 callsubr
            171 hlineto
            return
          </CharString>
          <CharString index="210">
            rmoveto
            -456 -86 176 -588 103 588 177 hlineto
            endchar
          </CharString>
          <CharString index="211">
            -286 vlineto
            -127 -92 -51 -85 return
          </CharString>
          <CharString index="212">
            127 callgsubr
            108 80 return
          </CharString>
          <CharString index="213">
            rmoveto
            -34 -23 -27 -23 -41 -65 -47 64 -100 hhcurveto
            -61 -54 -40 -54 -39 hvcurveto
            63 -53 rlineto
            44 32 33 20 43 62 56 return
          </CharString>
          <CharString index="214">
            13 11 1 1 9 vhcurveto
            134 callsubr
            return
          </CharString>
          <CharString index="215">
            hhcurveto
            126 callgsubr
            return
          </CharString>
          <CharString index="216">
            72 callgsubr
            -110 -67 -86 -122 return
          </CharString>
          <CharString index="217">
            64 34 30 52 53 37 -31 -63 vhcurveto
            -89 -109 -80 128 callsubr
            147 callsubr
            80 -113 return
          </CharString>
          <CharString index="218">
            -244 hlineto
            -66 -54 -85 -110 -66 -45 32 61 59 46 52 143 vhcurveto
            81 -346 -81 134 vlineto
            return
          </CharString>
          <CharString index="219">
            124 hlineto
            225 246 rlineto
            -246 97 307 vlineto
            return
          </CharString>
          <CharString index="220">
            rmoveto
            -106 hlineto
            146 -162 -146 -162 rlineto
            106 hlineto
            return
          </CharString>
          <CharString index="221">
            -5 callgsubr
            94 124 95 -124 -51 callsubr
            -128 155 rlineto
            73 27 50 64 89 vvcurveto
            return
          </CharString>
          <CharString index="222">
            -80 139 -173 vlineto
            -27 -6 -17 -22 -29 -68 callgsubr
            return
          </CharString>
          <CharString index="223">
            vlineto
            -64 -30 -32 -49 -44 17 -44 13 -23 hvcurveto
            79 hlineto
            -7 23 -4 29 20 vvcurveto
            30 8 10 24 vhcurveto
            return
          </CharString>
          <CharString index="224">
            -44 -72 hhcurveto
            -72 -49 46 82 77 54 47 84 hvcurveto
            endchar
          </CharString>
          <CharString index="225">
            102 67 76 107 33 45 -10 -21 33 vhcurveto
            return
          </CharString>
          <CharString index="226">
            vvcurveto
            32 22 8 28 vhcurveto
            endchar
          </CharString>
          <CharString index="227">
            -24 -22 -14 -29 -35 vvcurveto
            return
          </CharString>
          <CharString index="228">
            -123 51 -59 88 -13 vhcurveto
            179 callgsubr
            rlineto
            124 hlineto
            225 246 rlineto
            -246 97 return
          </CharString>
          <CharString index="229">
            rmoveto
            247 340 rlineto
            -125 hlineto
            -245 -341 255 -333 rlineto
            130 hlineto
            endchar
          </CharString>
          <CharString index="230">
            654 rmoveto
            -85 327 vlineto
            -267 -569 rlineto
            105 hlineto
            266 569 rlineto
            85 vlineto
            endchar
          </CharString>
          <CharString index="231">
            hhcurveto
            -75 -52 -32 -65 47 callsubr
            return
          </CharString>
          <CharString index="232">
            77 callsubr
            -75 return
          </CharString>
          <CharString index="233">
            -33 -77 hvcurveto
            -72 97 return
          </CharString>
          <CharString index="234">
            -20 -26 -2 -5 -14 return
          </CharString>
          <CharString index="235">
            111 -570 return
          </CharString>
          <CharString index="236">
            rmoveto
            -17 -26 191 callsubr
            32 8 28 16 22 hvcurveto
            476 281 rmoveto
            return
          </CharString>
          <CharString index="237">
            vvcurveto
            -133 77 -99 141 107 callsubr
            return
          </CharString>
          <CharString index="238">
            207 80 rmoveto
            return
          </CharString>
          <CharString index="239">
            167 callsubr
            306 vlineto
            63 48 41 return
          </CharString>
          <CharString index="240">
            34 28 27 34 35 -28 27 -34 -34 -27 -27 -35 return
          </CharString>
          <CharString index="241">
            82 vlineto
            -1 -6 -9 0 -6 hhcurveto
            -91 return
          </CharString>
          <CharString index="242">
            26 40 33 hvcurveto
            -155 return
          </CharString>
          <CharString index="243">
            hvcurveto
            -189 97 570 return
          </CharString>
          <CharString index="244">
            109 callgsubr
            32 16 52 vhcurveto
            168 1 hlineto
            5 -1 rlineto
            145 return
          </CharString>
          <CharString index="245">
            130 125 vvcurveto
            132 -96 66 -116 -61 -67 -22 -33 -43 vhcurveto
            -97 vlineto
            35 return
          </CharString>
          <CharString index="246">
            -93 vlineto
            -68 -5 return
          </CharString>
          <CharString index="247">
            hhcurveto
            -78 -53 44 67 -18 185 callgsubr
            return
          </CharString>
          <CharString index="248">
            189 -278 -76 callgsubr
            35 50 -4 72 hhcurveto
            return
          </CharString>
          <CharString index="249">
            -126 101 -84 115 75 60 31 43 37 return
          </CharString>
          <CharString index="250">
            339 rmoveto
            -73 callsubr
            return
          </CharString>
          <CharString index="251">
            97 55 callsubr
          </CharString>
          <CharString index="252">
            rmoveto
            -304 -68 304 hlineto
            return
          </CharString>
          <CharString index="253">
            vvcurveto
            -141 106 -83 return
          </CharString>
          <CharString index="254">
            96 -55 callsubr
            return
          </CharString>
          <CharString index="255">
            -107 -20 vlineto
            -109 -1 -82 -49 -38 -74 rrcurveto
            345 231 rmoveto
            106 80 return
          </CharString>
          <CharString index="256">
            -71 -42 -36 10 16 -31 hvcurveto
            76 callsubr
            return
          </CharString>
          <CharString index="257">
            -72 -54 43 66 -19 hvcurveto
            76 24 68 45 94 48 callsubr
            return
          </CharString>
          <CharString index="258">
            -345 17 460 rmoveto
            80 hlineto
            125 235 rlineto
            -117 hlineto
            endchar
          </CharString>
          <CharString index="259">
            -115 81 -91 129 return
          </CharString>
          <CharString index="260">
            hlineto
            41 11 -21 -40 hvcurveto
            return
          </CharString>
          <CharString index="261">
            -17 hvcurveto
            55 -12 return
          </CharString>
          <CharString index="262">
            119 rmoveto
            179 callsubr
            return
          </CharString>
          <CharString index="263">
            -38 29 -29 38 37 30 29 38 37 -30 30 -37 -38 -29 -30 -37 vhcurveto
            return
          </CharString>
          <CharString index="264">
            hhcurveto
            -93 -89 21 80 84 103 19 106 19 56 -2 -4 19 hvcurveto
            endchar
          </CharString>
          <CharString index="265">
            -45 callgsubr
            -13 21 vhcurveto
            170 hlineto
            return
          </CharString>
          <CharString index="266" raw="1">
            1e390a0b   
          </CharString>
          <CharString index="267">
            95 -89 callsubr
            return
          </CharString>
          <CharString index="268">
            52 57 19 34 26 return
          </CharString>
          <CharString index="269">
            87 -57 63 -95 return
          </CharString>
          <CharString index="270">
            162 rlineto
            -97 return
          </CharString>
          <CharString index="271">
            98 570 195 callsubr
          </CharString>
          <CharString index="272">
            rlineto
            116 hlineto
            return
          </CharString>
          <CharString index="273">
            -218 vlineto
            -10 -3 -8 -4 -7 -6 rrcurveto
            898 311 rmoveto
            return
          </CharString>
          <CharString index="274">
            -142 67 -53 115 3 callgsubr
            vhcurveto
            -229 97 return
          </CharString>
          <CharString index="275">
            -86 -117 -73 35 -63 63 -34 hvcurveto
            -45 -27 -25 -46 -56 vvcurveto
            return
          </CharString>
          <CharString index="276">
            11 -40 hhcurveto
            -97 -69 -66 -85 -81 62 -53 76 17 19 4 6 return
          </CharString>
          <CharString index="277">
            211 callsubr
            -23 hhcurveto
            return
          </CharString>
          <CharString index="278">
            125 callsubr
            -53 return
          </CharString>
          <CharString index="279">
            -90 -94 vlineto
            -152 -81 -89 -117 return
          </CharString>
          <CharString index="280">
            -9 -36 hhcurveto
            -76 -54 52 78 return
          </CharString>
          <CharString index="281">
            40 53 vhcurveto
            -95 hlineto
            -114 return
          </CharString>
          <CharString index="282">
            57 110 hvcurveto
            -95 hlineto
            -53 return
          </CharString>
          <CharString index="283">
            -127 100 -69 116 return
          </CharString>
          <CharString index="284">
            23 22 29 29 -23 23 return
          </CharString>
          <CharString index="285">
            346 rmoveto
            -68 -29 -28 return
          </CharString>
          <CharString index="286">
            72 57 26 42 29 70 callgsubr
            80 return
          </CharString>
          <CharString index="287">
            28 rmoveto
            -29 -7 -24 -12 -19 vhcurveto
            -141 121 rlineto
            1 return
          </CharString>
          <CharString index="288">
            vvcurveto
            -105 88 -62 100 55 44 19 35 30 vhcurveto
            -120 93 return
          </CharString>
          <CharString index="289">
            66 callgsubr
            endchar
          </CharString>
          <CharString index="290">
            30 202 callsubr
            endchar
          </CharString>
          <CharString index="291">
            vvcurveto
            45 27 30 44 1 vhcurveto
            26 30 -10 -10 18 hvcurveto
            return
          </CharString>
          <CharString index="292">
            183 rlineto
            -221 98 270 vlineto
            131 75 8 return
          </CharString>
          <CharString index="293">
            261 143 callsubr
            return
          </CharString>
          <CharString index="294">
            -27 24 39 40 29 34 51 68 38 -47 -71 -110 return
          </CharString>
          <CharString index="295">
            rmoveto
            86 hlineto
            131 234 rlineto
            -121 hlineto
            endchar
          </CharString>
          <CharString index="296">
            -137 97 301 vlineto
            61 40 return
          </CharString>
          <CharString index="297">
            126 callsubr
            70 vlineto
            78 return
          </CharString>
          <CharString index="298">
            -32 173 callsubr
            return
          </CharString>
          <CharString index="299">
            82 -37 45 -86 -27 -29 -7 -10 return
          </CharString>
          <CharString index="300">
            123 -168 rlineto
            return
          </CharString>
          <CharString index="301">
            -90 -79 -43 -95 return
          </CharString>
          <CharString index="302">
            111 hlineto
            endchar
          </CharString>
          <CharString index="303">
            -33 26 -26 33 34 27 26 33 33 -27 27 -34 return
          </CharString>
          <CharString index="304">
            30 -57 -70 14 hvcurveto
            -207 -120 rlineto
            -96 vlineto
            return
          </CharString>
          <CharString index="305">
            67 15 45 44 76 vvcurveto
            33 -12 33 -20 23 vhcurveto
            return
          </CharString>
          <CharString index="306">
            399 rmoveto
            -13 hlineto
            -67 -86 rlineto
            13 hlineto
            endchar
          </CharString>
          <CharString index="307">
            29 24 -9 -8 17 vhcurveto
            return
          </CharString>
          <CharString index="308">
            85 vlineto
            4 -17 -25 3 return
          </CharString>
          <CharString index="309">
            vvcurveto
            32 23 8 28 vhcurveto
            return
          </CharString>
          <CharString index="310">
            112 80 vlineto
            endchar
          </CharString>
          <CharString index="311">
            hvcurveto
            -96 vlineto
            -22 44 68 -12 55 hhcurveto
            145 return
          </CharString>
          <CharString index="312">
            -80 381 106 callgsubr
            return
          </CharString>
          <CharString index="313">
            -25 34 33 27 25 34 33 -27 27 -33 hvcurveto
            return
          </CharString>
          <CharString index="314">
            hvcurveto
            294 347 rmoveto
            169 112 80 return
          </CharString>
          <CharString index="315">
            -62 -8 -24 -63 vhcurveto
            -67 -78 hlineto
            53 -150 return
          </CharString>
          <CharString index="316">
            -93 3 -37 14 42 vvcurveto
            42 37 14 37 vhcurveto
            return
          </CharString>
          <CharString index="317">
            hvcurveto
            -122 96 570 120 vlineto
            endchar
          </CharString>
          <CharString index="318">
            vhcurveto
            201 callsubr
            return
          </CharString>
          <CharString index="319">
            65 34 82 78 66 -31 -74 return
          </CharString>
          <CharString index="320">
            hlineto
            131 callsubr
            return
          </CharString>
          <CharString index="321">
            18 46 25 26 -5 -9 26 vhcurveto
            -618 return
          </CharString>
          <CharString index="322">
            -35 26 -27 36 35 28 27 35 35 -28 return
          </CharString>
          <CharString index="323">
            80 rmoveto
            104 callsubr
            return
          </CharString>
          <CharString index="324">
            203 callgsubr
            19 -31 -38 -66 return
          </CharString>
          <CharString index="325">
            143 37 94 64 112 vvcurveto
            endchar
          </CharString>
        <CharString name=".notdef">
          202 171 hmoveto
          410 701 -410 hlineto
          66 -61 rmoveto
          279 -579 -279 hlineto
          endchar
        </CharString>
        <CharString name="A">
          109 222 251 -93 callsubr
        </CharString>
        <CharString name="AE">
          346 266 251 rmoveto
          19 34 84 149 58 109 32 65 rlinecurve
          -357 vlineto
          100 -165 rmoveto
          208 249 86 -249 208 281 86 -455 vlineto
          -366 -674 rlineto
          108 hlineto
          91 165 rlineto
          241 -165 386 86 hlineto
          endchar
        </CharString>
        <CharString name="Aacute">
          109 502 887 19 callgsubr
          -160 -474 -93 callsubr
        </CharString>
        <CharString name="Abreve">
          109 426 887 25 callgsubr
          -282 -636 -93 callsubr
        </CharString>
        <CharString name="Acircumflex">
          109 332 827 10 callsubr
          -28 -474 -93 callsubr
        </CharString>
        <CharString name="Adieresis">
          109 445 747 -62 callgsubr
          -3 -496 -93 callsubr
        </CharString>
        <CharString name="Agrave">
          109 369 725 57 callsubr
          -63 -474 -93 callsubr
        </CharString>
        <CharString name="Amacron">
          109 486 841 145 callsubr
          -264 -522 -93 callsubr
        </CharString>
        <CharString name="Aogonek">
          105 219 251 rmoveto
          11 34 rlineto
          88 265 10 46 0 vvcurveto
          0 11 -46 86 -265 vhcurveto
          11 -34 rlineto
          -39 423 rmoveto
          -136 hlineto
          -232 -674 rlineto
          109 hlineto
          53 165 rlineto
          273 hlineto
          50 -157 rlineto
          -45 -33 -39 -49 -61 116 callgsubr
          53 45 61 32 hvcurveto
          endchar
        </CharString>
        <CharString name="Aring">
          109 333 885 8 callsubr
          -111 -464 -93 callsubr
        </CharString>
        <CharString name="Atilde">
          109 453 868 -70 callsubr
          -287 -575 -93 callsubr
        </CharString>
        <CharString name="B">
          30 176 85 rmoveto
          213 122 vlineto
          92 45 -42 -66 -69 -45 -36 -82 hvcurveto
          -132 504 rmoveto
          110 hlineto
          92 39 -43 -54 -60 -42 -50 -106 hvcurveto
          -93 hlineto
          -103 292 rmoveto
          -674 259 vlineto
          135 73 77 104 99 -64 50 -66 12 hvcurveto
          65 16 47 60 76 vvcurveto
          107 -85 73 -143 vhcurveto
          endchar
        </CharString>
        <CharString name="C">
          54 560 646 -53 callgsubr
          endchar
        </CharString>
        <CharString name="CR">
          -551 endchar
        </CharString>
        <CharString name="Cacute">
          54 560 646 -53 callgsubr
          -237 180 -38 callsubr
          endchar
        </CharString>
        <CharString name="Ccaron">
          54 560 646 -53 callgsubr
          -142 180 -80 callgsubr
          endchar
        </CharString>
        <CharString name="Ccedilla">
          54 328 -51 rmoveto
          14 -21 11 -21 -27 vvcurveto
          -41 -28 -25 -54 -3 vhcurveto
          -68 vlineto
          108 2 51 62 70 vvcurveto
          24 -6 31 -12 17 vhcurveto
          148 697 -53 callgsubr
          endchar
        </CharString>
        <CharString name="D">
          116 178 87 46 callsubr
        </CharString>
        <CharString name="Dcaron">
          116 355 725 -80 callgsubr
          -87 -638 46 callsubr
        </CharString>
        <CharString name="Dcroat">
          21 callsubr
        </CharString>
        <CharString name="E">
          -37 176 86 -48 callsubr
        </CharString>
        <CharString name="Eacute">
          -37 442 887 19 callgsubr
          -146 -639 -48 callsubr
        </CharString>
        <CharString name="Ecaron">
          -37 319 725 -80 callgsubr
          -53 -639 -48 callsubr
        </CharString>
        <CharString name="Ecircumflex">
          -37 272 827 10 callsubr
          -14 -639 -48 callsubr
        </CharString>
        <CharString name="Edieresis">
          -37 379 746 -62 callgsubr
          17 -660 -48 callsubr
        </CharString>
        <CharString name="Edotaccent">
          -37 277 748 rmoveto
          35 25 26 34 34 -25 26 -35 -35 -26 -26 -34 -34 26 -26 35 hvcurveto
          -101 -662 -48 callsubr
        </CharString>
        <CharString name="Egrave">
          -37 327 725 57 callsubr
          -67 -639 -48 callsubr
        </CharString>
        <CharString name="Emacron">
          -37 418 842 145 callsubr
          -242 -688 -48 callsubr
        </CharString>
        <CharString name="Eogonek">
          -37 462 hmoveto
          86 -286 208 249 86 -249 208 281 86 -384 -674 208 vlineto
          -42 -33 -36 -46 -56 -7 callgsubr
          54 45 60 32 hvcurveto
          endchar
        </CharString>
        <CharString name="Eth">
          21 callsubr
        </CharString>
        <CharString name="Euro">
          49 560 633 rmoveto
          19 -35 -42 9 -56 hhcurveto
          -131 -109 -80 -142 -39 hvcurveto
          -100 -67 88 hlineto
          -1 -16 -1 -16 -17 vvcurveto
          -14 1 -14 1 -13 vhcurveto
          -88 -67 99 hlineto
          -137 36 106 -86 136 hhcurveto
          63 37 9 18 35 hvcurveto
          98 vlineto
          -21 -32 -42 -12 -50 hhcurveto
          -82 -68 46 85 -31 hvcurveto
          196 67 -211 hlineto
          -1 13 -1 13 14 vvcurveto
          18 1 16 2 16 vhcurveto
          210 67 -194 hlineto
          83 31 67 45 86 hhcurveto
          49 39 -11 -20 31 hvcurveto
          endchar
        </CharString>
        <CharString name="F">
          -57 455 588 rmoveto
          86 -382 -674 103 281 245 86 -245 221 vlineto
          endchar
        </CharString>
        <CharString name="G">
          130 615 385 -44 callgsubr
        </CharString>
        <CharString name="Gbreve">
          130 467 887 25 callgsubr
          70 -502 -44 callgsubr
        </CharString>
        <CharString name="H">
          105 479 674 rmoveto
          -290 -303 290 -103 -674 103 295 303 -295 103 674 vlineto
          endchar
        </CharString>
        <CharString name="I">
          85 callgsubr
          endchar
        </CharString>
        <CharString name="Iacute">
          85 callgsubr
          13 51 -38 callsubr
          endchar
        </CharString>
        <CharString name="Icircumflex">
          -287 88 887 -10 callsubr
          -97 -887 rmoveto
          102 674 -102 hlineto
          endchar
        </CharString>
        <CharString name="Idieresis">
          85 callgsubr
          -117 133 -63 callsubr
          endchar
        </CharString>
        <CharString name="Idotaccent">
          85 callgsubr
          -9 134 39 callsubr
        </CharString>
        <CharString name="Igrave">
          85 callgsubr
          -7 213 45 callgsubr
        </CharString>
        <CharString name="Imacron">
          85 callgsubr
          203 98 136 callgsubr
          endchar
        </CharString>
        <CharString name="Iogonek">
          -287 183 674 rmoveto
          -102 -663 hlineto
          -49 -33 -45 -50 -63 -7 callgsubr
          54 45 60 32 hvcurveto
          endchar
        </CharString>
        <CharString name="J">
          -183 30 21 rmoveto
          -14 25 42 -7 32 hhcurveto
          97 71 52 130 hvcurveto
          492 -103 -496 vlineto
          -60 -29 -27 -53 -30 -29 11 14 -23 vhcurveto
          endchar
        </CharString>
        <CharString name="K">
          48 73 hmoveto
          103 674 -103 hlineto
          239 -340 122 callsubr
        </CharString>
        <CharString name="L">
          -71 176 91 139 callgsubr
        </CharString>
        <CharString name="Lacute">
          -71 460 887 19 callgsubr
          -164 -51 rmoveto
          -103 -674 379 91 -276 hlineto
          endchar
        </CharString>
        <CharString name="Lcaron">
          -71 447 701 rmoveto
          -109 hlineto
          -81 -198 rlineto
          77 hlineto
          -158 -412 139 callgsubr
        </CharString>
        <CharString name="Lslash">
          -33 207 91 rmoveto
          208 vlineto
          154 99 rlineto
          90 vlineto
          -154 -99 rlineto
          285 -102 -351 vlineto
          -71 -46 rlineto
          -90 vlineto
          71 46 rlineto
          -233 378 91 vlineto
          endchar
        </CharString>
        <CharString name="M">
          317 64 hmoveto
          102 hlineto
          20 264 rlineto
          9 125 7 115 26 vvcurveto
          0 36 -110 55 -156 vhcurveto
          91 -251 rlineto
          81 hlineto
          94 251 rlineto
          53 143 45 127 0 vvcurveto
          0 8 -127 13 -143 vhcurveto
          24 -264 rlineto
          102 hlineto
          -62 674 rlineto
          -122 hlineto
          -94 -246 rlineto
          -55 -146 -46 -136 0 vvcurveto
          0 -44 140 -53 142 vhcurveto
          -90 246 rlineto
          -122 hlineto
          endchar
        </CharString>
        <CharString name="N">
          129 73 hmoveto
          37 callsubr
        </CharString>
        <CharString name="NULL">
          -551 endchar
        </CharString>
        <CharString name="Nacute">
          129 319 725 -38 callsubr
          -341 -887 36 callsubr
        </CharString>
        <CharString name="Ncaron">
          129 73 hmoveto
          -67 callgsubr
          325 51 -80 callgsubr
          endchar
        </CharString>
        <CharString name="Ntilde">
          129 73 hmoveto
          -67 callgsubr
          396 194 -70 callsubr
          endchar
        </CharString>
        <CharString name="O">
          14 callgsubr
          endchar
        </CharString>
        <CharString name="OE">
          437 351 88 rmoveto
          -122 -75 96 156 155 71 96 125 128 70 -96 -155 -156 -70 -96 -127 hvcurveto
          295 -2 rmoveto
          208 254 86 -254 208 286 86 -384 -66 vlineto
          50 -49 -68 29 -81 hhcurveto
          -189 -115 -138 -209 -210 117 -138 188 80 67 29 51 50 hvcurveto
          -72 389 86 vlineto
          endchar
        </CharString>
        <CharString name="Oacute">
          160 320 725 -38 callsubr
          -369 -547 -91 callsubr
          endchar
        </CharString>
        <CharString name="Ocircumflex">
          160 154 340 rmoveto
          155 76 96 125 128 74 -96 -155 -156 -74 -96 -127 -122 -80 96 156 vhcurveto
          -108 hmoveto
          -210 122 -138 188 190 119 138 210 209 -116 138 -194 -189 -120 -138 -209 vhcurveto
          271 547 -10 callsubr
          endchar
        </CharString>
        <CharString name="Odieresis">
          160 190 807 -63 callsubr
          -365 -467 -91 callsubr
          endchar
        </CharString>
        <CharString name="Ograve">
          14 callgsubr
          158 547 45 callgsubr
        </CharString>
        <CharString name="Ohungarumlaut">
          160 413 725 12 callsubr
          -296 -547 -91 callsubr
          endchar
        </CharString>
        <CharString name="Omacron">
          160 508 772 136 callgsubr
          -158 -432 -91 callsubr
          endchar
        </CharString>
        <CharString name="Oslash">
          135 520 497 rmoveto
          22 -41 12 -53 -63 vvcurveto
          -158 -74 -98 -129 -44 -38 12 22 -31 vhcurveto
          -56 64 rmoveto
          -23 41 -13 53 64 vvcurveto
          157 77 98 127 45 39 -11 -22 30 vhcurveto
          197 124 rmoveto
          -104 hlineto
          -35 -46 rlineto
          30 -47 -58 17 -67 hhcurveto
          -190 -120 -138 -209 -100 28 -84 49 -60 hvcurveto
          -77 -104 rlineto
          104 hlineto
          36 48 rlineto
          -31 47 58 -17 66 hhcurveto
          190 119 138 210 100 -27 83 -48 60 hvcurveto
          endchar
        </CharString>
        <CharString name="Otilde">
          14 callgsubr
          324 529 -70 callsubr
          endchar
        </CharString>
        <CharString name="P">
          -1 176 324 rmoveto
          265 86 vlineto
          101 51 -53 -81 -75 -49 -56 -101 hvcurveto
          -191 350 rmoveto
          -674 103 239 96 vlineto
          145 101 87 129 126 -95 93 -157 hvcurveto
          endchar
        </CharString>
        <CharString name="Q">
          168 154 340 rmoveto
          155 76 96 125 128 74 -96 -155 -156 -74 -96 -127 -122 -80 96 156 vhcurveto
          545 -439 rmoveto
          -202 121 rlineto
          106 52 62 114 152 vvcurveto
          209 -116 138 -194 -189 -120 -138 -209 -210 122 -138 188 11 10 0 1 11 vhcurveto
          197 -137 rlineto
          endchar
        </CharString>
        <CharString name="R">
          17 176 588 -15 callsubr
        </CharString>
        <CharString name="Racute">
          17 440 887 19 callgsubr
          -144 -137 -15 callsubr
        </CharString>
        <CharString name="Rcaron">
          17 335 725 -80 callgsubr
          -69 -137 -15 callsubr
        </CharString>
        <CharString name="S">
          -30 437 647 -84 callgsubr
          endchar
        </CharString>
        <CharString name="Sacute">
          -30 234 725 -38 callsubr
          108 -240 -84 callgsubr
          endchar
        </CharString>
        <CharString name="Scaron">
          -30 437 647 -84 callgsubr
          -128 180 -80 callgsubr
          endchar
        </CharString>
        <CharString name="T">
          -51 478 674 103 callsubr
        </CharString>
        <CharString name="Tcaron">
          -51 296 725 -80 callgsubr
          272 -51 103 callsubr
        </CharString>
        <CharString name="Thorn">
          -7 176 205 rmoveto
          264 83 vlineto
          108 42 -61 -75 -71 -44 -57 -100 hvcurveto
          -89 349 rmoveto
          120 -103 -674 103 120 91 vlineto
          150 96 87 128 127 -90 92 -162 hvcurveto
          endchar
        </CharString>
        <CharString name="U">
          101 478 256 11 callsubr
        </CharString>
        <CharString name="Uacute">
          101 297 725 -38 callsubr
          86 -631 11 callsubr
        </CharString>
        <CharString name="Ucircumflex">
          101 478 256 -75 callsubr
          -196 213 -10 callsubr
          endchar
        </CharString>
        <CharString name="Udieresis">
          101 157 807 -63 callsubr
          100 -551 11 callsubr
        </CharString>
        <CharString name="Ugrave">
          101 478 256 -75 callsubr
          -201 213 45 callgsubr
        </CharString>
        <CharString name="Uhungarumlaut">
          101 478 256 -75 callsubr
          -109 51 12 callsubr
          endchar
        </CharString>
        <CharString name="Umacron">
          101 478 256 -75 callsubr
          5 98 136 callgsubr
          endchar
        </CharString>
        <CharString name="Uogonek">
          101 478 674 rmoveto
          -418 vlineto
          -127 -65 -43 -88 -84 -67 43 122 vhcurveto
          423 -103 -424 vlineto
          -159 86 -87 136 -12 vhcurveto
          -35 -31 -26 -41 -48 -7 callgsubr
          53 44 60 32 hvcurveto
          96 33 58 83 136 vvcurveto
          416 vlineto
          endchar
        </CharString>
        <CharString name="Uring">
          101 214 829 68 callgsubr
          203 -575 11 callsubr
        </CharString>
        <CharString name="V">
          92 613 674 rmoveto
          -110 hlineto
          -87 -268 rlineto
          -64 -194 -32 -120 0 vvcurveto
          0 -31 120 -62 194 vhcurveto
          -86 268 rlineto
          -110 hlineto
          227 -674 rlineto
          122 hlineto
          endchar
        </CharString>
        <CharString name="W">
          396 432 664 rmoveto
          -69 -239 rlineto
          -43 -148 -45 -168 0 vvcurveto
          0 -42 189 -32 127 vhcurveto
          -63 249 rlineto
          -107 hlineto
          177 -674 rlineto
          124 hlineto
          62 213 rlineto
          61 206 23 95 0 vvcurveto
          0 25 -95 62 -206 vhcurveto
          64 -213 rlineto
          123 hlineto
          165 674 rlineto
          -104 hlineto
          -59 -250 rlineto
          -32 -135 -37 -182 0 vvcurveto
          0 -54 189 -37 128 vhcurveto
          -71 240 rlineto
          endchar
        </CharString>
        <CharString name="X">
          77 251 341 rmoveto
          -216 -341 rlineto
          123 hlineto
          17 31 119 190 17 32 160 -253 rcurveline
          121 hlineto
          -223 340 204 334 rlineto
          -123 hlineto
          -16 -29 -110 -184 -15 -29 -143 242 rcurveline
          -119 hlineto
          endchar
        </CharString>
        <CharString name="Y">
          57 585 674 6 callgsubr
        </CharString>
        <CharString name="Yacute">
          57 482 887 19 callgsubr
          223 -51 6 callgsubr
        </CharString>
        <CharString name="Ydieresis">
          57 417 746 -62 callgsubr
          388 -72 6 callgsubr
        </CharString>
        <CharString name="Z">
          33 516 674 18 callgsubr
          endchar
        </CharString>
        <CharString name="Zacute">
          33 266 725 -38 callsubr
          155 -213 18 callgsubr
          endchar
        </CharString>
        <CharString name="Zcaron">
          33 516 674 18 callgsubr
          -177 130 -80 callgsubr
          endchar
        </CharString>
        <CharString name="Zdotaccent">
          33 516 674 18 callgsubr
          -274 213 39 callsubr
        </CharString>
        <CharString name="a">
          -52 336 226 -100 callgsubr
        </CharString>
        <CharString name="aacute">
          -52 419 720 19 callgsubr
          37 -332 -100 callgsubr
        </CharString>
        <CharString name="abreve">
          -52 347 719 25 callgsubr
          -89 -493 -100 callgsubr
        </CharString>
        <CharString name="acircumflex">
          -52 254 660 10 callsubr
          164 -332 -100 callgsubr
        </CharString>
        <CharString name="acute">
          -107 121 636 -38 callsubr
          endchar
        </CharString>
        <CharString name="adieresis">
          -52 366 578 -62 callgsubr
          190 -352 -100 callgsubr
        </CharString>
        <CharString name="ae">
          265 341 175 rmoveto
          -62 -45 -39 -58 -58 -29 29 44 50 43 28 80 vhcurveto
          67 hlineto
          340 65 rmoveto
          -244 hlineto
          98 12 58 44 62 hhcurveto
          68 42 -45 -79 2 hvcurveto
          89 -95 rmoveto
          3 17 3 30 15 vvcurveto
          156 -77 82 -131 -72 -62 -30 -53 -36 vhcurveto
          53 -22 -55 32 -83 hhcurveto
          -63 -56 -15 -20 -33 hvcurveto
          -93 vlineto
          25 38 56 19 53 hhcurveto
          81 27 -40 -65 hvcurveto
          -28 -82 vlineto
          -133 -78 -58 -97 -90 65 -58 103 97 59 47 54 23 hvcurveto
          -65 40 81 -36 82 hhcurveto
          47 59 11 21 37 hvcurveto
          88 vlineto
          -24 -34 -50 -14 -50 hhcurveto
          -85 -68 46 90 -15 hvcurveto
          endchar
        </CharString>
        <CharString name="agrave">
          -52 301 558 57 callsubr
          119 -332 -100 callgsubr
        </CharString>
        <CharString name="amacron">
          -52 403 673 145 callsubr
          -67 -379 -100 callgsubr
        </CharString>
        <CharString name="ampersand">
          164 276 290 rmoveto
          0 93 -88 90 -85 vhcurveto
          -26 -39 -48 -13 -51 hhcurveto
          -91 -68 40 63 50 36 31 77 29 hvcurveto
          49 313 rmoveto
          66 34 -42 -53 -48 -31 -40 -82 -40 hvcurveto
          -52 55 -28 38 43 vvcurveto
          57 41 30 52 vhcurveto
          388 -604 rmoveto
          -32 30 -46 43 -49 46 30 45 18 54 3 59 rrcurveto
          -92 hlineto
          -2 -37 -9 -31 -15 -27 -148 142 rcurveline
          114 53 40 61 74 vvcurveto
          104 -77 74 -122 -115 -80 -66 -107 -63 36 -51 50 -52 vhcurveto
          -105 -37 -50 -55 -81 vvcurveto
          -105 101 -81 160 83 68 23 40 52 vhcurveto
          59 -55 rlineto
          endchar
        </CharString>
        <CharString name="aogonek">
          -54 336 225 rmoveto
          -60 vlineto
          -50 -41 -41 -62 -58 -29 29 44 50 43 28 80 vhcurveto
          167 97 rmoveto
          126 -61 67 -138 -62 -61 -15 -20 -33 vhcurveto
          -93 vlineto
          25 38 56 19 53 hhcurveto
          81 27 -40 -65 hvcurveto
          -28 -82 vlineto
          -133 -78 -58 -97 -87 62 -60 97 66 45 30 37 26 hvcurveto
          -48 vlineto
          -52 -33 -48 -52 -65 116 callgsubr
          54 45 60 32 hvcurveto
          endchar
        </CharString>
        <CharString name="apostrophemod">
          151 callsubr
        </CharString>
        <CharString name="approxequal">
          58 499 306 106 callsubr
          -66 89 hhcurveto
          68 45 41 51 33 hvcurveto
          -67 251 106 callsubr
          -65 89 hhcurveto
          68 45 40 51 33 hvcurveto
          endchar
        </CharString>
        <CharString name="aring">
          -52 256 718 8 callsubr
          80 -322 -100 callgsubr
        </CharString>
        <CharString name="asciicircum">
          -81 428 332 rmoveto
          -142 262 rlineto
          -100 hlineto
          -145 -262 rlineto
          96 hlineto
          99 190 97 -190 rlineto
          endchar
        </CharString>
        <CharString name="asciitilde">
          64 510 341 rmoveto
          -35 -24 -28 -24 -43 -68 -47 66 -106 hhcurveto
          -63 -57 -42 -57 -40 hvcurveto
          66 -56 rlineto
          46 34 34 20 44 66 57 -67 94 hhcurveto
          71 47 44 52 34 hvcurveto
          endchar
        </CharString>
        <CharString name="asterisk">
          -114 276 471 rmoveto
          11 14 1 5 15 hvcurveto
          92 30 -25 76 -92 -29 -18 -6 -13 -8 -10 -8 rlinecurve
          5 12 3 15 18 vvcurveto
          97 -80 -97 vlineto
          -19 4 -15 5 -13 vhcurveto
          -10 9 -14 8 -17 6 -93 30 rcurveline
          -24 -76 92 -31 rlineto
          -5 15 13 -1 12 hhcurveto
          6 hlineto
          -12 -8 -11 -10 -10 -14 -58 -78 rcurveline
          65 -47 58 78 10 14 7 13 3 13 rlinecurve
          4 -12 6 -14 10 -14 57 -78 rcurveline
          64 47 -56 79 -11 15 -11 10 -11 7 rlinecurve
          endchar
        </CharString>
        <CharString name="at">
          375 442 89 rmoveto
          -53 -41 43 68 85 49 62 66 59 33 -37 -66 10 hvcurveto
          -1 -18 -1 -17 -1 -16 rrcurveto
          -68 -20 -51 -36 -49 hhcurveto
          173 -144 rmoveto
          -32 -60 -65 -12 -59 hhcurveto
          -150 -136 99 196 197 156 155 195 167 135 -95 -192 -102 -42 -66 -54 -44 -18 34 69 21 2 35 5 64 hvcurveto
          10 103 rlineto
          -80 hlineto
          -1 -22 -2 -21 -1 -20 rrcurveto
          44 -25 -40 23 -54 hhcurveto
          -109 -88 -91 -127 -105 60 -87 104 65 54 35 60 30 hvcurveto
          -46 14 35 -47 79 hhcurveto
          91 94 90 162 226 -178 137 -206 -243 -202 -184 -249 -211 137 -168 239 54 71 9 27 56 hvcurveto
          endchar
        </CharString>
        <CharString name="atilde">
          -52 373 701 -70 callsubr
          -93 -433 -100 callgsubr
        </CharString>
        <CharString name="b">
          31 308 79 rmoveto
          -70 -68 49 129 128 78 43 57 74 61 -59 -120 -102 -58 -68 -74 hvcurveto
          -138 628 rmoveto
          -99 -707 99 77 hlineto
          -52 33 51 -32 70 hhcurveto
          141 76 123 135 161 -92 102 -126 -65 -54 -31 -53 -34 hvcurveto
          endchar
        </CharString>
        <CharString name="backslash">
          -131 65 707 rmoveto
          -102 hlineto
          364 -810 rlineto
          101 hlineto
          endchar
        </CharString>
        <CharString name="bar">
          -308 76 -194 rmoveto
          91 889 -91 hlineto
          endchar
        </CharString>
        <CharString name="braceleft">
          -203 46 212 rmoveto
          5 11 0 -1 9 hvcurveto
          61 -9 26 -49 -54 -43 -18 -43 -49 vvcurveto
          -96 62 -62 76 17 18 3 6 18 vhcurveto
          94 vlineto
          -6 -11 -12 -3 -10 hhcurveto
          -38 -21 30 39 hvcurveto
          46 18 45 54 vvcurveto
          75 -45 60 -75 11 vhcurveto
          75 11 45 59 75 54 -18 45 47 vvcurveto
          38 21 30 38 10 12 -3 -6 11 vhcurveto
          94 vlineto
          6 -18 -18 3 -17 hhcurveto
          -76 -62 -62 -96 hvcurveto
          -49 18 -43 -43 vvcurveto
          -54 -29 -51 -58 -6 vhcurveto
          -1 -11 -9 0 -5 hhcurveto
          endchar
        </CharString>
        <CharString name="braceright">
          -203 17 610 rmoveto
          6 10 12 3 10 hhcurveto
          38 22 -30 -38 hvcurveto
          -47 -18 -45 -54 vvcurveto
          -75 45 -59 74 -11 vhcurveto
          -74 -11 -45 -60 -75 -54 18 -45 -46 vvcurveto
          -39 -22 -30 -38 -10 -12 3 6 -10 vhcurveto
          -94 vlineto
          -6 18 17 -3 17 hhcurveto
          77 61 62 96 hvcurveto
          49 -18 43 43 vvcurveto
          54 27 49 61 9 vhcurveto
          1 8 12 0 5 hhcurveto
          96 vlineto
          -5 -10 0 1 -10 hvcurveto
          -59 6 -29 51 54 43 18 43 49 vvcurveto
          96 -61 62 -77 -17 -17 -3 -6 -18 vhcurveto
          endchar
        </CharString>
        <CharString name="bracketleft">
          -226 319 620 rmoveto
          87 -246 -893 246 87 -150 719 vlineto
          endchar
        </CharString>
        <CharString name="bracketright">
          -226 252 707 rmoveto
          -245 -87 150 -719 -150 -87 245 hlineto
          endchar
        </CharString>
        <CharString name="breve">
          -107 48 798 rmoveto
          -104 61 -61 113 113 61 61 104 vhcurveto
          -78 hlineto
          -56 -30 -42 -66 -66 -30 42 56 vhcurveto
          endchar
        </CharString>
        <CharString name="brokenbar">
          -308 167 367 rmoveto
          333 -91 -333 vlineto
          91 -527 rmoveto
          333 -91 -333 vlineto
          endchar
        </CharString>
        <CharString name="bullet">
          -109 88 356 rmoveto
          -75 56 -58 77 74 58 58 75 75 -58 58 -75 -76 -56 -58 -75 vhcurveto
          endchar
        </CharString>
        <CharString name="c">
          -80 142 251 rmoveto
          118 callsubr
          90 vlineto
          -29 callsubr
          endchar
        </CharString>
        <CharString name="cacute">
          -80 253 557 -38 callsubr
          -206 -468 rmoveto
          118 callsubr
          90 vlineto
          -29 callsubr
          endchar
        </CharString>
        <CharString name="caron">
          -107 267 636 -80 callgsubr
          endchar
        </CharString>
        <CharString name="ccaron">
          -80 427 488 rmoveto
          -29 callsubr
          118 callsubr
          -106 160 -80 callgsubr
          endchar
        </CharString>
        <CharString name="ccedilla">
          -80 142 251 rmoveto
          118 callsubr
          90 vlineto
          -29 callsubr
          206 -374 -8 callsubr
        </CharString>
        <CharString name="cedilla">
          -107 301 -123 -8 callsubr
        </CharString>
        <CharString name="cent">
          -91 420 488 rmoveto
          -27 13 -27 7 -25 3 rrcurveto
          106 -84 -108 vlineto
          -138 -22 -77 -111 -1 -124 rrcurveto
          -130 82 -106 134 -21 vhcurveto
          -106 84 105 vlineto
          27 4 27 7 25 12 rrcurveto
          88 vlineto
          -18 -31 -38 -10 -33 hhcurveto
          -112 -62 76 98 -2 hvcurveto
          102 1 69 74 106 hhcurveto
          34 36 -9 -18 32 hvcurveto
          endchar
        </CharString>
        <CharString name="circumflex">
          -107 177 798 -10 callsubr
          endchar
        </CharString>
        <CharString name="colon">
          -301 58 391 rmoveto
          156 callsubr
          -325 vmoveto
          156 callsubr
          endchar
        </CharString>
        <CharString name="comma">
          -306 -8 -124 188 callsubr
        </CharString>
        <CharString name="copyright">
          221 41 337 rmoveto
          -189 156 -157 189 189 156 157 189 189 -156 156 -189 -189 -156 -156 -189 vhcurveto
          75 -1 rmoveto
          151 119 120 152 150 119 -120 -151 -151 -119 -119 -150 -152 -119 119 151 vhcurveto
          189 -1 rmoveto
          69 48 43 61 24 32 -7 -15 23 vhcurveto
          73 vlineto
          16 -29 -33 5 -23 hhcurveto
          -118 -67 -86 -98 -101 73 -80 109 31 35 8 13 22 hvcurveto
          74 vlineto
          -15 -21 -30 -10 -29 hhcurveto
          -63 -44 47 64 -1 hvcurveto
          endchar
        </CharString>
        <CharString name="currency">
          0 56 310 rmoveto
          -46 12 -43 23 -33 vhcurveto
          -59 -58 61 -59 58 58 rlineto
          -22 34 42 -11 47 hhcurveto
          46 43 12 23 34 hvcurveto
          62 -60 60 59 -61 60 rlineto
          23 34 15 44 46 vvcurveto
          45 -14 42 -21 33 vhcurveto
          58 58 -60 59 -58 -57 rlineto
          21 -35 -41 13 -47 hhcurveto
          -47 -43 -13 -24 -35 hvcurveto
          -60 60 -61 -59 60 -60 rlineto
          -22 -34 -14 -43 -45 vvcurveto
          84 2 rmoveto
          77 56 60 80 80 56 -60 -77 -78 -56 -59 -80 -80 -56 60 77 vhcurveto
          endchar
        </CharString>
        <CharString name="d">
          29 50 callsubr
          138 628 rmoveto
          -277 vlineto
          41 callgsubr
          707 vlineto
          endchar
        </CharString>
        <CharString name="dagger">
          -17 495 509 rmoveto
          -186 165 -89 -165 -182 -83 182 -426 89 426 186 hlineto
          endchar
        </CharString>
        <CharString name="daggerdbl">
          -4 502 426 rmoveto
          83 -187 165 -89 -165 -181 -83 181 -170 -181 -84 181 -172 89 172 187 84 -187 170 vlineto
          endchar
        </CharString>
        <CharString name="danda">
          -169 176 hmoveto
          97 650 -97 hlineto
          endchar
        </CharString>
        <CharString name="dcaron">
          134 50 callsubr
          138 351 rmoveto
          41 callgsubr
          707 -99 vlineto
          234 hmoveto
          -81 -197 rlineto
          77 hlineto
          113 197 rlineto
          endchar
        </CharString>
        <CharString name="dcroat">
          29 50 callsubr
          304 564 rmoveto
          -67 64 -99 -64 -181 -63 181 -150 hlineto
          41 callgsubr
          580 67 vlineto
          endchar
        </CharString>
        <CharString name="degree">
          -171 30 520 rmoveto
          -91 68 -66 91 90 71 68 91 90 -69 67 -90 -91 -70 -69 -90 vhcurveto
          75 1 rmoveto
          48 36 39 48 48 38 -39 -48 -48 -36 -39 -48 -48 -38 39 48 vhcurveto
          endchar
        </CharString>
        <CharString name="dieresis">
          -107 51 719 -63 callsubr
          endchar
        </CharString>
        <CharString name="divide">
          13 221 518 rmoveto
          -32 27 -28 32 32 27 28 32 32 -27 27 -32 -32 -27 -27 -32 vhcurveto
          -168 -222 rmoveto
          457 88 -457 hlineto
          168 -222 rmoveto
          -32 27 -27 32 32 27 27 32 32 -27 28 -32 -32 -27 -28 -32 vhcurveto
          endchar
        </CharString>
        <CharString name="dollar">
          -44 426 647 rmoveto
          -30 15 -36 9 -35 5 rrcurveto
          109 -85 -107 vlineto
          -113 -11 -80 -67 -107 vvcurveto
          -107 78 -45 77 -35 vhcurveto
          80 -35 72 -24 -67 vvcurveto
          -61 -48 -35 -72 -65 -67 21 38 -51 vhcurveto
          -107 vlineto
          38 -22 50 -14 51 -5 rrcurveto
          -107 84 107 vlineto
          110 12 77 67 110 vvcurveto
          114 -87 44 -82 36 vhcurveto
          -71 31 -64 27 62 vvcurveto
          53 43 36 74 53 60 -17 -25 39 vhcurveto
          endchar
        </CharString>
        <CharString name="dotaccent">
          -107 161 720 39 callsubr
        </CharString>
        <CharString name="dotlessi">
          84 callsubr
          endchar
        </CharString>
        <CharString name="dottedcircle">
          109 139 517 rmoveto
          -26 18 -19 26 26 18 19 26 25 -18 19 -26 -26 -18 -19 -25 vhcurveto
          -82 -110 rmoveto
          -25 20 -19 26 24 20 19 25 25 -20 19 -24 -26 -20 -19 -25 vhcurveto
          -13 -126 rmoveto
          -25 19 -18 25 26 18 18 215 callgsubr
          52 -116 rmoveto
          -26 18 -18 26 25 19 18 26 25 -19 19 -25 -26 -18 -19 -25 vhcurveto
          101 -75 rmoveto
          -26 19 -20 26 25 19 20 26 24 -19 20 -25 -26 -19 -20 -24 vhcurveto
          127 -16 rmoveto
          -26 18 -18 26 26 19 18 26 26 -19 18 -26 -26 -18 -18 -26 vhcurveto
          121 53 rmoveto
          -26 19 -18 25 25 20 18 26 25 -20 19 -25 -25 -19 -19 -25 vhcurveto
          73 98 rmoveto
          -25 19 -19 26 24 19 19 25 26 -19 19 -24 -26 -19 -19 -26 vhcurveto
          10 134 rmoveto
          -26 18 -18 26 25 19 18 26 26 -19 18 -25 -26 -18 -18 -26 vhcurveto
          -50 118 rmoveto
          -25 19 -19 25 26 18 19 215 callgsubr
          -95 68 rmoveto
          -24 19 -20 26 25 18 20 24 26 -18 19 -25 -26 -19 -19 -26 vhcurveto
          -126 15 rmoveto
          -26 18 -18 26 26 18 18 26 26 -18 18 -26 -26 -18 -18 -26 vhcurveto
          endchar
        </CharString>
        <CharString name="doubledanda">
          57 176 hmoveto
          97 650 -97 hlineto
          226 -650 rmoveto
          97 650 -97 hlineto
          endchar
        </CharString>
        <CharString name="dvA">
          120 696 -16 callsubr
          -295 -80 -96 callsubr
          112 hlineto
          endchar
        </CharString>
        <CharString name="dvAA">
          390 965 -16 callsubr
          -564 -80 -96 callsubr
          173 -570 -24 callgsubr
        </CharString>
        <CharString name="dvAI">
          10 586 -16 callsubr
          -87 hlineto
          -103 158 rlineto
          63 -41 -48 27 -71 -12 callsubr
          -418 -41 callsubr
        </CharString>
        <CharString name="dvAU">
          391 858 -16 callsubr
          -108 171 rlineto
          -87 callsubr
          60 49 -26 -42 59 hvcurveto
          -329 -80 -96 callsubr
          174 152 callgsubr
        </CharString>
        <CharString name="dvAbbreviationsign">
          -97 59 308 rmoveto
          -93 75 -75 93 92 75 75 93 92 -75 75 -92 -93 171 callgsubr
          47 46 38 -38 -46 -47 -38 176 callgsubr
          endchar
        </CharString>
        <CharString name="dvAcandra">
          120 634 904 rmoveto
          -53 -32 -40 -65 -64 159 callgsubr
          108 103 89 57 110 vhcurveto
          -328 -334 rmoveto
          -96 callsubr
          112 80 -295 hlineto
          endchar
        </CharString>
        <CharString name="dvAnusvara">
          -551 -198 793 rmoveto
          97 callgsubr
          -35 -26 -28 -35 vhcurveto
          endchar
        </CharString>
        <CharString name="dvAnusvara.amI">
          -551 -56 871 rmoveto
          97 callgsubr
          -35 -26 -28 -35 vhcurveto
          endchar
        </CharString>
        <CharString name="dvAvagraha">
          -60 247 -3 rmoveto
          148 64 85 88 hvcurveto
          177 -322 76 95 vvcurveto
          32 24 13 30 vhcurveto
          238 87 -248 hlineto
          -93 -53 -49 -78 hvcurveto
          -172 325 -62 -121 vvcurveto
          -44 -34 -40 -78 -70 -86 31 39 -60 vhcurveto
          -102 vlineto
          -24 42 75 -31 98 hhcurveto
          endchar
        </CharString>
        <CharString name="dvB">
          -167 408 -16 callsubr
          -432 -80 432 hlineto
          -36 -390 -61 callsubr
          294 -97 rmoveto
          -14 -20 -15 -21 -18 -17 -205 190 rcurveline
          -97 callsubr
          115 79 62 81 49 hvcurveto
          endchar
        </CharString>
        <CharString name="dvBA">
          69 369 183 -33 callgsubr
          -669 -80 461 -268 hlineto
          29 callsubr
        </CharString>
        <CharString name="dvBH">
          -216 431 356 rmoveto
          -232 -63 callgsubr
          232 hlineto
          endchar
        </CharString>
        <CharString name="dvBHA">
          14 383 356 rmoveto
          -184 -63 callgsubr
          184 -277 162 callgsubr
          80 -207 hlineto
          endchar
        </CharString>
        <CharString name="dvBH_LA">
          523 1098 -16 callsubr
          -790 -80 582 72 callgsubr
          -80 -57 -45 -71 -25 hvcurveto
          -197 -63 callgsubr
          182 -13 hlineto
          34 callgsubr
          vhcurveto
          -97 callgsubr
        </CharString>
        <CharString name="dvBH_NA">
          21 390 -16 callsubr
          -248 -184 126 vlineto
          82 -37 45 -85 -28 -29 -7 -10 -18 vhcurveto
          -78 vlineto
          8 14 21 6 21 hhcurveto
          33 13 -20 -40 hvcurveto
          -117 vlineto
          -27 -6 -17 -22 13 callgsubr
          184 -82 hlineto
          -233 -149 rlineto
          -35 -22 -15 -24 -28 vvcurveto
          -51 52 -48 42 -21 vhcurveto
          59 37 rlineto
          -24 20 -24 28 26 vvcurveto
          15 9 13 15 10 vhcurveto
          154 98 rlineto
          -145 79 callgsubr
        </CharString>
        <CharString name="dvBH_R">
          -173 211 402 rmoveto
          126 vlineto
          -5 callsubr
          197 hlineto
          -341 -363 rlineto
          130 hlineto
          323 363 rlineto
          79 vlineto
          endchar
        </CharString>
        <CharString name="dvBH_RA">
          26 394 -16 callsubr
          1 -248 rlineto
          -184 126 hlineto
          -5 callsubr
          184 -60 hlineto
          -345 -303 113 callgsubr
          111 80 vlineto
          endchar
        </CharString>
        <CharString name="dvBH_R_YA">
          438 806 -104 callgsubr
          -469 80 rmoveto
          -80 196 vlineto
          -65 callsubr
          -32 -18 -28 -38 -22 vhcurveto
          -296 126 hlineto
          -5 callsubr
          197 hlineto
          -341 -363 rlineto
          130 hlineto
          248 278 rlineto
          -78 45 74 -41 84 hhcurveto
          179 callsubr
          vlineto
          endchar
        </CharString>
        <CharString name="dvBH_VA">
          363 939 -16 callsubr
          -631 -80 423 -65 callgsubr
          -94 -72 -51 -75 -27 hvcurveto
          -188 -63 callgsubr
          176 hlineto
          -121 4 94 -67 104 hhcurveto
          -58 callgsubr
        </CharString>
        <CharString name="dvBH_YA">
          412 609 155 callsubr
          -672 -80 192 60 callgsubr
          -63 callgsubr
          49 hlineto
          40 48 2 7 47 hvcurveto
          -110 37 85 -57 104 hhcurveto
          12 84 rmoveto
          -75 -53 41 65 -16 hvcurveto
          76 22 67 56 93 -45 callgsubr
          -13 21 vhcurveto
          170 -228 hlineto
          -88 -59 -51 -87 vhcurveto
          endchar
        </CharString>
        <CharString name="dvB_BA">
          462 762 183 rmoveto
          -17 -26 191 callsubr
          33 9 28 15 21 hvcurveto
          -190 -189 -61 callsubr
          869 281 rmoveto
          -1062 -80 854 22 callgsubr
          -132 -91 -89 -122 -14 1 -14 3 -13 hvcurveto
          -9 -12 -10 -12 -11 -10 -205 190 rcurveline
          -97 callsubr
          89 67 37 54 48 hvcurveto
          -57 40 67 -34 73 hhcurveto
          75 60 31 43 37 hvcurveto
          -153 -66 callgsubr
        </CharString>
        <CharString name="dvB_BHA">
          402 372 180 -61 callsubr
          602 281 rmoveto
          -294 -184 168 vlineto
          83 -35 43 -95 vhcurveto
          -481 -80 463 153 callsubr
          -157 vlineto
          -26 -6 -18 -23 -29 vvcurveto
          -11 2 -12 4 -13 vhcurveto
          -11 -16 -12 -15 -14 -13 -205 190 rcurveline
          -97 callsubr
          93 70 41 58 49 hvcurveto
          16 -35 157 callgsubr
        </CharString>
        <CharString name="dvB_BH_RA">
          395 372 180 -61 callsubr
          595 281 rmoveto
          -248 -184 122 vlineto
          83 -35 43 -94 vhcurveto
          -475 -80 456 hlineto
          42 10 -21 -40 hvcurveto
          -112 vlineto
          -26 -6 -17 -22 -29 vvcurveto
          -21 8 -24 11 -27 vhcurveto
          -13 -19 -14 -19 -17 -16 -205 190 rcurveline
          -97 callsubr
          99 73 46 65 49 hvcurveto
          1 -1 rlineto
          84 134 184 -61 hlineto
          -345 -302 113 callgsubr
          203 callsubr
        </CharString>
        <CharString name="dvB_DA">
          396 372 180 -61 callsubr
          685 32 rmoveto
          99 callsubr
          -996 -80 781 53 callsubr
          -14 1 -14 3 -13 hvcurveto
          -6 -7 -6 -6 -6 -6 -205 190 rcurveline
          -97 callsubr
          80 63 30 46 47 hvcurveto
          -53 36 61 -34 79 hhcurveto
          161 callsubr
          hvcurveto
          -77 callsubr
          endchar
        </CharString>
        <CharString name="dvB_DHA">
          475 372 180 -61 callsubr
          881 281 -17 callsubr
          -703 -80 534 38 callgsubr
          -71 -7 -54 -37 -9 -65 -10 -12 -10 -12 -11 -11 -205 190 rcurveline
          -97 callsubr
          80 63 30 46 47 hvcurveto
          -55 32 69 -34 91 hhcurveto
          85 69 37 48 33 hvcurveto
          -151 -20 callsubr
        </CharString>
        <CharString name="dvB_DH_VA">
          837 372 180 -61 callsubr
          1243 281 rmoveto
          -571 -80 363 -2 callgsubr
          -122 -83 -85 -112 -21 3 -20 5 -18 hvcurveto
          -49 -51 -60 -30 -78 -64 callgsubr
          -703 -80 534 38 callgsubr
          -71 -7 -54 -37 -9 -65 -10 -12 -10 -12 -11 -11 -205 190 rcurveline
          -97 callsubr
          80 63 30 46 47 hvcurveto
          -55 32 70 -34 94 hhcurveto
          101 79 38 49 57 hvcurveto
          -42 38 56 -22 59 hhcurveto
          69 52 55 callgsubr
        </CharString>
        <CharString name="dvB_JA">
          490 372 180 rmoveto
          -16 -29 -31 -7 -33 hhcurveto
          -77 -57 52 78 33 9 28 15 21 hvcurveto
          903 281 rmoveto
          -1096 -80 887 -121 -375 -50 callsubr
          183 -368 97 -55 callsubr
          hlineto
          endchar
        </CharString>
        <CharString name="dvB_JHA">
          582 652 322 rmoveto
          118 callgsubr
          32 15 52 vhcurveto
          168 178 callgsubr
          162 -248 vlineto
          -567 -171 rmoveto
          -10 -24 -26 -6 -31 hhcurveto
          -87 -69 54 85 32 8 28 16 21 hvcurveto
          988 295 rmoveto
          -1181 -80 715 -66 -78 hlineto
          -101 -75 -44 -92 -99 86 -24 103 -4 hvcurveto
          74 -4 35 -27 -45 vvcurveto
          -49 -34 -28 -51 -58 -55 39 53 -23 vhcurveto
          -82 hlineto
          -221 210 rlineto
          10 19 23 5 26 hhcurveto
          22 27 -4 -9 26 hvcurveto
          85 vlineto
          6 -25 -28 4 -29 hhcurveto
          -132 -91 -90 -122 -127 97 -90 139 -1 hvcurveto
          57 45 13 24 39 hvcurveto
          -143 95 104 vlineto
          -27 36 48 -16 53 hhcurveto
          104 69 65 91 30 -7 26 -13 21 hvcurveto
          138 -245 -24 callgsubr
        </CharString>
        <CharString name="dvB_J_YA">
          887 1255 342 rmoveto
          -88 -60 -51 -86 -77 -41 45 66 -29 vhcurveto
          76 23 70 49 58 callgsubr
          -883 -390 rmoveto
          -16 -29 -31 -7 -33 hhcurveto
          -77 -57 52 78 33 9 28 15 21 hvcurveto
          1293 281 rmoveto
          -1486 -80 1006 hlineto
          16 -18 14 -28 -36 vvcurveto
          -49 -37 -34 -57 -19 vhcurveto
          37 -35 -58 26 -92 hhcurveto
          -245 -50 callsubr
          51 hlineto
          203 -91 -249 254 hhcurveto
          72 56 26 42 30 39 callgsubr
        </CharString>
        <CharString name="dvB_JxA">
          490 554 -25 -104 callsubr
          -182 205 rmoveto
          -16 -29 -31 -7 -33 hhcurveto
          -77 -57 52 78 33 9 28 15 21 hvcurveto
          903 281 rmoveto
          -1096 -80 887 -121 -375 -50 callsubr
          183 -368 97 -55 callsubr
          hlineto
          endchar
        </CharString>
        <CharString name="dvB_LA">
          584 372 180 -61 callsubr
          990 281 rmoveto
          -1183 -80 975 109 callsubr
          -7 0 -7 1 -6 hvcurveto
          -9 -11 -8 -10 -10 -9 -205 190 rcurveline
          -97 callsubr
          79 62 29 45 47 hvcurveto
          -93 36 82 -60 114 -80 callsubr
        </CharString>
        <CharString name="dvB_L_YA">
          969 1350 -104 callgsubr
          -978 -390 -61 callsubr
          1388 281 rmoveto
          -1581 -80 1101 85 callsubr
          -26 -34 -54 -22 vhcurveto
          47 -26 -45 35 -66 hhcurveto
          -67 -52 -31 -61 -16 hvcurveto
          55 -13 -46 37 -77 93 callsubr
          -7 0 -7 1 -6 hvcurveto
          -9 -11 -8 -10 -10 -9 -205 190 rcurveline
          -97 callsubr
          79 62 29 45 47 hvcurveto
          -93 36 83 -60 113 hhcurveto
          13 17 1 3 14 hvcurveto
          79 vlineto
          -2 -11 -12 0 -9 hhcurveto
          -116 -52 80 101 89 41 41 50 50 27 190 callsubr
          30 36 48 38 23 -32 -38 13 vhcurveto
          -133 32 95 -72 110 -94 callgsubr
          vlineto
          endchar
        </CharString>
        <CharString name="dvB_NA">
          75 374 182 rmoveto
          -16 -25 191 callsubr
          32 8 28 16 22 hvcurveto
          475 281 rmoveto
          -674 -80 466 -268 hlineto
          -30 -10 -29 -17 -24 vhcurveto
          -198 185 rlineto
          -93 callgsubr
          -29 4 -28 hhcurveto
          -133 -90 -89 -122 -111 78 -78 97 -17 hvcurveto
          -44 -25 rlineto
          -42 -23 -15 -28 -29 vvcurveto
          -50 46 -45 39 -22 vhcurveto
          59 36 rlineto
          -19 19 -22 24 25 vvcurveto
          14 6 14 13 10 vhcurveto
          157 118 rlineto
          0 vlineto
          13 10 11 10 10 11 rrcurveto
          -152 97 -82 callgsubr
        </CharString>
        <CharString name="dvB_R">
          -176 399 -16 callsubr
          -423 -80 423 hlineto
          -25 -387 rmoveto
          -17 -26 -31 173 callsubr
          32 8 28 16 22 hvcurveto
          280 -88 rmoveto
          -12 -23 -14 -21 -14 -17 -198 184 rcurveline
          -93 callgsubr
          -29 4 -28 hhcurveto
          -133 -90 -89 -122 -113 83 -80 102 -10 hvcurveto
          -165 -151 rlineto
          133 hlineto
          300 276 rlineto
          endchar
        </CharString>
        <CharString name="dvB_RA">
          75 375 183 129 callsubr
          -675 -80 467 -270 hlineto
          78 callgsubr
          -133 -90 -89 -122 -113 83 -79 100 -11 hvcurveto
          -163 -151 rlineto
          133 hlineto
          235 218 rlineto
          -153 -66 callgsubr
        </CharString>
        <CharString name="dvB_SA">
          497 674 143 callsubr
          181 -231 vlineto
          -504 -162 rmoveto
          -13 -23 -30 -7 -35 hhcurveto
          -81 -61 50 80 33 9 28 15 21 hvcurveto
          917 281 rmoveto
          -1110 -80 626 -130 hlineto
          161 callgsubr
          -67 -49 hlineto
          -34 -8 -30 -16 -23 vhcurveto
          -204 189 rlineto
          -90 callsubr
          -127 100 -83 131 101 78 44 74 35 hvcurveto
          133 -197 -94 callsubr
          163 -259 -21 callgsubr
          hlineto
          endchar
        </CharString>
        <CharString name="dvB_SHA">
          548 419 -16 callsubr
          -443 -80 443 hlineto
          -45 -392 rmoveto
          -14 -25 -29 -7 -32 hhcurveto
          -83 -60 48 82 33 9 28 15 21 hvcurveto
          423 72 64 callsubr
          -102 -38 hlineto
          -31 -11 -28 -17 -22 vhcurveto
          -207 192 -8 callgsubr
          97 83 41 73 40 hvcurveto
          173 -193 43 callsubr
        </CharString>
        <CharString name="dvB_TA">
          426 372 180 -61 callsubr
          832 281 rmoveto
          -1025 -80 817 -112 -95 hlineto
          -169 -82 -90 -125 -5 hvcurveto
          -8 -10 -8 -10 -10 -9 -205 190 rcurveline
          -97 callsubr
          75 60 26 41 46 hvcurveto
          -87 27 72 -59 106 hhcurveto
          17 callsubr
        </CharString>
        <CharString name="dvB_VA">
          420 372 180 -61 callsubr
          827 281 rmoveto
          -1020 -80 812 15 callgsubr
          -17 2 -16 3 -15 hvcurveto
          -6 -8 -7 -8 -8 -7 -205 190 rcurveline
          -97 callsubr
          85 65 34 50 48 hvcurveto
          -48 38 60 -26 64 hhcurveto
          -58 callgsubr
        </CharString>
        <CharString name="dvB_YA">
          443 811 -104 callgsubr
          -439 -390 -61 callsubr
          849 281 rmoveto
          -1042 -80 562 hlineto
          -77 callgsubr
          6 -47 13 -41 18 -34 -9 -12 -9 -11 -11 -10 -205 190 rcurveline
          -97 callsubr
          96 72 44 62 49 hvcurveto
          -44 44 56 -22 62 -94 callgsubr
          vlineto
          endchar
        </CharString>
        <CharString name="dvC">
          -152 423 -16 callsubr
          -447 -80 447 hlineto
          62 -268 rmoveto
          -65 -28 -71 -62 -90 -44 callsubr
          124 90 76 74 29 vhcurveto
          endchar
        </CharString>
        <CharString name="dvCA">
          91 666 -16 callsubr
          -690 -80 482 111 callsubr
          -42 -22 -29 -39 -59 vvcurveto
          -98 77 -64 110 vhcurveto
          95 1 58 40 29 44 rrcurveto
          -182 97 -82 callgsubr
        </CharString>
        <CharString name="dvCH">
          82 657 195 callgsubr
          -681 -80 140 vlineto
          91 callgsubr
          107 -67 70 -118 127 callsubr
          vhcurveto
          -78 vlineto
          3 10 18 3 17 hhcurveto
          66 36 -40 -63 -110 -82 -63 -113 -79 -62 34 58 49 34 31 68 hvcurveto
          37 82 -31 hlineto
          -52 -41 33 52 39 19 33 37 24 hvcurveto
          endchar
        </CharString>
        <CharString name="dvCHA">
          88 424 489 -76 callsubr
          -687 -80 140 vlineto
          91 callgsubr
          68 -27 52 -49 30 vhcurveto
          107 vlineto
          endchar
        </CharString>
        <CharString name="dvCH_R">
          93 668 195 callgsubr
          -692 -80 145 vlineto
          -25 callsubr
          107 -67 70 -118 127 callsubr
          vhcurveto
          1 callgsubr
          endchar
        </CharString>
        <CharString name="dvCH_RA">
          93 429 489 rmoveto
          1 -6 -7 0 -6 hhcurveto
          127 callsubr
          hvcurveto
          1 callgsubr
          197 hlineto
          239 hmoveto
          80 -692 -80 145 vlineto
          -25 callsubr
          68 -27 52 -49 30 vhcurveto
          107 vlineto
          endchar
        </CharString>
        <CharString name="dvCH_R_YA">
          668 1036 282 rmoveto
          -83 -50 -60 -87 -66 -47 34 57 -14 vhcurveto
          71 23 59 52 67 vvcurveto
          72 -50 54 -133 -50 -87 -13 -25 -59 vhcurveto
          20 -29 -38 10 -46 hhcurveto
          127 callsubr
          hvcurveto
          1 callgsubr
          804 hlineto
          216 80 rmoveto
          -1276 -80 145 hlineto
          -25 callsubr
          31 -6 29 -11 24 vhcurveto
          15 49 54 10 40 140 callgsubr
          71 52 30 38 26 210 callsubr
        </CharString>
        <CharString name="dvCH_YA">
          665 1033 115 callgsubr
          -51 -87 -14 -24 -60 vhcurveto
          19 -30 -38 11 -46 hhcurveto
          127 callsubr
          hvcurveto
          -78 vlineto
          3 10 18 3 17 hhcurveto
          66 36 -40 -63 -110 -82 -63 -113 -79 -62 34 58 49 34 31 68 hvcurveto
          37 82 -31 hlineto
          -52 -41 33 52 39 19 33 37 24 hvcurveto
          806 hlineto
          217 80 rmoveto
          -1274 -80 140 hlineto
          91 callgsubr
          31 -6 28 -11 24 vhcurveto
          16 50 55 10 41 hhcurveto
          48 37 -16 -32 -53 -67 -27 -80 -15 hvcurveto
          -156 19 95 -69 114 hhcurveto
          71 52 30 38 25 hvcurveto
          -122 96 570 121 vlineto
          endchar
        </CharString>
        <CharString name="dvC_CA">
          459 1035 -16 callsubr
          -1059 -80 851 -244 hlineto
          -66 -54 -85 -111 135 callgsubr
          vhcurveto
          81 -317 -81 105 vlineto
          -42 -22 -30 -39 -59 vvcurveto
          -3 vlineto
          -46 -36 -57 -35 -68 -44 callsubr
          82 67 33 44 45 vhcurveto
          -48 31 59 -29 74 hhcurveto
          94 1 59 40 29 44 rrcurveto
          -182 97 -82 callgsubr
        </CharString>
        <CharString name="dvC_CHA">
          485 821 489 -76 callsubr
          -1084 -80 537 vlineto
          -1 callsubr
          -60 -6 -44 -32 -13 -52 rrcurveto
          -45 -33 -60 -41 -72 -44 callsubr
          75 63 28 38 44 vhcurveto
          -70 32 88 -38 105 hhcurveto
          168 125 105 153 68 -27 52 -49 30 hvcurveto
          107 vlineto
          endchar
        </CharString>
        <CharString name="dvC_CH_VA">
          499 846 489 rmoveto
          1 -6 -7 0 -6 hhcurveto
          127 callsubr
          hvcurveto
          -78 vlineto
          3 10 19 3 16 hhcurveto
          66 36 -38 -63 -99 -86 -65 -115 -98 -68 35 62 42 38 30 64 hvcurveto
          38 82 -32 hlineto
          -52 -41 27 53 39 18 31 37 23 hvcurveto
          229 hlineto
          -5 -577 rmoveto
          -73 -56 -67 -84 -70 -48 38 69 69 50 36 70 vhcurveto
          0 9 vlineto
          46 44 8 16 39 hvcurveto
          233 481 rmoveto
          80 -1098 -80 531 vlineto
          -28 -25 -13 -33 -35 vvcurveto
          -71 50 -43 56 -6 vhcurveto
          -65 -6 -51 -40 -5 -63 rrcurveto
          -39 -34 -56 -34 -65 -44 callsubr
          76 63 29 39 44 vhcurveto
          19 -30 30 -23 38 -17 rrcurveto
          -44 -31 -27 -47 -56 vvcurveto
          -121 96 -65 105 72 52 29 43 30 vhcurveto
          -156 95 456 vlineto
          47 43 29 58 67 vvcurveto
          67 -27 52 -49 29 vhcurveto
          107 vlineto
          endchar
        </CharString>
        <CharString name="dvC_MA">
          416 785 -22 callsubr
          206 80 rmoveto
          -1015 -80 519 -220 hlineto
          -27 -7 -17 -19 -28 vvcurveto
          -11 3 -13 4 -15 vhcurveto
          -46 -35 -58 -36 -69 -44 callsubr
          87 71 38 48 44 vhcurveto
          18 -41 rlineto
          72 callsubr
        </CharString>
        <CharString name="dvC_NA">
          96 672 -16 callsubr
          -696 -80 488 -244 hlineto
          -66 -54 -85 -111 135 callgsubr
          vhcurveto
          81 -347 -81 135 vlineto
          -43 -22 -29 -39 -59 vvcurveto
          -83 56 -59 85 -16 vhcurveto
          -68 -38 rlineto
          -34 -20 -15 -24 -30 vvcurveto
          -50 47 -47 42 -25 vhcurveto
          59 39 rlineto
          -22 22 -25 32 26 vvcurveto
          13 6 10 13 8 vhcurveto
          168 111 26 15 19 19 13 20 rlinecurve
          -182 -66 callgsubr
        </CharString>
        <CharString name="dvC_R">
          -134 442 -16 callsubr
          -466 -80 466 hlineto
          51 -257 rmoveto
          -74 -43 -72 -64 -82 hhcurveto
          135 callgsubr
          hvcurveto
          81 -347 -81 135 vlineto
          -42 -22 -30 -39 -59 vvcurveto
          -91 70 -60 89 -7 vhcurveto
          -164 -146 rlineto
          132 hlineto
          322 283 rlineto
          endchar
        </CharString>
        <CharString name="dvC_RA">
          93 669 -16 callsubr
          -693 -80 485 -254 hlineto
          -68 -65 -73 -100 135 callgsubr
          vhcurveto
          81 -347 -81 135 vlineto
          -42 -22 -30 -39 -59 vvcurveto
          -88 64 -59 91 -11 vhcurveto
          -165 -146 rlineto
          131 hlineto
          249 219 rlineto
          -174 97 -82 callgsubr
        </CharString>
        <CharString name="dvC_YA">
          473 841 -104 callgsubr
          207 80 rmoveto
          -1072 -80 592 hlineto
          -77 callgsubr
          5 -38 9 -34 13 -30 rrcurveto
          -51 -35 -61 -41 -73 -44 callsubr
          99 77 48 57 42 vhcurveto
          -54 45 64 -29 69 -94 callgsubr
          vlineto
          endchar
        </CharString>
        <CharString name="dvCandrabindu">
          35 callgsubr
        </CharString>
        <CharString name="dvD">
          7 628 -245 38 callsubr
          -535 895 33 callgsubr
        </CharString>
        <CharString name="dvDA">
          7 -24 650 33 callgsubr
        </CharString>
        <CharString name="dvDA_mvR">
          -67 389 570 rmoveto
          119 80 -532 -80 318 -76 hlineto
          2 -17 -19 1 -18 hhcurveto
          -108 -65 -50 -73 -64 44 -38 70 -6 hvcurveto
          -75 -7 -46 -44 -68 vvcurveto
          -94 98 -46 117 64 64 19 21 34 vhcurveto
          89 vlineto
          -27 -38 -61 -24 -63 hhcurveto
          -67 -51 19 48 45 40 28 73 hvcurveto
          67 82 -63 hlineto
          -75 -33 24 37 41 41 19 61 1 hvcurveto
          35 55 -6 -12 31 hvcurveto
          endchar
        </CharString>
        <CharString name="dvDD">
          -27 214 -67 -26 callsubr
          96 637 97 callsubr
          194 callsubr
          86 callgsubr
          hvcurveto
          -92 callsubr
        </CharString>
        <CharString name="dvDDA">
          -27 409 570 97 callsubr
          194 callsubr
          86 callgsubr
          hvcurveto
          -92 callsubr
        </CharString>
        <CharString name="dvDDH">
          7 494 -218 38 callsubr
          -111 426 -50 callgsubr
          endchar
        </CharString>
        <CharString name="dvDDHA">
          7 266 208 -50 callgsubr
          endchar
        </CharString>
        <CharString name="dvDDH_DDHA">
          31 462 570 rmoveto
          144 80 -630 -80 390 -66 hlineto
          1 -13 -14 0 -13 hhcurveto
          -150 -1 -119 -73 -129 vvcurveto
          -83 53 -58 71 -31 vhcurveto
          -73 -32 -44 -58 -67 vvcurveto
          -125 120 -69 138 124 101 60 88 71 -59 43 -94 -39 -44 -10 -14 -26 vhcurveto
          -75 vlineto
          13 23 44 13 35 hhcurveto
          41 26 -16 -30 -40 -63 -24 -66 -95 -68 45 70 81 72 35 87 13 hvcurveto
          116 102 52 87 76 -63 42 -92 -44 -39 -10 -13 -25 hvcurveto
          81 callgsubr
        </CharString>
        <CharString name="dvDDH_R">
          9 249 -191 -26 callsubr
          93 761 -21 callsubr
        </CharString>
        <CharString name="dvDDH_RA">
          9 441 570 -21 callsubr
        </CharString>
        <CharString name="dvDDH_VA">
          31 321 102 rmoveto
          27 26 3 5 24 hvcurveto
          -72 vlineto
          -82 -46 -47 -70 -63 -39 34 57 66 56 37 78 -1 vhcurveto
          0 vlineto
          148 468 rmoveto
          144 80 -630 -80 390 -66 hlineto
          1 -13 -14 0 -13 hhcurveto
          -150 -1 -119 -73 -129 vvcurveto
          -79 48 -56 66 -33 vhcurveto
          -54 -26 -35 -47 -64 vvcurveto
          -105 87 -62 101 54 44 19 34 30 vhcurveto
          -119 94 388 vlineto
          29 22 18 31 36 vvcurveto
          76 -63 42 -92 -44 -39 -10 -13 -25 vhcurveto
          81 callgsubr
        </CharString>
        <CharString name="dvDDH_YA">
          564 601 414 rmoveto
          62 40 -14 -37 -53 -67 -21 -80 -16 hvcurveto
          -155 20 94 196 callgsubr
          87 callgsubr
          80 -1164 -80 369 -92 vlineto
          -174 -16 -124 -73 -148 vvcurveto
          -133 109 -91 144 65 callsubr
          -75 vlineto
          13 18 33 11 31 hhcurveto
          42 26 -24 -32 -52 -51 -28 -62 -92 -65 61 85 126 134 27 168 12 hvcurveto
          5 55 56 2 42 hhcurveto
          -160 156 rmoveto
          491 -288 hlineto
          -83 -50 -60 -86 -67 -46 29 56 -14 vhcurveto
          71 23 58 48 67 vvcurveto
          79 -58 51 -133 -41 -69 -1 -5 -56 vhcurveto
          endchar
        </CharString>
        <CharString name="dvDDHxA">
          7 266 208 -50 callgsubr
          -29 -412 rmoveto
          -34 25 -25 34 33 27 25 34 33 -27 27 -33 -12 callgsubr
          vhcurveto
          endchar
        </CharString>
        <CharString name="dvDD_DDA">
          7 440 432 rmoveto
          138 142 80 -606 -80 368 -58 -109 vlineto
          -93 -82 -33 -92 -60 46 -54 108 hvcurveto
          34 40 6 46 hhcurveto
          42 23 -17 -29 -42 -51 -15 -76 -66 -93 25 33 -52 hvcurveto
          -93 vlineto
          17 -9 22 -8 25 -8 rrcurveto
          -27 -17 -17 -32 -31 vvcurveto
          -65 58 -42 94 vhcurveto
          20 64 8 28 hhcurveto
          42 -1 20 -18 -27 vvcurveto
          -41 -48 -20 -68 -76 -92 22 35 -57 vhcurveto
          -92 vlineto
          -29 58 89 -17 75 hhcurveto
          130 85 55 94 66 -48 50 -97 2 hvcurveto
          -31 -63 -7 -18 hhcurveto
          -53 1 -14 17 22 vvcurveto
          23 17 18 28 8 vhcurveto
          -2 17 17 -1 17 hhcurveto
          128 91 46 96 1 hvcurveto
          68 -47 51 -89 vhcurveto
          -56 -40 -5 -27 hhcurveto
          -62 -15 18 21 30 28 12 54 hvcurveto
          endchar
        </CharString>
        <CharString name="dvDD_DDHA">
          9 448 432 rmoveto
          138 136 80 -608 -80 375 -58 -108 vlineto
          -92 -84 -34 -91 -65 54 -51 99 hvcurveto
          33 40 7 48 hhcurveto
          41 25 -16 -29 -42 -51 -15 -77 -65 -93 25 33 -53 hvcurveto
          -93 vlineto
          21 -11 29 -10 32 -8 rrcurveto
          -55 -32 -34 -51 -64 vvcurveto
          -121 103 -72 137 124 88 60 88 73 -61 41 -87 -35 -40 -11 -14 -26 vhcurveto
          -75 vlineto
          14 18 39 13 32 hhcurveto
          41 25 -16 -30 -41 -49 -23 -66 -91 -53 44 70 82 62 35 86 14 hvcurveto
          113 6 82 47 88 vvcurveto
          68 -46 52 -99 vhcurveto
          -52 -49 -6 -25 hhcurveto
          -52 -13 18 21 30 31 12 50 hvcurveto
          endchar
        </CharString>
        <CharString name="dvDD_R">
          -24 208 -209 -26 callsubr
          104 779 -27 callgsubr
        </CharString>
        <CharString name="dvDD_RA">
          -24 411 570 -27 callgsubr
        </CharString>
        <CharString name="dvDD_VA">
          10 372 22 rmoveto
          -76 -38 -58 -80 -56 -43 33 60 60 39 40 67 4 vhcurveto
          -1 9 9 0 8 hhcurveto
          28 30 3 6 27 hvcurveto
          86 339 rmoveto
          138 127 80 -609 -80 385 -58 -118 vlineto
          -93 -83 -39 -92 -63 48 -51 106 hvcurveto
          34 39 6 48 hhcurveto
          42 27 -17 -31 hvcurveto
          -47 -1 -56 -13 -70 hhcurveto
          -66 -97 25 33 -53 hvcurveto
          -93 vlineto
          17 -9 22 -8 25 -7 rrcurveto
          -46 -26 -28 -43 -59 vvcurveto
          -103 84 -65 102 56 43 21 35 29 vhcurveto
          -114 93 384 vlineto
          26 23 17 31 42 vvcurveto
          67 -50 53 -94 vhcurveto
          -66 -42 -5 -30 hhcurveto
          -46 -13 18 23 30 30 14 51 hvcurveto
          endchar
        </CharString>
        <CharString name="dvDD_YA">
          530 898 282 rmoveto
          -78 -50 -65 -86 -63 -49 31 55 -14 vhcurveto
          74 20 54 51 65 vvcurveto
          81 -58 51 -135 vhcurveto
          -160 77 487 213 callsubr
          -1129 -80 339 -76 -90 hlineto
          194 callsubr
          -84 67 -53 85 -3 hvcurveto
          88 7 rlineto
          46 -1 28 -23 -39 vvcurveto
          -56 -50 -24 -69 -69 -72 24 34 -53 vhcurveto
          -93 vlineto
          -25 48 68 -21 81 hhcurveto
          118 95 60 101 1 hvcurveto
          83 -51 57 -110 2 vhcurveto
          -87 -6 rlineto
          -40 1 -26 22 39 vvcurveto
          41 38 15 37 vhcurveto
          338 hlineto
          70 31 -20 -36 -49 -67 -20 -78 -12 hvcurveto
          -151 19 97 -72 110 hhcurveto
          70 57 32 36 22 hvcurveto
          -122 -20 callsubr
        </CharString>
        <CharString name="dvDDxA">
          -27 247 -75 -104 callsubr
          162 645 97 callsubr
          194 callsubr
          86 callgsubr
          hvcurveto
          -92 callsubr
        </CharString>
        <CharString name="dvDH">
          -126 512 278 rmoveto
          -80 -59 -72 -51 -102 -53 callsubr
          135 96 67 73 55 vhcurveto
          endchar
        </CharString>
        <CharString name="dvDHA">
          86 661 650 -17 callsubr
          -314 -80 145 hlineto
          -30 callsubr
          84 -66 127 85 69 37 48 33 vhcurveto
          -151 -20 callsubr
        </CharString>
        <CharString name="dvDH_MA">
          429 798 356 rmoveto
          -194 214 194 hlineto
          -377 80 rmoveto
          -80 87 -218 vlineto
          -26 -7 -17 -22 -29 vvcurveto
          -17 5 -19 8 -21 vhcurveto
          -56 -52 -64 -34 -83 -53 callsubr
          104 81 40 52 57 vhcurveto
          8 -17 rlineto
          83 130 194 -271 96 55 callsubr
        </CharString>
        <CharString name="dvDH_NA">
          91 667 168 callgsubr
          29 52 48 49 30 71 vhcurveto
          7 callgsubr
          180 131 rlineto
          1 vlineto
          20 13 16 16 12 17 rrcurveto
          -167 -20 callsubr
        </CharString>
        <CharString name="dvDH_N_YA">
          462 830 1 callsubr
          -424 80 rmoveto
          -80 152 -49 callsubr
          6 -45 12 -40 17 -33 rrcurveto
          -51 -49 -57 -38 -77 hhcurveto
          -75 -45 29 52 48 49 30 71 hvcurveto
          7 callgsubr
          176 128 36 20 32 26 29 28 rlinecurve
          -47 44 59 -25 65 108 callsubr
          97 -37 callgsubr
        </CharString>
        <CharString name="dvDH_R">
          -106 511 314 rmoveto
          -93 -61 -77 -59 -93 hhcurveto
          -75 -45 28 50 51 50 31 70 hvcurveto
          63 callsubr
          -91 79 -58 112 -2 vhcurveto
          -155 -129 rlineto
          136 hlineto
          340 298 rlineto
          endchar
        </CharString>
        <CharString name="dvDH_RA">
          91 667 168 callgsubr
          28 50 51 50 31 70 vhcurveto
          63 callsubr
          -86 71 -56 107 -9 vhcurveto
          -151 -129 rlineto
          134 hlineto
          237 205 rlineto
          -160 95 -79 callgsubr
        </CharString>
        <CharString name="dvDH_VA">
          457 1032 -16 callsubr
          -571 -80 363 -2 callgsubr
          -122 -83 -85 -112 -18 2 -17 4 -16 hvcurveto
          -54 -52 -62 -33 -82 -53 callsubr
          104 81 40 52 57 vhcurveto
          -45 38 58 -24 61 hhcurveto
          69 52 55 callgsubr
        </CharString>
        <CharString name="dvDH_YA">
          479 847 1 callsubr
          -418 80 rmoveto
          -80 146 -49 callsubr
          6 -49 13 -42 20 -35 rrcurveto
          -60 -54 -65 -36 -86 -53 callsubr
          118 88 51 61 57 vhcurveto
          -39 43 54 -20 59 108 callsubr
          97 -37 callgsubr
        </CharString>
        <CharString name="dvD_BA">
          42 416 180 callsubr
          5 4 1 4 hhcurveto
          8 hlineto
          51 62 19 34 26 hvcurveto
          -51 -210 rmoveto
          -15 -22 -27 -8 -27 hhcurveto
          -60 -46 33 56 26 10 24 18 16 207 callsubr
          -641 -80 432 -90 -108 vlineto
          -151 -91 168 callsubr
          -94 82 -63 103 59 50 23 37 33 vhcurveto
          3 -3 rlineto
          -92 96 482 -94 vlineto
          -69 -5 -53 -39 -74 hhcurveto
          -74 218 callgsubr
        </CharString>
        <CharString name="dvD_BHA">
          183 638 401 rmoveto
          169 120 80 -782 -80 565 172 callsubr
          -87 47 -74 78 -30 hvcurveto
          -98 -52 -41 78 rlineto
          45 -24 -30 24 -41 hhcurveto
          -43 -45 -26 -37 -25 hvcurveto
          35 -63 rlineto
          17 12 24 22 23 hhcurveto
          19 11 -12 -24 12 hvcurveto
          36 -70 rlineto
          -11 -10 -6 -13 -13 vvcurveto
          -33 45 -36 67 -45 vhcurveto
          65 35 -50 96 204 109 34 8 30 16 17 22 rlinecurve
          -131 96 271 -94 vlineto
          -68 -4 110 callgsubr
        </CharString>
        <CharString name="dvD_B_RA">
          39 414 180 callsubr
          4 4 1 5 hhcurveto
          7 hlineto
          52 62 19 34 26 hvcurveto
          -51 -210 rmoveto
          -15 -22 -28 -8 -27 hhcurveto
          -60 -45 33 56 26 10 23 18 17 207 callsubr
          -639 -80 429 -90 -107 vlineto
          -152 -90 168 callsubr
          -80 59 -58 82 -15 vhcurveto
          -124 -100 rlineto
          123 hlineto
          156 129 rlineto
          -1 hlineto
          11 8 11 10 9 10 4 -4 rcurveline
          -92 95 482 -93 vlineto
          -69 -5 -53 -39 -75 hhcurveto
          -73 218 callgsubr
        </CharString>
        <CharString name="dvD_DA">
          -15 435 570 rmoveto
          126 80 -585 -80 363 -69 hlineto
          3 -23 -25 2 -23 hhcurveto
          -127 -73 -53 -80 -59 42 -44 69 -3 hvcurveto
          -68 -6 -47 -51 -64 vvcurveto
          -87 78 -52 92 57 63 26 38 22 vhcurveto
          -106 96 241 -94 vlineto
          -82 -10 -58 -39 -61 hhcurveto
          -53 -35 26 43 44 41 31 66 hvcurveto
          45 81 -49 hlineto
          -57 -38 17 41 39 44 22 65 53 59 -11 -14 45 hvcurveto
          endchar
        </CharString>
        <CharString name="dvD_DHA">
          191 296 112 rmoveto
          23 -18 28 -14 33 -7 rrcurveto
          -73 -14 -40 -40 -43 205 callgsubr
          366 302 rmoveto
          169 120 80 -790 -80 573 172 callsubr
          -39 9 -36 17 -31 hvcurveto
          -11 -9 rlineto
          -15 -18 -27 -7 -21 hhcurveto
          -28 -22 14 28 54 46 6 1 79 hvcurveto
          -79 27 rlineto
          -1 -89 -54 -14 -69 vvcurveto
          -67 50 -36 59 14 16 2 6 14 vhcurveto
          -22 -22 -9 -31 -31 vvcurveto
          -66 54 -42 66 82 74 62 121 24 vhcurveto
          44 5 45 18 22 29 rrcurveto
          -131 96 271 -94 vlineto
          -68 -4 110 callgsubr
        </CharString>
        <CharString name="dvD_GA">
          15 472 401 rmoveto
          99 callsubr
          -614 -80 399 172 callsubr
          -90 50 -76 84 -28 hvcurveto
          -81 vlineto
          -38 -10 -17 -36 -29 -25 13 0 vhcurveto
          -77 vlineto
          -8 21 22 -5 29 hhcurveto
          75 44 41 82 hvcurveto
          79 vlineto
          48 3 48 18 24 31 rrcurveto
          -131 96 271 139 callsubr
          110 callgsubr
        </CharString>
        <CharString name="dvD_GHA">
          179 277 119 rmoveto
          23 -21 29 -15 33 -8 rrcurveto
          -69 -15 -39 -37 -41 205 callgsubr
          -53 166 rmoveto
          -35 8 -33 14 -29 vhcurveto
          -12 -10 rlineto
          -13 -17 -23 -8 -22 hhcurveto
          -30 -26 15 34 43 48 33 60 5 hvcurveto
          424 125 rmoveto
          169 120 80 -779 -80 562 -90 -95 vlineto
          -119 -75 -54 -80 -27 hvcurveto
          -95 -1 -111 -53 -107 vvcurveto
          -67 52 -39 59 14 16 2 5 14 vhcurveto
          -22 -22 -8 -30 -31 vvcurveto
          -67 53 -42 66 80 73 59 116 25 vhcurveto
          47 3 47 19 23 30 rrcurveto
          -131 96 271 119 callgsubr
          46 82 77 53 47 85 hvcurveto
          endchar
        </CharString>
        <CharString name="dvD_G_RA">
          58 475 401 rmoveto
          169 158 80 -657 -80 402 53 callsubr
          -83 42 -68 72 -34 hvcurveto
          -87 vlineto
          -38 -9 -17 -36 -29 -24 13 0 vhcurveto
          -75 vlineto
          -8 20 22 -4 28 hhcurveto
          73 44 39 80 hvcurveto
          76 vlineto
          -1 7 6 0 7 hhcurveto
          27 26 5 7 22 hvcurveto
          -130 vlineto
          -244 -190 rlineto
          121 hlineto
          123 99 rlineto
          -77 87 367 vlineto
          60 -158 rlineto
          95 hlineto
          -104 271 rlineto
          -84 hlineto
          -69 -5 -48 -43 -76 hhcurveto
          -73 -49 46 82 77 54 47 84 hvcurveto
          endchar
        </CharString>
        <CharString name="dvD_MA">
          214 583 113 rmoveto
          -152 200 -93 hlineto
          -58 -7 -50 -34 -53 hhcurveto
          -55 -43 33 59 69 52 33 83 hvcurveto
          165 155 153 hlineto
          206 80 rmoveto
          -813 -80 357 -75 -74 hlineto
          -145 -82 -71 -112 -103 75 -70 103 54 50 23 35 21 hvcurveto
          -88 vlineto
          -26 -6 -17 -22 -29 vvcurveto
          -32 26 -45 30 -55 vhcurveto
          83 109 152 -186 95 727 195 callsubr
        </CharString>
        <CharString name="dvD_NA">
          17 475 401 rmoveto
          99 callsubr
          -617 -80 402 53 callsubr
          -97 57 -80 96 -22 hvcurveto
          -66 -39 rlineto
          -40 -24 -18 -25 -32 vvcurveto
          -45 39 -44 47 -28 vhcurveto
          59 37 rlineto
          -23 21 -19 23 25 vvcurveto
          16 9 13 13 9 vhcurveto
          165 115 rlineto
          1 vlineto
          10 6 9 8 7 9 rrcurveto
          -77 callsubr
          endchar
        </CharString>
        <CharString name="dvD_R">
          12 514 -291 38 callsubr
          -421 941 23 callgsubr
        </CharString>
        <CharString name="dvD_RA">
          12 -24 650 23 callgsubr
        </CharString>
        <CharString name="dvD_VA">
          16 393 92 callgsubr
          -616 -80 399 -90 -89 vlineto
          -152 -86 -86 -117 -74 34 -64 63 -34 hvcurveto
          64 callgsubr
        </CharString>
        <CharString name="dvD_YA">
          117 485 303 rmoveto
          -107 -100 -59 -105 -62 -57 17 44 48 58 12 64 vhcurveto
          45 82 -45 hlineto
          -68 -45 16 40 33 26 24 60 33 39 -6 -12 34 hvcurveto
          135 123 vlineto
          131 callsubr
          -716 -80 290 -55 hlineto
          1 -11 -12 1 -12 hhcurveto
          -100 -60 -51 -67 -63 55 -32 63 -4 hvcurveto
          -67 -2 -58 -38 -65 vvcurveto
          -94 98 -45 115 98 76 42 44 34 vhcurveto
          -142 -20 callsubr
        </CharString>
        <CharString name="dvE">
          10 586 -16 callsubr
          -610 -41 callsubr
        </CharString>
        <CharString name="dvEcandra">
          10 396 904 rmoveto
          -53 -33 -40 -64 -65 -32 174 callsubr
          83 -53 109 103 88 57 110 vhcurveto
          96 -254 rmoveto
          -610 -41 callsubr
        </CharString>
        <CharString name="dvEight">
          -9 269 75 rmoveto
          -84 -38 46 51 56 35 52 87 3 hvcurveto
          88 -2 37 -48 -54 vvcurveto
          -54 -39 -50 -86 vhcurveto
          -1 504 rmoveto
          80 32 -50 -53 -70 -49 -34 -60 -62 -51 31 72 53 37 51 73 hvcurveto
          114 -250 rmoveto
          60 28 37 50 66 vvcurveto
          130 -101 60 -110 -109 -101 -67 -124 -69 38 -50 61 -26 vhcurveto
          -65 -25 -44 -53 -81 vvcurveto
          -110 94 -67 126 128 98 70 112 85 -45 49 -67 22 vhcurveto
          endchar
        </CharString>
        <CharString name="dvEyelash">
          -357 9 382 rmoveto
          -85 vlineto
          -16 31 40 -11 54 hhcurveto
          75 62 23 20 37 hvcurveto
          -23 80 rlineto
          -23 -40 -52 -22 -61 hhcurveto
          -59 -40 18 16 -24 hvcurveto
          209 188 rmoveto
          80 -242 -80 vlineto
          endchar
        </CharString>
        <CharString name="dvEyelash_HA">
          179 646 127 callgsubr
          109 80 -779 -80 575 -79 -167 vlineto
          -74 -57 -36 -70 -4 0 -4 1 -4 hvcurveto
          -14 -34 -40 -11 -44 hhcurveto
          -59 -44 18 16 -24 hvcurveto
          -85 vlineto
          -16 31 45 -11 53 hhcurveto
          61 51 14 15 37 hvcurveto
          11 -12 13 -9 10 -7 rrcurveto
          -43 -32 -21 -44 -46 vvcurveto
          -88 80 -95 173 41 36 3 13 58 vhcurveto
          81 vlineto
          -14 -54 -40 -4 -35 hhcurveto
          -117 -46 46 57 48 44 43 87 61 28 -30 -35 -14 -2 -21 -10 -16 hvcurveto
          94 hlineto
          9 18 2 22 17 vvcurveto
          72 -62 66 -118 -35 -32 -4 -8 -27 vhcurveto
          -21 12 -20 24 31 vvcurveto
          32 22 8 29 vhcurveto
          endchar
        </CharString>
        <CharString name="dvEyelash_YA">
          252 620 1 callsubr
          208 80 rmoveto
          -852 -80 372 hlineto
          -65 callsubr
          -53 -52 -44 -108 -19 vhcurveto
          0 vlineto
          -5 -23 -25 -2 -24 hhcurveto
          -50 -48 10 22 -39 hvcurveto
          -84 vlineto
          -18 35 48 -9 51 hhcurveto
          35 32 4 6 25 hvcurveto
          -114 38 88 -59 102 96 callsubr
        </CharString>
        <CharString name="dvFive">
          -26 190 30 callgsubr
        </CharString>
        <CharString name="dvFour">
          22 147 238 rmoveto
          198 359 rlineto
          -359 vlineto
          189 hmoveto
          -92 417 -158 206 callgsubr
          97 153 92 vlineto
          endchar
        </CharString>
        <CharString name="dvG">
          -241 334 -16 callsubr
          -358 -80 167 -221 hlineto
          -99 callsubr
          95 vlineto
          endchar
        </CharString>
        <CharString name="dvGA">
          26 213 callgsubr
          167 -221 vlineto
          -99 callsubr
          156 -570 95 570 203 callsubr
        </CharString>
        <CharString name="dvGH">
          -192 428 241 rmoveto
          -49 -36 -59 -25 -64 hhcurveto
          105 callgsubr
          hvcurveto
          56 83 -46 hlineto
          52 callsubr
          170 80 -407 -80 130 hlineto
          -4 callgsubr
          84 72 33 53 45 vhcurveto
          endchar
        </CharString>
        <CharString name="dvGHA">
          90 458 69 callgsubr
          -689 -80 130 hlineto
          -4 callgsubr
          86 75 36 50 37 vhcurveto
          -172 -20 callsubr
        </CharString>
        <CharString name="dvGH_MA">
          369 738 -22 callsubr
          -412 -237 rmoveto
          83 -46 vlineto
          52 callsubr
          235 -220 hlineto
          -27 -7 -17 -19 -28 vvcurveto
          -18 7 -22 10 -24 vhcurveto
          -43 -36 -56 -22 -60 hhcurveto
          105 callgsubr
          hvcurveto
          674 317 rmoveto
          -968 -80 130 hlineto
          -4 callgsubr
          78 68 29 46 45 vhcurveto
          9 -19 rlineto
          72 callsubr
        </CharString>
        <CharString name="dvGH_NA">
          93 461 333 rmoveto
          -95 -81 -71 -108 105 callgsubr
          vhcurveto
          56 83 -46 hlineto
          -65 -50 21 55 34 18 25 30 19 hvcurveto
          245 213 callsubr
          -692 -80 133 hlineto
          120 callsubr
          -68 56 -38 64 -4 vhcurveto
          -75 -9 -53 -48 -74 vvcurveto
          -85 64 -56 93 -13 vhcurveto
          -62 -36 rlineto
          -34 -21 -15 -23 -29 vvcurveto
          -51 50 -48 43 -24 vhcurveto
          60 39 rlineto
          -25 25 -25 30 25 vvcurveto
          13 6 12 14 9 vhcurveto
          170 112 25 13 20 18 14 19 rlinecurve
          -172 -20 callsubr
        </CharString>
        <CharString name="dvGH_R">
          -150 492 326 rmoveto
          -70 -33 -77 -89 -107 hhcurveto
          -57 -56 24 57 54 44 31 70 hvcurveto
          56 83 -46 hlineto
          52 callsubr
          206 80 -449 80 callgsubr
          132 hlineto
          320 276 rlineto
          endchar
        </CharString>
        <CharString name="dvGH_RA">
          95 464 333 rmoveto
          -95 -82 -71 -107 -57 -56 24 57 54 44 31 70 vhcurveto
          56 83 -46 hlineto
          52 callsubr
          245 213 callsubr
          -695 80 callgsubr
          130 hlineto
          243 215 rlineto
          -170 95 -79 callgsubr
        </CharString>
        <CharString name="dvGH_YA">
          436 804 -104 callgsubr
          -478 -237 rmoveto
          83 -46 vlineto
          52 callsubr
          318 hlineto
          -77 callgsubr
          6 -46 12 -40 18 -34 rrcurveto
          -52 -41 -56 -30 -71 hhcurveto
          105 callgsubr
          hvcurveto
          741 317 rmoveto
          -1035 -80 130 hlineto
          -4 callgsubr
          96 72 41 62 52 vhcurveto
          -46 44 58 -24 64 -94 callgsubr
          vlineto
          endchar
        </CharString>
        <CharString name="dvG_BA">
          370 670 183 -33 callgsubr
          -970 -80 167 -221 hlineto
          -99 callsubr
          499 -268 vlineto
          29 callsubr
        </CharString>
        <CharString name="dvG_BHA">
          316 685 -16 callsubr
          -294 -184 168 vlineto
          83 -35 43 -94 vhcurveto
          -396 -80 167 -221 hlineto
          -99 callsubr
          114 vlineto
          42 10 -21 -40 hvcurveto
          -157 vlineto
          -26 -6 -17 -23 13 callgsubr
          184 -277 162 callgsubr
          80 hlineto
          endchar
        </CharString>
        <CharString name="dvG_BH_YA">
          701 1069 100 callsubr
          -437 80 rmoveto
          -80 164 60 callgsubr
          168 hlineto
          83 -35 43 -94 vhcurveto
          -396 -80 167 -221 hlineto
          -99 callsubr
          114 vlineto
          42 10 -21 -40 hvcurveto
          -157 vlineto
          -26 -6 -17 -23 13 callgsubr
          49 hlineto
          40 48 2 7 47 hvcurveto
          -110 37 85 -57 104 hhcurveto
          179 callsubr
          vlineto
          endchar
        </CharString>
        <CharString name="dvG_DA">
          320 778 401 rmoveto
          99 callsubr
          -920 -80 167 -221 vlineto
          -99 callsubr
          442 53 callsubr
          142 callgsubr
          hvcurveto
          -77 callsubr
          endchar
        </CharString>
        <CharString name="dvG_DHA">
          378 953 650 -17 callsubr
          -606 -80 167 -221 hlineto
          -99 callsubr
          174 vlineto
          -30 callsubr
          84 -66 127 85 69 37 48 33 vhcurveto
          -151 -20 callsubr
        </CharString>
        <CharString name="dvG_DH_VA">
          766 1341 -16 callsubr
          -570 -80 362 36 callgsubr
          -122 -83 -85 -112 -23 3 -20 6 -19 hvcurveto
          -48 -50 -59 -28 -76 -64 callgsubr
          -637 -80 167 -221 hlineto
          -99 callsubr
          205 vlineto
          -22 callgsubr
          99 79 36 49 56 vhcurveto
          -41 38 55 -21 58 hhcurveto
          69 52 55 callgsubr
        </CharString>
        <CharString name="dvG_DH_YA">
          779 1147 -104 callgsubr
          -403 80 rmoveto
          -80 130 -49 callsubr
          7 -56 17 -47 24 -38 rrcurveto
          -51 -51 -60 -30 -79 -64 callgsubr
          -637 -80 167 -221 hlineto
          -99 callsubr
          205 vlineto
          -22 callgsubr
          111 84 45 56 57 vhcurveto
          -31 41 49 -17 53 hhcurveto
          179 callsubr
          vlineto
          endchar
        </CharString>
        <CharString name="dvG_GA">
          335 911 -16 callsubr
          -935 -80 167 -221 hlineto
          -99 callsubr
          213 -221 vlineto
          -99 callsubr
          156 -570 95 -79 callgsubr
        </CharString>
        <CharString name="dvG_GHA">
          392 760 69 callgsubr
          -991 -80 167 -221 hlineto
          -99 callsubr
          169 vlineto
          -4 callgsubr
          86 75 36 50 37 vhcurveto
          -172 -20 callsubr
        </CharString>
        <CharString name="dvG_JA">
          416 991 -16 callsubr
          -1015 -80 167 -221 hlineto
          -99 callsubr
          544 -11 callsubr
          hlineto
          endchar
        </CharString>
        <CharString name="dvG_LA">
          499 1074 -16 callsubr
          -1098 -80 167 -221 hlineto
          -99 callsubr
          627 -101 vlineto
          5 -15 -17 3 -19 hhcurveto
          -75 -52 -32 -65 -17 hvcurveto
          55 -12 -48 37 -77 hhcurveto
          -110 -67 -86 -122 -152 97 -112 155 -79 callsubr
        </CharString>
        <CharString name="dvG_MA">
          323 692 -22 callsubr
          206 80 rmoveto
          -922 -80 167 -221 hlineto
          -99 callsubr
          163 -220 vlineto
          -27 callsubr
        </CharString>
        <CharString name="dvG_NA">
          32 213 callgsubr
          172 -221 vlineto
          -39 -16 -22 -39 -30 -27 -11 callgsubr
          22 25 -5 30 hhcurveto
          81 50 46 89 hvcurveto
          228 156 -327 vlineto
          -238 -146 rlineto
          -35 -21 -16 -23 -29 vvcurveto
          -52 56 -47 40 -22 vhcurveto
          58 38 rlineto
          -22 20 -29 28 26 vvcurveto
          12 6 11 12 8 vhcurveto
          168 103 rlineto
          -149 79 callgsubr
        </CharString>
        <CharString name="dvG_NNA">
          519 642 31 callgsubr
          453 80 rmoveto
          -1119 -80 167 -221 hlineto
          -99 callsubr
          143 -220 vlineto
          9 callgsubr
        </CharString>
        <CharString name="dvG_N_YA">
          658 1027 -104 callgsubr
          207 80 rmoveto
          -1258 -80 167 -221 hlineto
          -99 callsubr
          515 vlineto
          -65 callsubr
          -40 -30 -36 -62 -23 vhcurveto
          20 -30 -50 21 -74 hhcurveto
          -96 hlineto
          -64 -29 -33 -48 -44 16 -44 14 -24 hvcurveto
          79 hlineto
          -7 24 -5 29 20 vvcurveto
          29 9 11 24 vhcurveto
          60 hlineto
          57 26 -16 -10 11 hvcurveto
          -131 33 94 -70 109 -94 callgsubr
          vlineto
          endchar
        </CharString>
        <CharString name="dvG_R">
          34 callsubr
          endchar
        </CharString>
        <CharString name="dvG_RA">
          36 -24 650 28 callsubr
        </CharString>
        <CharString name="dvG_R_YA">
          439 807 -104 callgsubr
          207 80 rmoveto
          -1038 -80 176 -221 hlineto
          -39 -16 -22 -39 -30 -28 -11 callgsubr
          23 24 -5 31 hhcurveto
          81 50 46 89 hvcurveto
          228 286 -49 callsubr
          3 -22 4 -21 6 -20 -376 -326 rcurveline
          133 hlineto
          282 241 rlineto
          -67 46 70 -35 77 -94 callgsubr
          vlineto
          endchar
        </CharString>
        <CharString name="dvG_SA">
          431 594 143 callsubr
          181 -231 vlineto
          207 311 rmoveto
          -1030 -80 167 -221 hlineto
          -99 callsubr
          283 -130 vlineto
          -101 callgsubr
          163 -259 -21 callgsubr
          hlineto
          endchar
        </CharString>
        <CharString name="dvG_VA">
          344 920 -16 callsubr
          -944 -80 167 -221 hlineto
          -99 callsubr
          473 -263 vlineto
          -20 callgsubr
        </CharString>
        <CharString name="dvG_YA">
          399 767 -104 callgsubr
          207 80 rmoveto
          -998 -80 167 -221 hlineto
          -99 callsubr
          255 9 callsubr
        </CharString>
        <CharString name="dvGx">
          -231 139 87 -104 callsubr
          206 563 rmoveto
          -369 -80 167 -221 hlineto
          -99 callsubr
          106 vlineto
          endchar
        </CharString>
        <CharString name="dvGxA">
          26 139 87 -104 callsubr
          -163 563 rmoveto
          -80 167 -221 vlineto
          -99 callsubr
          156 -570 95 570 203 callsubr
        </CharString>
        <CharString name="dvGx_R">
          34 callsubr
          -103 -227 -104 callsubr
          endchar
        </CharString>
        <CharString name="dvGx_RA">
          36 311 -25 -104 callsubr
          -335 675 28 callsubr
        </CharString>
        <CharString name="dvH">
          -15 247 -101 -26 callsubr
          -370 751 rmoveto
          -80 381 112 callgsubr
          -73 callgsubr
          245 157 108 80 hlineto
          endchar
        </CharString>
        <CharString name="dvHA">
          -15 121 callgsubr
          -62 42 -35 27 -16 hvcurveto
          -73 callgsubr
          endchar
        </CharString>
        <CharString name="dvHA_mU">
          -16 121 callgsubr
          -62 42 -33 26 -16 hvcurveto
          -43 -33 -21 -46 -46 vvcurveto
          -109 84 -63 109 -6 vhcurveto
          4 10 -1 1 4 hvcurveto
          10 14 22 8 18 hhcurveto
          38 31 -17 -41 -37 -29 -32 -65 -61 -84 34 38 -53 hvcurveto
          -95 vlineto
          -34 52 79 -22 70 hhcurveto
          119 66 66 87 77 -58 55 -94 -26 -33 -10 -9 -15 hvcurveto
          -71 3 -34 40 56 vvcurveto
          48 43 46 87 61 28 -28 -37 -14 -3 -17 -9 -13 vhcurveto
          95 hlineto
          6 15 3 18 17 vvcurveto
          70 -55 69 -124 -36 -32 -5 -8 -27 vhcurveto
          -21 12 -19 22 183 callsubr
        </CharString>
        <CharString name="dvHA_mUU">
          -15 121 callgsubr
          -61 40 -34 27 -17 hvcurveto
          -42 -32 -21 -44 -45 vvcurveto
          -63 38 -56 65 -24 vhcurveto
          -26 -24 -15 -32 -36 vvcurveto
          -95 73 -45 85 12 20 1 6 16 vhcurveto
          76 vlineto
          -5 -12 -12 -2 -14 hhcurveto
          -40 -35 21 41 36 28 24 41 105 46 -101 -110 1 hvcurveto
          89 hlineto
          110 -46 179 -195 vhcurveto
          -78 2 -49 39 57 vvcurveto
          46 39 42 84 66 31 -29 -36 -14 -3 -21 -10 -16 vhcurveto
          95 hlineto
          8 18 2 22 17 vvcurveto
          74 -64 64 -124 -33 -29 -4 -7 -25 vhcurveto
          -21 12 -19 24 183 callsubr
        </CharString>
        <CharString name="dvHA_mvR">
          -24 418 127 callgsubr
          133 80 -575 -80 346 -79 -134 vlineto
          -74 -58 -36 -70 -61 41 -35 26 -16 hvcurveto
          -48 -39 -24 -55 -56 vvcurveto
          -147 135 -79 162 29 28 3 7 29 vhcurveto
          75 vlineto
          -7 -26 -30 -2 -23 hhcurveto
          -143 -64 72 74 72 57 58 87 27 6 -10 -13 hvcurveto
          -27 -64 -37 -44 vvcurveto
          -55 56 -23 54 47 43 11 15 29 vhcurveto
          76 vlineto
          -19 -29 -39 -11 -32 hhcurveto
          -23 -14 5 15 hvcurveto
          28 66 38 49 vvcurveto
          47 -39 33 -80 -42 -37 -6 -12 -31 vhcurveto
          -19 13 -16 23 28 119 callsubr
        </CharString>
        <CharString name="dvH_LA">
          66 508 127 callgsubr
          134 80 -666 -80 436 -79 -213 vlineto
          -75 -57 -36 -70 -65 46 -35 25 -15 hvcurveto
          -55 -45 -27 -65 -72 vvcurveto
          -162 123 -102 174 24 29 2 4 19 vhcurveto
          76 vlineto
          -4 -16 -25 -2 -23 hhcurveto
          -136 -74 80 104 95 59 70 122 59 43 -16 -29 26 hvcurveto
          -4 hlineto
          -35 -30 -20 -30 -7 hvcurveto
          25 -7 -28 22 -41 hhcurveto
          -60 -38 -46 -67 -86 62 -48 87 hvcurveto
          8 9 1 7 hhcurveto
          55 vlineto
          -1 -5 -7 0 -7 hhcurveto
          -54 -32 27 51 35 13 21 22 27 9 -19 -30 hvcurveto
          -30 69 28 vlineto
          35 12 22 33 9 9 -2 -2 7 vhcurveto
          3 -12 1 -13 -14 vvcurveto
          -51 -12 -50 -16 -36 vhcurveto
          89 hlineto
          18 39 10 51 52 vvcurveto
          131 -100 86 -149 -49 -43 -8 -13 -35 vhcurveto
          -21 12 -19 24 183 callsubr
        </CharString>
        <CharString name="dvH_MA">
          220 589 192 rmoveto
          -132 8 hlineto
          70 -57 54 -105 -30 -28 -4 -8 -24 vhcurveto
          -20 12 -19 19 30 vvcurveto
          32 22 8 28 vhcurveto
          214 157 151 hlineto
          206 80 rmoveto
          -819 -80 366 -79 -135 hlineto
          -74 -58 -36 -70 -63 43 -30 26 -15 hvcurveto
          -48 -37 -26 -58 -67 vvcurveto
          -151 106 -97 177 27 26 3 5 24 vhcurveto
          79 vlineto
          -4 -20 -24 -3 -29 hhcurveto
          -121 -69 66 94 80 42 60 83 52 20 -22 -28 hvcurveto
          -7 vlineto
          -25 -6 -17 -20 -28 vvcurveto
          -28 27 -42 27 -49 vhcurveto
          81 90 132 -155 95 618 195 callsubr
        </CharString>
        <CharString name="dvH_NA">
          71 504 127 callgsubr
          142 80 -670 -80 432 -79 -211 vlineto
          -74 -58 -36 -70 -64 48 -38 27 -18 hvcurveto
          -59 -41 -27 -62 -66 vvcurveto
          -154 142 -92 161 31 22 0 8 37 vhcurveto
          77 vlineto
          -7 -26 -29 -2 -28 hhcurveto
          -133 -80 76 90 79 57 68 124 37 30 -6 -11 24 hvcurveto
          -118 -55 rlineto
          -37 -17 -18 -22 -30 vvcurveto
          -45 49 -49 25 -19 vhcurveto
          63 29 rlineto
          -24 28 -16 29 18 vvcurveto
          14 7 8 14 6 vhcurveto
          114 52 rlineto
          8 -16 4 -16 -18 vvcurveto
          -28 -5 -24 -6 -17 vhcurveto
          90 hlineto
          6 16 4 31 29 vvcurveto
          100 -80 92 -166 -49 -41 -6 -12 -36 vhcurveto
          -25 15 -22 25 33 119 callsubr
        </CharString>
        <CharString name="dvH_NNA">
          73 372 129 rmoveto
          -40 -8 -16 -30 -29 -11 16 41 vhcurveto
          113 vlineto
          1 12 12 1 14 hhcurveto
          14 14 -1 -2 12 hvcurveto
          141 171 rmoveto
          157 135 80 -672 -80 442 -79 -214 vlineto
          -74 -57 -36 -70 -66 46 -35 25 -15 hvcurveto
          -54 -40 -28 -59 -68 vvcurveto
          -155 135 -91 168 31 33 2 8 36 vhcurveto
          77 vlineto
          -8 -25 -40 -4 -28 hhcurveto
          -143 -71 76 90 55 21 45 47 26 hvcurveto
          -92 vlineto
          -84 39 -33 68 72 36 39 78 vhcurveto
          88 vlineto
          35 -23 17 -36 -50 vvcurveto
          -25 -4 -28 -6 -17 vhcurveto
          89 hlineto
          6 18 4 32 25 vvcurveto
          132 -100 77 -144 -48 -41 -7 -12 -36 vhcurveto
          -21 12 -21 24 32 119 callsubr
        </CharString>
        <CharString name="dvH_R">
          68 278 -211 -26 callsubr
          136 624 -37 callsubr
        </CharString>
        <CharString name="dvH_RA">
          68 513 413 -37 callsubr
        </CharString>
        <CharString name="dvH_VA">
          53 511 127 callgsubr
          117 80 -652 -80 439 -79 -213 vlineto
          -74 -58 -36 -70 -65 46 -35 26 -15 hvcurveto
          -57 -43 -29 -64 -70 vvcurveto
          -155 120 -106 179 33 30 3 9 39 vhcurveto
          77 vlineto
          -8 -27 -34 -4 -29 hhcurveto
          -126 -89 60 115 90 60 71 111 94 45 -48 -69 11 hvcurveto
          -1 1 rlineto
          -54 -7 -44 -30 -45 hhcurveto
          -39 -22 16 32 32 26 16 27 12 12 -3 -4 10 hvcurveto
          61 vlineto
          5 -12 -17 4 -20 hhcurveto
          -69 -60 -45 -68 -67 53 -48 78 46 39 17 30 28 hvcurveto
          -4 -18 -5 -18 -5 -13 rrcurveto
          90 hlineto
          11 29 11 58 37 vvcurveto
          124 -79 102 -159 -45 -39 -7 -12 -34 vhcurveto
          -21 13 -20 23 32 119 callsubr
        </CharString>
        <CharString name="dvH_YA">
          230 599 206 rmoveto
          -88 -58 -47 -68 -42 -34 19 28 -15 vhcurveto
          53 15 39 40 52 vvcurveto
          82 -73 36 -94 -38 -35 -7 -13 -31 vhcurveto
          -14 12 -10 16 22 202 callsubr
          217 157 152 hlineto
          206 80 rmoveto
          -829 -80 375 -79 -138 hlineto
          -74 -58 -36 -70 -54 32 -30 25 -17 hvcurveto
          -42 -37 -26 -53 -64 vvcurveto
          -162 137 -101 162 18 22 3 4 16 vhcurveto
          79 vlineto
          -3 -11 -19 -2 -14 hhcurveto
          -116 -98 74 103 89 61 53 89 41 22 -15 -29 -38 -42 -19 -65 -11 hvcurveto
          -111 19 89 -50 81 hhcurveto
          59 50 21 38 28 hvcurveto
          -101 95 618 111 vlineto
          endchar
        </CharString>
        <CharString name="dvI">
          -56 412 570 rmoveto
          107 80 -543 -80 340 -71 -76 25 callsubr
          172 154 callgsubr
          endchar
        </CharString>
        <CharString name="dvII">
          -56 408 570 rmoveto
          111 80 -130 hlineto
          -15 19 -21 35 34 vvcurveto
          40 24 29 43 29 29 -8 -11 19 vhcurveto
          88 vlineto
          12 -25 -29 5 -32 hhcurveto
          -92 -64 -60 -87 -45 17 -33 16 -18 hvcurveto
          -312 -80 335 -71 -71 25 callsubr
          168 154 callgsubr
          endchar
        </CharString>
        <CharString name="dvII_Anusvara">
          -34 422 570 rmoveto
          120 80 -139 hlineto
          -21 20 -31 43 53 82 callsubr
          10 -22 -33 7 -30 hhcurveto
          -103 -71 -73 -95 -58 24 -46 27 -31 hvcurveto
          -328 -80 350 -70 -88 hlineto
          -90 -79 -45 -94 -80 67 -54 85 -4 hvcurveto
          86 7 rlineto
          43 -2 25 -27 -38 vvcurveto
          -50 -38 -33 -50 -61 -51 40 52 -20 vhcurveto
          -88 -235 95 108 hlineto
          -26 35 47 -15 50 hhcurveto
          103 73 66 92 84 -50 59 -101 4 hvcurveto
          -86 -5 rlineto
          -40 1 -26 24 33 vvcurveto
          42 38 16 36 vhcurveto
          181 154 callgsubr
          -17 335 rmoveto
          -29 22 -22 29 30 22 22 29 29 -22 23 -30 -29 -22 -23 -29 vhcurveto
          endchar
        </CharString>
        <CharString name="dvJ">
          -130 446 -16 callsubr
          -470 -80 470 hlineto
          108 -115 rmoveto
          -460 -81 hlineto
          -103 callsubr
          270 hlineto
          endchar
        </CharString>
        <CharString name="dvJA">
          101 213 callgsubr
          493 -11 callsubr
          80 hlineto
          endchar
        </CharString>
        <CharString name="dvJH">
          -16 660 322 rmoveto
          -376 hlineto
          60 callsubr
          140 80 -584 -80 348 -66 -78 vlineto
          -101 -75 -44 -92 -99 85 -24 103 -4 hvcurveto
          -26 callgsubr
          216 hlineto
          endchar
        </CharString>
        <CharString name="dvJHA">
          214 284 322 rmoveto
          60 callsubr
          161 -248 vlineto
          209 328 rmoveto
          -814 -80 348 -66 -78 hlineto
          -101 -75 -44 -92 -99 85 -24 103 -4 hvcurveto
          -26 callgsubr
          137 -245 164 callsubr
        </CharString>
        <CharString name="dvJH_MA">
          557 926 -22 callsubr
          -506 -146 rmoveto
          2 vlineto
          0 vlineto
          144 216 -220 vlineto
          -18 -5 -13 -9 -7 -14 rrcurveto
          -314 hlineto
          118 callgsubr
          33 15 51 vhcurveto
          881 226 rmoveto
          -1156 -80 348 -66 -78 hlineto
          -101 -75 -44 -92 -99 85 -24 103 -4 hvcurveto
          -26 callgsubr
          160 hlineto
          4 -12 6 -14 6 -13 28 -64 rcurveline
          72 callsubr
        </CharString>
        <CharString name="dvJH_NA">
          320 307 326 rmoveto
          -18 1 rlineto
          -71 5 -35 11 35 vvcurveto
          33 31 16 54 vhcurveto
          189 143 236 -244 hlineto
          202 324 rmoveto
          -919 -80 385 -65 -99 hlineto
          -103 -73 -43 -88 -96 90 -28 104 -4 hvcurveto
          74 -4 29 -27 -45 vvcurveto
          -47 -38 -29 -50 -59 -54 38 54 -23 vhcurveto
          -88 -230 95 105 hlineto
          -27 36 51 -16 50 hhcurveto
          101 75 63 92 30 -5 25 -12 21 hvcurveto
          231 -36 hlineto
          -228 -203 rlineto
          -30 -26 -12 -27 -25 vvcurveto
          -45 39 -41 51 -23 vhcurveto
          56 35 rlineto
          -26 23 -23 24 24 vvcurveto
          13 7 11 14 15 vhcurveto
          152 145 rlineto
          -113 91 -82 callgsubr
        </CharString>
        <CharString name="dvJH_R">
          62 718 246 rmoveto
          77 -444 vlineto
          137 callsubr
          207 80 -662 -80 359 -65 -83 vlineto
          43 callgsubr
          263 -7 rmoveto
          -395 -363 rlineto
          130 hlineto
          319 294 rlineto
          endchar
        </CharString>
        <CharString name="dvJH_RA">
          303 274 323 rmoveto
          137 callsubr
          239 -247 vlineto
          209 327 rmoveto
          -903 -80 359 -65 -83 hlineto
          43 callgsubr
          221 -46 hlineto
          -353 -324 rlineto
          130 hlineto
          223 217 rlineto
          -93 40 callsubr
        </CharString>
        <CharString name="dvJH_YA">
          609 972 70 callsubr
          -53 37 64 -15 vhcurveto
          79 25 63 67 83 vvcurveto
          34 -8 33 -16 24 vhcurveto
          170 hlineto
          -699 -247 rmoveto
          -6 hlineto
          -67 3 -32 13 36 vvcurveto
          37 34 12 49 vhcurveto
          169 178 callgsubr
          280 vlineto
          16 -17 14 -30 -35 vvcurveto
          -102 -134 -46 -169 -11 vhcurveto
          -5 -36 -81 -1 -37 hhcurveto
          907 327 rmoveto
          -1204 -80 348 -66 -78 hlineto
          -101 -75 -43 -90 -99 81 -26 107 -5 hvcurveto
          75 -4 35 -27 -45 vvcurveto
          -49 -35 -28 -51 -58 -53 39 53 -24 vhcurveto
          -88 -229 95 104 hlineto
          -27 36 48 -16 52 hhcurveto
          104 70 65 91 33 -9 28 -16 23 hvcurveto
          6 1 55 3 49 6 42 10 rlinecurve
          -103 40 85 -50 99 96 callsubr
        </CharString>
        <CharString name="dvJ_BA">
          494 793 183 -33 callgsubr
          -1093 -80 885 22 callgsubr
          -57 -49 -16 -29 -38 hvcurveto
          -458 -81 hlineto
          -103 callsubr
          206 hlineto
          -11 -26 -6 -28 -31 59 callsubr
        </CharString>
        <CharString name="dvJ_DA">
          433 891 401 rmoveto
          169 117 80 -1027 -80 813 -90 -95 vlineto
          -48 -41 -9 -16 -34 hvcurveto
          -477 -81 hlineto
          78 callsubr
          201 hlineto
          -15 -29 -8 -34 -37 vvcurveto
          152 callsubr
          51 57 19 34 26 vhcurveto
          -131 96 271 119 callgsubr
          46 82 77 53 47 85 hvcurveto
          endchar
        </CharString>
        <CharString name="dvJ_DDA">
          404 840 201 callgsubr
          -1004 -80 767 -72 -90 hlineto
          -50 -48 -14 -29 -31 hvcurveto
          -430 -81 hlineto
          -103 callsubr
          202 hlineto
          -1 -5 0 -4 -5 vvcurveto
          86 callgsubr
          vhcurveto
          87 -3 36 -15 -47 vvcurveto
          -48 -44 -29 -72 -71 -72 24 34 -54 vhcurveto
          -93 vlineto
          -25 48 67 -21 82 hhcurveto
          133 79 69 92 1 hvcurveto
          95 -65 45 -120 3 vhcurveto
          209 callsubr
          185 154 callgsubr
          endchar
        </CharString>
        <CharString name="dvJ_JA">
          501 1077 -16 callsubr
          -1101 -80 893 -115 -775 -81 hlineto
          -103 callsubr
          210 hlineto
          -4 callsubr
          hlineto
          endchar
        </CharString>
        <CharString name="dvJ_JHA">
          636 706 322 rmoveto
          60 callsubr
          161 -248 vlineto
          209 328 rmoveto
          -1236 -80 770 -66 -78 hlineto
          -61 -51 -16 -33 -32 hvcurveto
          -430 -81 hlineto
          -103 callsubr
          208 -6 hlineto
          -99 85 -24 103 -4 vhcurveto
          -26 callgsubr
          137 -245 164 callsubr
        </CharString>
        <CharString name="dvJ_J_NYA">
          638 1224 -16 callsubr
          -1248 -80 1028 -75 -321 hlineto
          -54 -48 -13 -27 -33 hvcurveto
          -454 -81 hlineto
          -103 callsubr
          223 hlineto
          -4 0 -3 -4 vvcurveto
          -83 64 -44 118 71 46 -15 -52 -49 -36 -32 -53 -61 -54 43 51 -21 vhcurveto
          56 callsubr
          hlineto
          endchar
        </CharString>
        <CharString name="dvJ_J_VA">
          851 1427 -16 callsubr
          -1451 -80 1243 -65 callgsubr
          -41 -37 -10 -17 -31 hvcurveto
          -865 -81 hlineto
          -103 callsubr
          214 hlineto
          104 62 -43 -81 -70 -49 -37 -72 -41 -36 10 16 -32 hvcurveto
          76 callsubr
          70 109 62 -25 46 -44 26 hvcurveto
          195 hlineto
          -13 -26 -7 -31 -32 -59 callgsubr
        </CharString>
        <CharString name="dvJ_J_YA">
          892 1260 49 callgsubr
          -74 -47 44 67 -26 vhcurveto
          76 23 70 49 169 callgsubr
          -1492 -80 1012 hlineto
          16 -18 14 -28 -36 vvcurveto
          -49 -37 -33 -58 -19 vhcurveto
          36 -32 -60 32 -93 hhcurveto
          -644 -81 hlineto
          -103 callsubr
          217 hlineto
          99 -3 59 -43 -78 vvcurveto
          172 callgsubr
          vhcurveto
          76 callsubr
          70 109 60 -23 46 -45 28 hvcurveto
          52 hlineto
          199 -89 -255 255 hhcurveto
          73 55 26 42 30 hvcurveto
          -187 -66 callgsubr
        </CharString>
        <CharString name="dvJ_KA">
          662 1238 195 callgsubr
          -1262 -80 798 -297 vlineto
          -60 -46 -43 -54 -64 -41 47 61 70 47 44 65 6 8 -1 -1 5 54 callgsubr
          -32 -31 -6 -11 -27 hvcurveto
          -493 -81 hlineto
          -103 callsubr
          211 hlineto
          -15 -27 -8 -33 -37 vvcurveto
          -109 76 -76 112 48 38 18 27 28 vhcurveto
          -91 callgsubr
        </CharString>
        <CharString name="dvJ_MA">
          458 827 -22 callsubr
          206 80 rmoveto
          -1057 -80 561 -115 -443 -81 hlineto
          -103 callsubr
          253 -24 hlineto
          -27 callsubr
        </CharString>
        <CharString name="dvJ_NA">
          96 213 callgsubr
          487 202 callgsubr
          104 62 -43 -76 -70 -49 -34 -72 -41 -36 11 16 -32 hvcurveto
          -86 vlineto
          -14 35 44 -9 44 hhcurveto
          116 84 71 104 62 -26 43 -43 25 hvcurveto
          185 -209 hlineto
          -196 -119 rlineto
          -35 -23 -14 -25 -27 vvcurveto
          -52 53 -45 40 -21 vhcurveto
          60 38 rlineto
          -24 21 -26 23 27 vvcurveto
          14 6 12 13 8 vhcurveto
          123 79 rlineto
          -75 97 -37 callgsubr
        </CharString>
        <CharString name="dvJ_NY">
          -29 546 -16 callsubr
          -576 -80 576 hlineto
          158 -173 rmoveto
          80 -455 vlineto
          32 callsubr
          endchar
        </CharString>
        <CharString name="dvJ_NYA">
          181 -30 -16 callsubr
          -80 600 -75 -321 vlineto
          -97 -79 -42 -90 -83 64 -44 118 71 46 -15 -52 -49 -36 -32 -53 -61 -54 43 51 -21 hvcurveto
          56 callsubr
          80 hlineto
          endchar
        </CharString>
        <CharString name="dvJ_NY_YA">
          573 941 49 callgsubr
          -87 -35 43 67 -27 vhcurveto
          81 25 67 48 169 callgsubr
          -1179 -80 699 hlineto
          16 -19 14 -29 -38 vvcurveto
          -43 -35 -33 -55 -22 vhcurveto
          53 -40 -58 38 -109 hhcurveto
          -153 hlineto
          32 callsubr
          133 hlineto
          252 -134 -278 280 hhcurveto
          -6 callgsubr
          vlineto
          endchar
        </CharString>
        <CharString name="dvJ_R">
          198 callgsubr
          -390 -670 rmoveto
          129 hlineto
          350 301 -53 64 rlineto
          -438 190 rmoveto
          -16 callgsubr
          345 81 hlineto
          endchar
        </CharString>
        <CharString name="dvJ_RA">
          106 213 callgsubr
          498 -115 -375 -16 callgsubr
          182 -164 hlineto
          -363 -310 rlineto
          129 hlineto
          234 200 rlineto
          -100 97 -37 callgsubr
        </CharString>
        <CharString name="dvJ_TA">
          467 1042 -16 callsubr
          -1066 -80 858 -112 -95 hlineto
          -4 0 -641 -81 hlineto
          103 62 -41 -81 -70 -49 -38 -71 -42 -36 11 16 -31 hvcurveto
          -86 vlineto
          -14 35 44 -9 79 callsubr
          80 71 108 61 -24 46 -43 26 hvcurveto
          244 hlineto
          -32 -38 -15 -50 -57 -83 callsubr
        </CharString>
        <CharString name="dvJ_TTA">
          365 834 570 rmoveto
          106 80 -964 -80 762 -107 -20 hlineto
          -25 -23 -3 -5 -22 hvcurveto
          -554 -81 hlineto
          -103 callsubr
          228 hlineto
          -29 -36 -16 -45 -51 -78 callgsubr
        </CharString>
        <CharString name="dvJ_VA">
          456 1031 -16 callsubr
          -1055 -80 847 36 callgsubr
          -41 -37 -10 -17 -31 hvcurveto
          -470 -81 hlineto
          -103 callsubr
          204 hlineto
          -13 -26 -7 -31 -32 131 callgsubr
        </CharString>
        <CharString name="dvJ_YA">
          483 -24 570 -36 callgsubr
        </CharString>
        <CharString name="dvJx">
          -122 446 -16 callsubr
          -470 -80 470 hlineto
          -286 -595 -104 callsubr
          394 480 rmoveto
          -460 -81 hlineto
          -103 callsubr
          270 hlineto
          endchar
        </CharString>
        <CharString name="dvJxA">
          101 160 -25 -104 callsubr
          -184 675 rmoveto
          -80 493 -11 callsubr
          80 hlineto
          endchar
        </CharString>
        <CharString name="dvJx_JxA">
          502 160 -25 -104 callsubr
          400 hmoveto
          -12 callgsubr
          -34 25 206 callsubr
          517 675 rmoveto
          -1101 -80 893 -115 -775 -81 hlineto
          -103 callsubr
          210 hlineto
          -4 callsubr
          hlineto
          endchar
        </CharString>
        <CharString name="dvJx_R">
          198 callgsubr
          15 -573 -104 callsubr
          -405 -97 rmoveto
          129 hlineto
          350 301 -53 64 rlineto
          -438 190 rmoveto
          -16 callgsubr
          345 81 hlineto
          endchar
        </CharString>
        <CharString name="dvJx_RA">
          106 409 -63 -104 callsubr
          -433 713 rmoveto
          -80 498 -115 -375 -16 callgsubr
          182 -164 hlineto
          -363 -310 rlineto
          129 hlineto
          234 200 rlineto
          -100 97 -37 callgsubr
        </CharString>
        <CharString name="dvJx_YA">
          483 118 -85 rmoveto
          -34 25 -25 34 33 27 25 34 33 -27 27 -33 -12 callgsubr
          vhcurveto
          -142 655 -36 callgsubr
        </CharString>
        <CharString name="dvK">
          -24 440 570 rmoveto
          111 80 -575 -57 callgsubr
          45 43 54 38 29 -17 -26 16 vhcurveto
          68 69 rlineto
          33 -33 -48 19 -56 58 callsubr
          endchar
        </CharString>
        <CharString name="dvKA">
          231 807 195 callgsubr
          -831 -80 367 -19 callgsubr
        </CharString>
        <CharString name="dvKH">
          45 537 291 rmoveto
          -101 callsubr
          118 326 80 -644 163 callgsubr
          vlineto
          -72 callsubr
          180 122 119 146 124 -81 71 -114 -52 callgsubr
          endchar
        </CharString>
        <CharString name="dvKHA">
          246 822 -16 callsubr
          -846 -80 239 -129 hlineto
          -55 -32 -36 -81 vhcurveto
          -70 -78 hlineto
          -74 callgsubr
        </CharString>
        <CharString name="dvKH_KHA">
          819 1186 463 rmoveto
          21 -29 -37 169 callsubr
          17 hvcurveto
          71 vlineto
          -6 -13 -12 -2 -12 hhcurveto
          -35 187 callsubr
          -95 -71 -117 -121 -93 80 102 -27 hvcurveto
          1 9 1 3 hhcurveto
          83 8 27 51 89 vvcurveto
          118 324 vlineto
          -649 -279 rmoveto
          -101 callsubr
          118 472 -101 vlineto
          -62 -10 -27 -61 vhcurveto
          74 -28 -67 41 -87 -48 callgsubr
          857 430 rmoveto
          -1418 163 callgsubr
          hlineto
          -72 callsubr
          131 101 63 91 44 hvcurveto
          -91 63 96 -63 127 hhcurveto
          92 76 34 54 50 hvcurveto
          -123 97 -82 callgsubr
        </CharString>
        <CharString name="dvKH_MA">
          619 988 -22 callsubr
          -451 -279 rmoveto
          -101 callsubr
          118 404 -200 vlineto
          80 -25 -70 45 -90 -48 callgsubr
          657 430 rmoveto
          -1218 163 callgsubr
          hlineto
          -72 callsubr
          135 102 67 95 43 hvcurveto
          24 -55 rlineto
          72 callsubr
        </CharString>
        <CharString name="dvKH_NA">
          251 618 463 rmoveto
          21 -29 -36 11 -40 -48 callgsubr
          71 vlineto
          -6 -12 -13 -2 -11 hhcurveto
          -36 187 callsubr
          -94 -71 -118 -120 -93 80 102 -28 hvcurveto
          2 9 1 2 hhcurveto
          83 8 27 51 89 vvcurveto
          118 324 45 callsubr
          -850 163 callgsubr
          hlineto
          -63 -9 -26 -63 vhcurveto
          -67 -78 hlineto
          40 -120 85 -100 122 -34 -109 -45 rcurveline
          -49 -16 -19 -27 -34 vvcurveto
          -46 37 -50 29 -26 vhcurveto
          67 21 rlineto
          -17 28 -17 34 22 vvcurveto
          16 8 10 17 7 vhcurveto
          276 118 rlineto
          0 vlineto
          35 15 30 22 24 26 rrcurveto
          -123 97 -82 callgsubr
        </CharString>
        <CharString name="dvKH_R">
          27 530 295 -25 callgsubr
        </CharString>
        <CharString name="dvKH_RA">
          244 611 462 -47 callgsubr
          -843 -80 215 -99 hlineto
          -62 -8 -24 -63 vhcurveto
          -67 -78 hlineto
          16 callsubr
        </CharString>
        <CharString name="dvKH_SHA">
          767 811 441 -60 callsubr
        </CharString>
        <CharString name="dvKH_TA">
          606 973 458 -52 callsubr
        </CharString>
        <CharString name="dvKH_VA">
          608 976 307 rmoveto
          -102 callsubr
          -63 -53 -23 -38 -36 hvcurveto
          48 -34 -57 26 -69 28 callgsubr
          118 682 45 callsubr
          -1208 163 callgsubr
          hlineto
          -72 callsubr
          115 92 49 74 51 hvcurveto
          -45 38 58 -24 62 hhcurveto
          -58 callgsubr
        </CharString>
        <CharString name="dvKH_YA">
          649 1017 -104 callgsubr
          -723 hmoveto
          450 85 callsubr
          -27 -35 -56 -22 vhcurveto
          68 -29 -66 38 -83 28 callgsubr
          930 198 rmoveto
          -1248 163 callgsubr
          hlineto
          -72 callsubr
          135 102 67 94 43 hvcurveto
          -50 45 61 -27 67 -94 callgsubr
          vlineto
          endchar
        </CharString>
        <CharString name="dvKHx">
          44 91 43 -104 callsubr
          446 248 rmoveto
          -101 callsubr
          118 326 80 -644 163 callgsubr
          vlineto
          -72 callsubr
          180 122 119 146 124 -81 71 -114 -52 callgsubr
          endchar
        </CharString>
        <CharString name="dvKHxA">
          246 81 18 -104 callsubr
          741 632 rmoveto
          -846 -80 239 -129 hlineto
          -55 -32 -36 -81 vhcurveto
          -70 -78 hlineto
          -74 callgsubr
        </CharString>
        <CharString name="dvKHx_MA">
          619 91 43 -104 callsubr
          897 311 rmoveto
          -195 216 195 hlineto
          -451 -279 rmoveto
          -101 callsubr
          118 404 -200 vlineto
          80 -25 -70 45 -90 -48 callgsubr
          657 430 rmoveto
          -1218 163 callgsubr
          hlineto
          -72 callsubr
          135 102 67 95 43 hvcurveto
          24 -55 rlineto
          72 callsubr
        </CharString>
        <CharString name="dvKHx_R">
          27 547 -60 -104 callsubr
          -17 355 -25 callgsubr
        </CharString>
        <CharString name="dvKHx_RA">
          244 530 -35 -104 callsubr
          81 497 -47 callgsubr
          -843 -80 215 -99 hlineto
          -62 -8 -24 -63 vhcurveto
          -67 -78 hlineto
          16 callsubr
        </CharString>
        <CharString name="dvKHx_SA">
          710 91 43 -104 callsubr
          782 296 rmoveto
          -73 callsubr
          181 -231 vlineto
          -541 -48 rmoveto
          -101 callsubr
          118 507 -130 vlineto
          161 callgsubr
          -2 hlineto
          92 -19 -74 52 -97 -48 callgsubr
          748 430 rmoveto
          -1309 163 callgsubr
          hlineto
          -72 callsubr
          138 104 70 98 41 hvcurveto
          137 -203 -94 callsubr
          163 -259 -21 callgsubr
          hlineto
          endchar
        </CharString>
        <CharString name="dvKHx_SHA">
          767 91 43 -104 callsubr
          720 398 -60 callsubr
        </CharString>
        <CharString name="dvKHx_TA">
          606 91 43 -104 callsubr
          882 415 -52 callsubr
        </CharString>
        <CharString name="dvKHx_VA">
          608 91 43 -104 callsubr
          885 264 rmoveto
          -102 callsubr
          -63 -53 -23 -38 -36 hvcurveto
          48 -34 -57 26 -69 28 callgsubr
          118 682 45 callsubr
          -1208 163 callgsubr
          hlineto
          -72 callsubr
          115 92 49 74 51 hvcurveto
          -45 38 58 -24 62 hhcurveto
          -58 callgsubr
        </CharString>
        <CharString name="dvKHx_YA">
          649 91 43 -104 callsubr
          926 299 -24 callsubr
          -87 -75 -53 47 64 -16 vhcurveto
          75 25 68 47 144 callgsubr
          -723 hmoveto
          450 85 callsubr
          -27 -35 -56 -22 vhcurveto
          68 -29 -66 38 -83 28 callgsubr
          930 198 rmoveto
          -1248 163 callgsubr
          hlineto
          -72 callsubr
          135 102 67 94 43 hvcurveto
          -50 45 61 -27 67 -94 callgsubr
          vlineto
          endchar
        </CharString>
        <CharString name="dvK_CA">
          618 986 316 rmoveto
          -66 -54 -84 -111 -65 -46 32 60 60 47 51 143 vhcurveto
          81 -257 vlineto
          20 -26 -32 12 -43 hhcurveto
          -45 -34 -15 -24 -23 hvcurveto
          127 546 45 callsubr
          -1218 -57 callgsubr
          31 43 54 36 19 -15 -20 17 vhcurveto
          89 hlineto
          -42 -22 -28 -39 -59 vvcurveto
          -97 78 -65 110 vhcurveto
          94 1 59 40 29 44 rrcurveto
          -172 -66 callgsubr
        </CharString>
        <CharString name="dvK_DA">
          520 770 498 rmoveto
          -47 -45 -12 -25 -31 hvcurveto
          14 -27 -32 7 -35 hhcurveto
          -55 callgsubr
          420 -72 vlineto
          96 72 rmoveto
          140 80 -1120 -57 callgsubr
          45 43 54 26 21 -8 -13 17 vhcurveto
          -1 -7 -1 -8 -8 vvcurveto
          86 callgsubr
          vhcurveto
          -92 callsubr
        </CharString>
        <CharString name="dvK_JA">
          630 685 425 rmoveto
          31 -27 -47 26 -60 hhcurveto
          -47 -37 -18 -26 -27 hvcurveto
          132 557 -145 vlineto
          208 225 rmoveto
          -1229 -57 callgsubr
          44 43 50 48 28 -26 -33 12 vhcurveto
          -1 vlineto
          106 57 -39 -69 -63 -46 -30 -72 -42 -35 11 15 -32 hvcurveto
          -86 vlineto
          -13 33 42 -9 50 hhcurveto
          112 84 57 109 57 -25 38 -43 22 hvcurveto
          186 -344 -24 callgsubr
        </CharString>
        <CharString name="dvK_KA">
          758 869 99 callgsubr
          -38 -36 -8 -16 -30 hvcurveto
          22 -31 -39 12 -45 hhcurveto
          -55 callgsubr
          429 vlineto
          464 hmoveto
          80 -1357 -80 367 -297 vlineto
          -106 callsubr
          23 20 -6 -11 16 vhcurveto
          -20 -30 -11 -37 -43 vvcurveto
          -109 76 -76 112 48 38 18 27 28 vhcurveto
          -91 callgsubr
        </CharString>
        <CharString name="dvK_KHA">
          834 802 441 rmoveto
          -50 -27 -35 -66 -5 vhcurveto
          72 -13 -52 58 -97 hhcurveto
          -46 -36 -17 -25 -25 hvcurveto
          131 362 vlineto
          607 80 rmoveto
          -1433 -57 callgsubr
          42 42 51 53 28 -36 -41 5 vhcurveto
          -54 vlineto
          -74 callgsubr
        </CharString>
        <CharString name="dvK_LA">
          736 1103 469 rmoveto
          -54 callsubr
          -38 -32 -10 -18 -27 hvcurveto
          24 -32 -41 14 -48 hhcurveto
          -55 callgsubr
          663 45 callsubr
          -1335 -57 callgsubr
          45 43 54 33 26 -13 -20 17 vhcurveto
          -14 -31 -7 -36 -40 vvcurveto
          34 callgsubr
          vhcurveto
          -97 callgsubr
        </CharString>
        <CharString name="dvK_MA">
          561 930 347 -42 callgsubr
        </CharString>
        <CharString name="dvK_NA">
          244 819 195 callgsubr
          -843 -80 379 -292 vlineto
          -61 -46 -42 -53 -65 -40 44 60 71 47 42 65 6 7 -1 -1 6 54 callgsubr
          -114 -92 -72 -121 -89 50 -65 78 -21 hvcurveto
          -64 -44 rlineto
          -33 -22 -14 -25 -25 vvcurveto
          -52 60 -48 43 -21 vhcurveto
          56 43 rlineto
          -24 22 -33 30 27 vvcurveto
          9 5 9 11 9 vhcurveto
          147 108 rlineto
          0 vlineto
          7 5 7 6 6 6 rrcurveto
          -141 97 301 vlineto
          60 46 43 54 64 41 -47 -61 -70 -47 -43 -65 -7 -7 0 1 -5 -81 callsubr
          -76 75 -112 -48 -39 -19 -27 -27 hvcurveto
          134 vlineto
          endchar
        </CharString>
        <CharString name="dvK_NNA">
          756 879 31 callgsubr
          -439 hmoveto
          179 -98 hlineto
          7 -20 -22 3 -24 58 callsubr
          892 213 rmoveto
          -1356 -57 callgsubr
          45 43 54 36 28 -15 -23 16 vhcurveto
          -16 vlineto
          9 callgsubr
        </CharString>
        <CharString name="dvK_PA">
          556 923 -43 callgsubr
          -483 hmoveto
          173 -96 hlineto
          5 -19 -20 3 -21 58 callsubr
          692 213 rmoveto
          -1156 -57 callgsubr
          45 43 54 32 25 -12 -19 17 vhcurveto
          -141 1 68 -58 113 hhcurveto
          -39 callgsubr
        </CharString>
        <CharString name="dvK_PHA">
          803 923 -9 callgsubr
          -483 hmoveto
          173 -96 hlineto
          5 -19 -20 3 -21 58 callsubr
          938 133 rmoveto
          80 -1402 -80 367 -297 vlineto
          -106 callsubr
          32 25 -12 -19 17 vhcurveto
          -1 vlineto
          -142 67 -53 115 57 42 20 32 29 vhcurveto
          -103 callgsubr
        </CharString>
        <CharString name="dvK_P_RA">
          558 925 -32 callgsubr
          -485 hmoveto
          175 -97 hlineto
          6 -19 -21 3 -22 58 callsubr
          694 213 rmoveto
          -1158 -57 callgsubr
          45 43 54 33 27 -13 -21 17 vhcurveto
          5 -109 50 -53 83 -12 -34 callgsubr
        </CharString>
        <CharString name="dvK_R">
          -3 450 570 rmoveto
          122 80 -596 -80 376 -297 hlineto
          -60 callgsubr
          38 28 -17 -26 17 vhcurveto
          68 69 rlineto
          33 -33 -48 19 -56 58 callsubr
          endchar
        </CharString>
        <CharString name="dvK_RA">
          241 816 195 callgsubr
          -840 -80 376 -297 vlineto
          -60 -45 -43 -54 -65 -40 47 61 70 47 44 65 6 7 -1 -1 6 vhcurveto
          80 vlineto
          2 -7 -8 0 -8 hhcurveto
          -114 -91 -73 -122 -98 62 -69 91 -13 hvcurveto
          -134 -142 rlineto
          -35 callgsubr
        </CharString>
        <CharString name="dvK_SA">
          695 858 339 rmoveto
          17 25 8 32 40 vvcurveto
          134 180 -231 vlineto
          -623 44 callsubr
          831 212 rmoveto
          -1295 -99 callgsubr
          59 38 42 54 59 32 -50 -54 vhcurveto
          -20 vlineto
          189 -278 rlineto
          116 145 callgsubr
          35 52 -4 72 hhcurveto
          162 -259 -24 callgsubr
        </CharString>
        <CharString name="dvK_SHA">
          698 440 570 rmoveto
          100 80 -564 -80 367 -297 hlineto
          -107 callsubr
          305 vlineto
          68 3 54 41 63 hhcurveto
          35 26 -12 -16 20 hvcurveto
          100 hlineto
          -19 31 -10 40 29 vvcurveto
          41 21 44 48 52 25 -46 -63 -91 -50 -62 -103 vhcurveto
          -102 -83 hlineto
          202 -226 rlineto
          126 hlineto
          -212 229 rlineto
          14 hlineto
          121 100 78 151 107 -58 88 -115 -103 -57 -75 -78 -6 0 -5 1 -6 hvcurveto
          6 -19 -21 3 -23 hhcurveto
          -52 -40 -19 -28 -27 hvcurveto
          613 205 rmoveto
          -650 97 570 203 callsubr
        </CharString>
        <CharString name="dvK_SS">
          -10 273 578 -54 callgsubr
          384 -257 rmoveto
          77 -265 vlineto
          -95 callgsubr
          endchar
        </CharString>
        <CharString name="dvK_SSA">
          213 273 578 -54 callgsubr
          308 72 rmoveto
          -252 -189 vlineto
          -95 callgsubr
          239 -321 98 55 callsubr
        </CharString>
        <CharString name="dvK_SS_MA">
          545 914 -22 callsubr
          -641 8 -54 callgsubr
          223 72 rmoveto
          -80 128 -172 -232 vlineto
          -95 callgsubr
          243 hlineto
          -3 -7 -2 -9 -9 -33 callsubr
          80 hlineto
          endchar
        </CharString>
        <CharString name="dvK_SS_M_YA">
          916 1284 -78 callsubr
          -502 222 -54 callgsubr
          218 72 rmoveto
          -80 128 -172 -227 vlineto
          -95 callgsubr
          239 hlineto
          -4 -8 -2 -9 -10 62 callgsubr
          80 vlineto
          endchar
        </CharString>
        <CharString name="dvK_SS_VA">
          539 273 578 -54 callgsubr
          841 72 rmoveto
          -601 -80 393 -2 callgsubr
          -76 -60 -33 -51 -35 hvcurveto
          -193 hlineto
          -95 callgsubr
          212 hlineto
          -2 -12 -1 -12 -12 131 callgsubr
        </CharString>
        <CharString name="dvK_SS_YA">
          559 927 77 callsubr
          -80 -48 49 72 -18 vhcurveto
          85 22 60 50 85 vvcurveto
          33 -9 32 -14 24 vhcurveto
          170 hlineto
          -654 8 rmoveto
          47 34 -38 -39 -58 -40 -26 -45 -16 hvcurveto
          -51 22 -26 35 42 vvcurveto
          43 33 35 48 vhcurveto
          236 72 rmoveto
          -80 145 vlineto
          16 -16 14 -29 -31 vvcurveto
          -98 -123 -23 -117 -31 -28 2 3 -26 vhcurveto
          49 24 38 38 69 vvcurveto
          85 -70 63 -106 -104 -67 -75 -80 -54 23 -46 45 -35 vhcurveto
          -67 -28 -58 -51 -84 vvcurveto
          -98 73 -64 110 60 57 26 35 22 vhcurveto
          -103 95 221 -91 vlineto
          -56 -16 -49 -43 -65 hhcurveto
          -56 -41 33 54 54 47 39 59 23 hvcurveto
          -18 52 66 -10 78 hhcurveto
          35 31 1 4 30 hvcurveto
          -113 31 85 -70 114 hhcurveto
          179 callsubr
          vlineto
          endchar
        </CharString>
        <CharString name="dvK_S_DDA">
          505 273 578 -54 callgsubr
          668 -8 97 callsubr
          -77 -69 -31 -69 -18 hvcurveto
          -199 hlineto
          -95 callgsubr
          249 hlineto
          19 -68 72 -28 95 -3 rrcurveto
          -92 callsubr
        </CharString>
        <CharString name="dvK_S_P_LA">
          1507 1874 469 rmoveto
          -54 callsubr
          -96 -64 -66 -99 -14 hvcurveto
          -33 -30 -41 -21 -46 86 callsubr
          198 720 vlineto
          -1016 -231 rmoveto
          17 25 8 32 40 vvcurveto
          134 174 -195 vlineto
          -13 1 -12 1 -11 vhcurveto
          -619 44 callsubr
          1642 212 rmoveto
          -2106 -99 callgsubr
          59 38 42 54 59 32 -50 -54 vhcurveto
          -20 vlineto
          189 -278 rlineto
          116 145 callgsubr
          35 52 -4 72 hhcurveto
          178 hlineto
          -59 28 56 -26 77 hhcurveto
          50 44 15 23 35 hvcurveto
          -125 19 92 -87 137 -80 callsubr
        </CharString>
        <CharString name="dvK_S_P_RA">
          1017 1384 -32 callgsubr
          -526 -231 rmoveto
          -73 callsubr
          192 -179 vlineto
          -19 1 -17 3 -16 vhcurveto
          -638 231 rmoveto
          346 -130 hlineto
          -51 -16 -31 -60 -6 vhcurveto
          74 -18 -54 54 -91 hhcurveto
          -45 -36 -17 -25 -26 hvcurveto
          1153 212 rmoveto
          -1617 -99 callgsubr
          59 38 42 54 59 32 -50 -54 vhcurveto
          -20 vlineto
          -98 callsubr
          206 hlineto
          24 -36 36 -20 47 -7 -34 callgsubr
        </CharString>
        <CharString name="dvK_S_TA">
          550 273 578 -54 callgsubr
          852 72 rmoveto
          -601 -80 394 -112 -96 hlineto
          -84 -62 -22 -38 -42 hvcurveto
          -242 hlineto
          -95 callgsubr
          240 hlineto
          -10 -27 -5 -30 -32 vvcurveto
          -133 80 -99 138 107 callsubr
          -42 2 callgsubr
          88 -377 -21 callgsubr
          hlineto
          endchar
        </CharString>
        <CharString name="dvK_S_TTA">
          469 273 578 -54 callgsubr
          665 -8 rmoveto
          106 80 -525 -80 322 -107 -20 hlineto
          -77 -1 -63 -24 -43 -40 rrcurveto
          -246 hlineto
          -95 callgsubr
          243 hlineto
          -9 -24 -5 -27 -28 69 callsubr
        </CharString>
        <CharString name="dvK_TA">
          367 942 195 callgsubr
          -966 -80 471 -115 -381 -81 64 vlineto
          41 hlineto
          -43 -36 -21 -53 -64 vvcurveto
          -136 90 -83 129 12 12 1 1 8 vhcurveto
          83 vlineto
          -1 -5 -10 -1 -6 hhcurveto
          -86 -46 54 85 98 57 53 115 hvcurveto
          70 -375 97 264 hlineto
          65 49 46 66 83 41 -70 -76 -89 -42 -57 -74 -10 -14 1 2 -11 vhcurveto
          -80 vlineto
          -3 12 17 -1 14 hhcurveto
          126 80 91 135 126 -73 99 -138 -54 -43 -18 -29 -29 hvcurveto
          164 vlineto
          endchar
        </CharString>
        <CharString name="dvK_THA">
          692 1059 -16 callsubr
          104 callsubr
          -82 -45 36 72 -24 vhcurveto
          143 37 94 64 112 vvcurveto
          193 callgsubr
          -26 6 -16 3 -10 vhcurveto
          92 hlineto
          -2 9 -6 10 24 217 callsubr
          -60 -40 -117 -33 vhcurveto
          60 -26 -42 51 -85 hhcurveto
          -45 -36 -16 -25 -25 hvcurveto
          131 133 80 -597 -80 367 -297 vlineto
          -107 callgsubr
          61 40 39 55 vhcurveto
          135 -87 -298 292 hhcurveto
          89 72 46 40 23 136 callsubr
          107 80 vlineto
          endchar
        </CharString>
        <CharString name="dvK_TTA">
          482 440 570 rmoveto
          415 -107 -20 hlineto
          -56 -1 -48 -13 -39 -22 rrcurveto
          36 -33 -50 19 -56 58 callsubr
          511 133 rmoveto
          106 80 -1081 -57 callgsubr
          45 43 54 37 27 -13 -26 19 vhcurveto
          -24 -34 -14 -42 -47 -78 callgsubr
        </CharString>
        <CharString name="dvK_T_RA">
          561 943 385 rmoveto
          54 -47 -65 28 -77 hhcurveto
          -43 -41 -10 -15 -32 hvcurveto
          21 -24 -30 14 -43 hhcurveto
          -41 -35 -16 -24 -25 hvcurveto
          133 503 45 callsubr
          -1175 -57 callgsubr
          43 38 45 44 25 -28 -33 14 vhcurveto
          23 33 50 22 58 hhcurveto
          69 -1 55 -35 34 -50 -287 -175 rcurveline
          50 -73 270 167 rlineto
          -216 97 -82 callgsubr
        </CharString>
        <CharString name="dvK_T_VA">
          920 1277 307 rmoveto
          -102 callsubr
          -39 -35 -9 -15 -29 hvcurveto
          -186 hlineto
          -59 -49 -11 -20 -38 hvcurveto
          33 -34 -48 21 -55 hhcurveto
          -48 -39 -18 -27 -27 hvcurveto
          134 837 45 callsubr
          -1509 -99 callgsubr
          61 45 41 55 35 27 -16 -20 18 vhcurveto
          -26 -37 -13 -46 -52 91 callsubr
          97 hlineto
          -14 -27 -7 -31 -34 -59 callgsubr
        </CharString>
        <CharString name="dvK_T_YA">
          961 1330 -104 callgsubr
          -503 -112 rmoveto
          -56 -46 -12 -21 -36 hvcurveto
          35 -31 -45 22 -60 hhcurveto
          -55 callgsubr
          617 vlineto
          -65 callsubr
          -39 -28 -35 -59 -23 vhcurveto
          40 -29 -52 31 -75 hhcurveto
          693 192 rmoveto
          -1561 -57 callgsubr
          45 43 54 40 27 -20 -26 16 vhcurveto
          -21 -35 -11 -43 -48 vvcurveto
          -133 77 -99 141 13 11 1 1 9 vhcurveto
          46 callgsubr
        </CharString>
        <CharString name="dvK_VA">
          569 937 307 rmoveto
          -102 callsubr
          -46 -40 -12 -21 -33 hvcurveto
          21 -31 -39 12 -44 hhcurveto
          -55 callgsubr
          497 45 callsubr
          -1169 -57 callgsubr
          45 43 54 27 22 -8 -15 17 vhcurveto
          -16 -28 -8 -33 -35 -59 callgsubr
        </CharString>
        <CharString name="dvK_V_YA">
          904 1272 -104 callgsubr
          -426 -95 rmoveto
          4 -17 -25 3 -24 hhcurveto
          -44 -40 -11 -20 -32 hvcurveto
          20 -30 -38 11 -43 hhcurveto
          -55 callgsubr
          559 -49 callsubr
          8 -61 19 -50 27 -40 rrcurveto
          -30 -31 -38 -20 -53 hhcurveto
          -73 -55 134 callgsubr
          633 260 rmoveto
          -1503 -57 callgsubr
          45 43 54 25 20 -7 -12 16 vhcurveto
          -16 -29 -9 -34 -37 vvcurveto
          176 callsubr
          82 61 33 42 41 vhcurveto
          -30 40 48 -15 51 -94 callgsubr
          vlineto
          endchar
        </CharString>
        <CharString name="dvK_YA">
          642 1016 -38 callgsubr
          -1247 -99 callgsubr
          61 40 35 51 vhcurveto
          140 -85 -278 270 hhcurveto
          76 58 31 37 26 70 callgsubr
          vlineto
          endchar
        </CharString>
        <CharString name="dvKx">
          -7 161 17 -104 callsubr
          279 553 rmoveto
          111 80 -575 -57 callgsubr
          45 43 54 38 29 -17 -26 16 vhcurveto
          68 69 rlineto
          33 -33 -48 19 -56 58 callsubr
          endchar
        </CharString>
        <CharString name="dvKxA">
          231 161 17 -104 callsubr
          646 553 rmoveto
          80 -831 -80 367 -19 callgsubr
        </CharString>
        <CharString name="dvKx_BA">
          611 161 17 -104 callsubr
          818 285 rmoveto
          -69 callgsubr
          -60 -51 -18 -31 -38 hvcurveto
          20 -31 -38 11 -43 hhcurveto
          -55 callgsubr
          539 vlineto
          -68 -387 -33 callgsubr
          -1211 -57 callgsubr
          45 43 54 29 24 -10 -17 17 vhcurveto
          -12 -26 -6 -30 -32 59 callsubr
        </CharString>
        <CharString name="dvKx_KxA">
          758 161 17 -104 callsubr
          526 hmoveto
          -12 callgsubr
          -34 25 206 callsubr
          182 256 rmoveto
          -60 -46 -43 -54 -64 -41 47 61 70 47 44 65 6 8 -1 -1 5 54 callgsubr
          -38 -36 -8 -16 -30 hvcurveto
          22 -31 -39 12 -45 hhcurveto
          -55 callgsubr
          429 vlineto
          464 hmoveto
          80 -1357 -80 367 -297 vlineto
          -106 callsubr
          23 20 -6 -11 16 vhcurveto
          -20 -30 -11 -37 -43 vvcurveto
          -109 76 -76 112 48 38 18 27 28 vhcurveto
          -91 callgsubr
        </CharString>
        <CharString name="dvKx_MA">
          561 161 17 -104 callsubr
          769 330 -42 callgsubr
        </CharString>
        <CharString name="dvKx_PHA">
          802 161 17 -104 callsubr
          761 363 rmoveto
          -64 callsubr
          198 213 vlineto
          -482 hmoveto
          172 -96 hlineto
          5 -18 -20 3 -21 58 callsubr
          937 133 rmoveto
          80 -1401 -80 367 -297 vlineto
          -106 callsubr
          31 25 -11 -19 17 vhcurveto
          -2 vlineto
          -142 67 -53 115 57 42 20 32 29 vhcurveto
          -103 callgsubr
        </CharString>
        <CharString name="dvKx_PHxA">
          802 161 17 -104 callsubr
          527 61 -104 callsubr
          234 302 rmoveto
          -64 callsubr
          198 213 vlineto
          -482 hmoveto
          172 -96 hlineto
          5 -18 -20 3 -21 58 callsubr
          937 133 rmoveto
          80 -1401 -80 367 -297 vlineto
          -106 callsubr
          31 25 -11 -19 17 vhcurveto
          -2 vlineto
          -142 67 -53 115 57 42 20 32 29 vhcurveto
          -103 callgsubr
        </CharString>
        <CharString name="dvKx_R">
          -3 296 -69 -104 callsubr
          154 639 rmoveto
          122 80 -596 -80 376 -297 hlineto
          -60 callgsubr
          38 28 -17 -26 17 vhcurveto
          68 69 rlineto
          33 -33 -48 19 -56 58 callsubr
          endchar
        </CharString>
        <CharString name="dvKx_RA">
          241 293 -34 -104 callsubr
          523 604 rmoveto
          80 -840 -80 376 -297 vlineto
          -60 -45 -43 -54 -65 -40 47 61 70 47 44 65 6 7 -1 -1 6 vhcurveto
          80 vlineto
          2 -7 -8 0 -8 hhcurveto
          -114 -91 -73 -122 -98 62 -69 91 -13 hvcurveto
          -134 -142 rlineto
          -35 callgsubr
        </CharString>
        <CharString name="dvKx_TA">
          574 161 17 -104 callsubr
          781 441 rmoveto
          -95 hlineto
          -62 -50 -12 -22 -39 hvcurveto
          34 -35 -46 24 -62 hhcurveto
          -55 callgsubr
          502 45 callsubr
          -1174 -57 callgsubr
          45 43 54 38 28 -16 -27 21 vhcurveto
          -24 -36 -11 -44 -49 -83 callsubr
        </CharString>
        <CharString name="dvL">
          -62 344 83 rmoveto
          -86 callgsubr
          62 37 29 -21 -20 13 vhcurveto
          51 58 rlineto
          36 -30 -43 25 -62 hhcurveto
          -73 -53 -32 -65 47 callsubr
          -110 -67 -86 -122 34 callgsubr
          hvcurveto
          -368 566 rmoveto
          537 80 -537 hlineto
          endchar
        </CharString>
        <CharString name="dvLA">
          191 766 -16 callsubr
          -790 -80 582 -101 hlineto
          5 -15 -17 3 -19 hhcurveto
          -75 -52 -32 -65 -17 hvcurveto
          55 -12 -48 37 -77 hhcurveto
          -110 -67 -86 -122 -152 97 -112 155 -79 callsubr
        </CharString>
        <CharString name="dvLL">
          248 555 90 rmoveto
          114 89 76 118 112 -83 77 -122 73 callsubr
          -3 305 rmoveto
          68 40 -45 -66 -68 -41 -47 -66 -50 -45 29 33 -28 hvcurveto
          72 21 15 92 86 hhcurveto
          -309 -226 rmoveto
          11 callgsubr
          -267 401 rmoveto
          848 80 -848 hlineto
          endchar
        </CharString>
        <CharString name="dvLLA">
          -14 callsubr
          -37 36 54 -32 78 hhcurveto
          114 89 76 118 95 -59 69 -92 20 hvcurveto
          102 vlineto
          endchar
        </CharString>
        <CharString name="dvLL_R">
          248 430 231 rmoveto
          72 21 15 92 86 hhcurveto
          68 40 -45 -66 -68 -41 -47 -66 -50 -45 29 33 -28 hvcurveto
          -187 -62 rmoveto
          11 callgsubr
          97 -220 rmoveto
          114 callsubr
          112 -83 77 -122 -76 -43 -27 -37 -30 vhcurveto
          -7 callsubr
          21 -21 27 -20 33 -13 rrcurveto
          -492 545 rmoveto
          -80 848 80 vlineto
          endchar
        </CharString>
        <CharString name="dvLL_RA">
          -14 callsubr
          21 -21 27 -20 33 -13 -128 -156 rcurveline
          114 callsubr
          95 -59 69 -92 20 vhcurveto
          102 vlineto
          endchar
        </CharString>
        <CharString name="dvLL_YA">
          681 1049 -104 callgsubr
          -496 -401 rmoveto
          -50 -45 29 33 -28 hvcurveto
          72 21 15 92 86 hhcurveto
          52 35 -26 -41 14 hvcurveto
          2 -6 1 -6 2 -6 rrcurveto
          1 -8 1 -9 -9 vvcurveto
          -68 -41 -47 -66 vhcurveto
          -310 hmoveto
          11 callgsubr
          1013 481 rmoveto
          -1280 -80 800 hlineto
          -65 callsubr
          -37 -26 -34 -53 -22 vhcurveto
          51 -35 -62 31 -77 hhcurveto
          73 callsubr
          76 66 34 58 34 hvcurveto
          -41 44 55 -22 61 -94 callgsubr
          vlineto
          endchar
        </CharString>
        <CharString name="dvL_BA">
          567 867 183 -33 callgsubr
          -1167 -80 959 22 callgsubr
          -64 -55 -21 -36 -39 hvcurveto
          21 -27 -34 13 -45 hhcurveto
          -73 -53 -32 -65 -17 -106 callgsubr
          70 vlineto
          84 38 35 62 22 19 -7 -11 15 vhcurveto
          -13 -27 -7 -31 -34 59 callsubr
        </CharString>
        <CharString name="dvL_BHA">
          495 867 -16 callsubr
          -294 -184 168 vlineto
          83 -35 43 -95 vhcurveto
          -577 -80 559 153 callsubr
          -46 vlineto
          9 -24 -26 5 -26 hhcurveto
          -78 -53 -36 -61 -17 -106 callgsubr
          70 vlineto
          82 42 37 60 31 25 -8 -13 18 vhcurveto
          -26 vlineto
          -26 -6 -18 -23 -29 vvcurveto
          -25 12 -30 15 -34 vhcurveto
          28 -62 157 callgsubr
        </CharString>
        <CharString name="dvL_DA">
          514 971 401 rmoveto
          99 callsubr
          -1113 -80 898 -90 -95 vlineto
          -65 -53 -17 -28 -38 hvcurveto
          25 -29 -37 17 -51 hhcurveto
          -73 -53 -32 -65 -17 -106 callgsubr
          70 vlineto
          84 38 35 62 25 21 -9 -13 15 vhcurveto
          -16 -30 -9 -35 -38 vvcurveto
          142 callgsubr
          vhcurveto
          -77 callsubr
          endchar
        </CharString>
        <CharString name="dvL_DDA">
          485 921 201 callgsubr
          -1085 -80 849 -72 -90 hlineto
          -53 -49 -15 -32 -32 hvcurveto
          16 -25 -31 10 -39 hhcurveto
          -73 -53 -32 -65 -17 -106 callgsubr
          70 vlineto
          84 38 35 62 22 20 -8 -10 14 vhcurveto
          -1 -7 0 -7 -7 vvcurveto
          86 callgsubr
          vhcurveto
          -92 callsubr
        </CharString>
        <CharString name="dvL_DDHA">
          487 921 570 rmoveto
          142 80 -1087 -80 849 -98 hlineto
          1 -12 -12 1 -11 hhcurveto
          -64 -1 -55 -15 -44 -27 rrcurveto
          28 -29 -39 18 -53 hhcurveto
          -73 -53 -32 -65 -17 -106 callgsubr
          70 vlineto
          84 38 35 62 24 20 -9 -11 15 vhcurveto
          -28 -36 -15 -45 -52 vvcurveto
          -136 107 -93 146 130 79 69 91 -3 callsubr
        </CharString>
</ttFont>
